<svg width="687" height="394" viewBox="0 0 687 394" fill="none" xmlns="http://www.w3.org/2000/svg">
<path d="M200.843 91.345L100.564 149.239L200.843 207.122L200.854 207.133L243.855 182.307C243.855 182.307 243.844 182.307 243.844 182.296V173.281L215.386 173.908C211.458 169.32 212.751 163.615 219.319 159.799C227.573 155.007 241 155.007 249.298 159.799C252.635 161.726 254.628 164.132 255.289 166.629V166.642C255.523 167.514 255.59 168.389 255.501 169.261C255.323 170.862 256.24 172.397 257.629 173.203L258.614 173.775L301.133 149.228V140.168L200.843 91.345Z" fill="#00701A"/>
<path d="M258.189 115.364C260.383 114.155 262.88 113.596 265.387 113.741C271.524 114.122 277.907 112.947 282.621 110.225C290.931 105.433 290.975 97.6493 282.723 92.8569C274.469 88.0645 261.044 88.0645 252.745 92.8569C248.243 95.4556 246.183 98.926 246.541 102.32C246.721 103.922 245.802 105.454 244.415 106.261L243.418 106.844L200.854 82.2624L100.564 140.156L100.575 140.167L143.062 164.703H143.071L157.831 173.224L200.854 198.063L243.775 173.282C241.582 172.073 239.095 171.511 236.588 171.657C230.451 172.038 224.068 170.863 219.354 168.141C211.046 163.349 211 155.567 219.252 150.773C227.506 145.98 240.933 145.98 249.231 150.773C253.731 153.371 255.792 156.844 255.434 160.236C255.254 161.838 256.173 163.372 257.562 164.177L258.547 164.749L301.134 140.156L258.189 115.364Z" fill="#43A047"/>
<path d="M501.704 149.239L458.937 173.931C461.133 175.14 463.63 175.7 466.138 175.554C469.53 175.342 472.991 175.622 476.216 176.372L476.206 176.315L489.642 177.997L489.531 186.574C489.228 190.549 488.109 193.74 483.473 196.438C475.219 201.233 461.792 201.233 453.495 196.438C448.995 193.842 446.933 190.369 447.291 186.977C447.471 185.375 446.552 183.841 445.163 183.035L444.166 182.453L401.423 207.122L401.412 207.133L358.412 182.306C358.412 182.306 358.423 182.306 358.423 182.295C360.619 181.099 363.103 180.538 365.613 180.683C367.46 180.795 369.33 180.772 371.179 180.605C375.445 180.214 379.554 179.072 382.847 177.167C391.155 172.375 391.2 164.591 382.947 159.799C374.695 155.006 361.267 155.006 352.97 159.799C349.632 161.726 347.64 164.132 346.979 166.629C346.743 167.504 346.676 168.389 346.766 169.26C346.944 170.862 346.027 172.396 344.638 173.203L343.652 173.775L301.134 149.228V140.168L401.412 91.3447H401.423L501.704 140.168V149.239Z" fill="#00701A"/>
<path d="M401.423 198.063L401.412 198.056V91.3444L301.133 140.168V149.228L343.653 173.774L344.637 173.204C346.028 172.396 346.945 170.862 346.765 169.262C346.676 168.388 346.743 167.504 346.979 166.628C347.639 164.131 349.633 161.725 352.969 159.8C361.268 155.006 374.693 155.006 382.947 159.8C388.74 163.164 390.427 167.998 388.056 172.24L358.411 173.237V182.295L358.42 182.299C358.417 182.302 358.411 182.306 358.411 182.306L401.412 207.133V207.114L401.423 207.122V198.063Z" fill="#00701A"/>
<path d="M483.473 187.37C475.219 192.162 461.794 192.162 453.495 187.37C448.995 184.771 446.933 181.299 447.291 177.906C447.471 176.305 446.552 174.772 445.163 173.964L444.166 173.383L401.412 198.064L358.412 173.237C360.606 172.028 363.103 171.467 365.613 171.612C371.749 171.993 378.132 170.819 382.847 168.098C391.155 163.304 391.2 155.521 382.948 150.728C374.695 145.936 361.267 145.936 352.97 150.728C348.468 153.327 346.407 156.797 346.766 160.191C346.944 161.791 346.027 163.328 344.638 164.132L343.652 164.704L301.134 140.157L344.057 115.374C341.872 114.177 339.375 113.618 336.878 113.763C330.74 114.145 324.359 112.968 319.645 110.248C311.335 105.455 311.291 97.6718 319.543 92.8794C327.797 88.087 341.222 88.087 349.521 92.8794C354.021 95.4763 356.083 98.9485 355.725 102.341C355.545 103.942 356.464 105.477 357.851 106.283L358.837 106.854L401.423 82.274L501.704 140.168L458.937 164.86C461.133 166.07 463.63 166.629 466.138 166.484C472.274 166.104 478.659 167.279 483.371 170.001C491.681 174.792 491.725 182.575 483.473 187.37Z" fill="#43A047"/>
<path d="M258.11 240.184C260.305 238.975 262.802 238.414 265.31 238.559C271.447 238.94 277.83 237.765 282.544 235.043C286.739 232.624 288.82 229.443 288.798 226.268L288.806 226.265V216.413L284.829 219.188C284.175 218.661 283.463 218.149 282.646 217.675C274.392 212.883 260.965 212.883 252.667 217.675C248.165 220.274 246.106 223.744 246.464 227.136C246.644 228.738 245.725 230.274 244.337 231.079L243.351 231.664H243.34L200.853 207.128L157.898 231.941L143.128 240.464L100.574 265.033L200.853 322.927L243.62 298.235H243.631L254.247 292.098L258.39 289.703L301.133 265.022L258.11 240.184Z" fill="#00701A"/>
<path d="M282.544 225.979C277.83 228.701 271.447 229.876 265.311 229.497C262.803 229.35 260.306 229.911 258.11 231.12L243.35 222.6L244.336 222.015C245.725 221.21 246.642 219.674 246.464 218.072C246.106 214.68 248.166 211.21 252.668 208.613C260.965 203.818 274.392 203.818 282.646 208.613C290.898 213.403 290.854 221.187 282.544 225.979Z" fill="#F0646F"/>
<path d="M258.11 231.12C260.305 229.911 262.802 229.35 265.31 229.495C271.447 229.876 277.83 228.701 282.544 225.979C290.854 221.187 290.898 213.403 282.646 208.611C274.392 203.818 260.965 203.818 252.667 208.611C248.165 211.21 246.106 214.68 246.464 218.072C246.644 219.674 245.725 221.21 244.337 222.015L243.351 222.6H243.34L200.853 198.064L157.898 222.877L143.128 231.4L100.574 255.969L200.853 313.863L243.62 289.17H243.631L254.247 283.034L258.39 280.639L301.133 255.958L258.11 231.12Z" fill="#43A047"/>
<path d="M200.854 313.865V322.925L100.57 265.026V255.968L200.854 313.865Z" fill="#00701A"/>
<path d="M301.133 255.961L258.39 280.642L257.399 280.063C256.011 279.256 255.092 277.722 255.272 276.122C255.63 272.728 253.571 269.256 249.069 266.659C240.77 261.866 227.344 261.866 219.09 266.659C210.838 271.451 210.882 279.233 219.192 284.027C223.906 286.747 230.289 287.924 236.426 287.545C238.934 287.399 241.431 287.957 243.626 289.166L200.854 313.868L301.133 371.762L401.413 313.855L301.133 255.961Z" fill="#EAF0F8"/>
<path d="M301.139 371.766V380.826L200.854 322.927V313.867L301.139 371.766Z" fill="#C5DEF3"/>
<path d="M301.133 371.761V380.821L401.418 322.921V313.861L301.133 371.761Z" fill="#B2D9F3"/>
<path d="M459.049 240.402H459.038L458.052 240.985C456.665 241.792 455.746 243.324 455.924 244.926C456.285 248.32 454.224 251.791 449.72 254.389C441.423 259.183 427.995 259.183 419.744 254.389C411.492 249.597 411.535 241.813 419.845 237.021C424.56 234.301 430.941 233.124 437.077 233.505C439.587 233.651 442.084 233.091 444.278 231.882V222.811L425.426 220.997L401.413 207.133L379.637 219.707L358.535 222.822V231.891C360.729 233.1 363.25 233.661 365.758 233.516C371.894 233.135 378.266 234.312 382.98 237.034C391.301 241.824 383.093 254.4 383.093 254.4L501.703 265.038L459.049 240.402Z" fill="#00701A"/>
<path d="M459.049 231.333H459.038L458.052 231.914C456.665 232.722 455.746 234.255 455.924 235.857C456.285 239.249 454.224 242.721 449.72 245.318C441.423 250.112 427.996 250.112 419.744 245.318C411.492 240.526 411.535 232.742 419.845 227.952C424.56 225.23 430.941 224.053 437.077 224.434C439.587 224.579 442.084 224.02 444.278 222.812L401.413 198.064L358.535 222.822C360.729 224.031 363.25 224.592 365.758 224.445C371.894 224.065 378.266 225.242 382.981 227.963C391.301 232.755 391.334 240.537 383.093 245.331C374.829 250.123 361.401 250.123 353.115 245.331C348.602 242.732 346.543 239.26 346.9 235.868C347.091 234.266 346.172 232.733 344.785 231.925L343.775 231.344L301.133 255.958L343.998 280.716C341.803 281.923 339.308 282.484 336.8 282.337C330.663 281.958 324.28 283.133 319.566 285.853C311.258 290.647 311.212 298.429 319.466 303.223C327.718 308.016 341.145 308.016 349.443 303.223C353.945 300.624 356.006 297.152 355.646 293.76C355.466 292.158 356.385 290.624 357.774 289.819L358.768 289.238H358.77L401.413 313.85L501.703 255.967L459.049 231.333Z" fill="#43A047"/>
<path d="M401.413 313.855V322.915L501.698 265.017V255.957L401.413 313.855Z" fill="#00701A"/>
<path d="M182.334 228.015C177.619 225.293 171.236 224.118 165.1 224.497C162.592 224.644 160.095 224.083 157.899 222.874L200.855 198.067L157.825 173.221C160.02 172.011 162.517 171.452 165.027 171.597C171.163 171.979 177.545 170.802 182.259 168.08C190.569 163.287 190.615 155.504 182.361 150.713C174.109 145.919 160.681 145.919 152.384 150.713C147.882 153.31 145.821 156.78 146.181 160.175C146.359 161.774 145.442 163.309 144.052 164.115L143.059 164.696L100.576 140.168L0.283264 198.064L100.576 255.969L143.13 231.396L144.125 231.979C145.514 232.784 146.433 234.318 146.253 235.922C145.896 239.314 147.955 242.784 152.457 245.381C160.756 250.176 174.182 250.176 182.435 245.381C190.687 240.591 190.644 232.807 182.334 228.015Z" fill="#EAF0F8"/>
<path d="M100.568 255.961V265.023L0.283447 207.123V198.063L100.568 255.961Z" fill="#C5DEF3"/>
<g opacity="0.470001">
<g opacity="0.470001">
<path opacity="0.470001" d="M686.205 223.344C686.205 227.697 674.196 231.227 659.379 231.227C644.563 231.227 632.552 227.697 632.552 223.344C632.552 218.993 644.563 215.462 659.379 215.462C674.196 215.462 686.205 218.993 686.205 223.344Z" fill="#43A047"/>
</g>
</g>
<path d="M647.208 220.964C647.464 220.682 656.219 218.414 657.493 218.583C658.768 218.754 664.539 220.11 664.672 221.897C664.803 223.684 665.329 226.808 664.465 227.169C663.599 227.532 662.253 227.934 660.639 227.594C659.024 227.254 656.898 225.044 655.539 225.044C654.179 225.044 650.749 224.71 648.824 223.94C646.272 222.92 646.443 221.814 647.208 220.964Z" fill="#2B2950"/>
<path d="M665.961 155.802C665.911 156.689 665.849 157.586 665.792 158.476C665.453 163.747 662.166 189.429 662.166 189.429C662.166 189.429 664.714 211.421 664.672 221.897C664.1 222.962 663.217 223.79 661.872 223.641C661.418 223.59 661 223.488 660.611 223.336C660.188 223.183 659.805 222.978 659.458 222.744C657.704 221.565 656.898 219.689 656.898 219.689C656.898 219.689 649.87 191.483 649.554 186.889C648.993 178.631 651.119 167.635 651.399 158.465C651.404 158.356 651.404 158.25 651.415 158.149C651.987 144.333 662.269 144.765 664.421 146.116C666.227 147.244 666.212 151.4 665.961 155.802Z" fill="#903941"/>
<path d="M665.961 155.802C663.37 157.241 659.934 158.479 655.75 158.485C654.263 158.485 652.808 158.361 651.415 158.149C651.987 144.333 662.27 144.765 664.421 146.116C666.227 147.244 666.212 151.4 665.961 155.802Z" fill="#80333E"/>
<path d="M660.611 223.335C660.19 223.182 659.807 222.979 659.458 222.745C657.851 213.961 653.868 192.136 653.333 187.961C652.65 182.669 658.363 152.852 658.606 151.588L659.612 151.783C659.55 152.09 653.681 182.7 654.344 187.832C654.898 192.112 659.107 215.145 660.611 223.335Z" fill="#80333E"/>
<path d="M654.344 158.448C649.426 168.322 640.577 181.181 640.577 181.181C640.577 181.181 647.683 201.771 648.783 204.918C649.13 207.586 647.795 208.957 646.117 209.146C645.718 209.202 645.296 209.182 644.871 209.091C644.034 208.922 643.193 208.499 642.491 207.829C637.517 202.092 627.632 185.185 626.933 180.288C626.464 176.993 633.38 162.963 638.706 153.558C641.292 148.981 643.499 145.498 644.301 144.87C646.747 142.949 657.761 141.999 657.536 149.432C657.474 151.46 656.185 154.745 654.344 158.448Z" fill="#B14D53"/>
<path d="M657.536 149.432C657.474 151.461 656.185 154.746 654.344 158.449C647.279 158.087 641.261 155.053 638.706 153.556C641.292 148.982 643.5 145.499 644.301 144.87C646.749 142.949 657.761 141.999 657.536 149.432Z" fill="#903941"/>
<path d="M631.647 182.001C632.35 187.046 644.739 206.948 646.117 209.145C645.718 209.203 645.296 209.182 644.871 209.091C642.344 205.027 631.329 187.143 630.636 182.145C629.857 176.539 648.534 146.973 649.33 145.714L650.187 146.264C644.826 154.731 631.039 177.656 631.647 182.001Z" fill="#903941"/>
<path d="M647.974 202.985C645.842 201.919 641.727 203.368 641.215 207.065C640.704 210.763 641.852 222.111 643.637 221.856C645.424 221.6 649.249 217.138 649.121 214.206C648.994 211.273 647.718 211.146 648.101 209.871C648.482 208.596 650.778 204.387 647.974 202.985Z" fill="#2B2950"/>
<path d="M672.587 72.0535C672.495 72.1298 672.378 72.2061 672.24 72.2733C672.173 72.3096 672.102 72.3441 672.035 72.3859C671.817 72.5184 671.608 72.6601 671.378 72.809C671.214 72.9107 671.036 73.0178 670.833 73.1141C670.455 73.3029 669.99 73.4664 669.355 73.5644C669.24 73.579 669.13 73.5953 669.006 73.6098C668.016 73.717 666.645 73.6861 664.651 73.401C664.559 73.6443 664.417 74.1201 664.226 74.7684C663.478 77.3944 662.06 82.8515 660.703 87.1554C659.714 90.3025 658.76 92.8376 658.112 93.2099C655.624 94.6591 651.487 92.9085 651.226 90.9762C651.144 90.3788 651.741 88.3703 652.664 85.8152C654.725 80.0966 658.433 71.6504 659.944 70.1576C662.125 68.0002 665.002 68.1219 666.885 68.565C668.044 68.8356 669.553 69.3041 670.76 69.8344C671.093 69.9778 671.4 70.1304 671.668 70.2829C672.725 70.8713 673.275 71.5142 672.587 72.0535Z" fill="#F59386"/>
<path d="M660.703 87.1561C659.713 90.3032 658.76 92.8383 658.112 93.2088C655.624 94.658 651.487 92.9092 651.225 90.9769C651.144 90.3795 651.741 88.3692 652.664 85.8141C653.833 85.4981 655.288 85.3601 657.022 85.667C658.5 85.9321 659.719 86.4932 660.703 87.1561Z" fill="#F27465"/>
<path d="M671.668 70.2828C671.185 70.5588 670.475 70.8131 669.653 70.6587C668.641 70.4662 668.053 70.2392 668.053 70.2392C668.053 70.2392 667.35 70.6678 665.964 70.3591C664.666 70.0649 663.754 69.4601 663.642 69.3802C663.818 69.4384 666.19 70.2047 667.72 69.3839C669.582 69.9287 670.125 70.1266 670.762 69.8361C671.091 69.9795 671.398 70.1321 671.668 70.2828Z" fill="#F27465"/>
<path d="M664.649 73.4023C664.557 73.6456 664.413 74.1178 664.23 74.7643C663.117 74.4882 661.457 73.4458 660.58 72.1565C662.721 73.2769 664.649 73.4023 664.649 73.4023Z" fill="#F27465"/>
<path d="M669.351 73.5628C669.242 73.581 669.129 73.5955 669.006 73.6118C668.025 72.9091 666.736 72.673 665.444 72.4932C664.415 71.7305 662.506 71.3673 662.506 71.3673C663.534 71.2856 664.54 71.1421 666.062 72.0882C668.018 72.3061 669.093 72.9781 669.351 73.5628Z" fill="#F27465"/>
<path d="M664.369 71.6546L669.294 70.0057L669.803 70.1982L665.395 71.9215L664.369 71.6546Z" fill="#F27465"/>
<path d="M672.587 72.0545C672.495 72.1308 672.378 72.2052 672.242 72.2724C672.171 72.3087 672.102 72.345 672.033 72.3868C670.784 71.8148 669.571 71.1083 668.2 70.8196C667.958 70.7688 668.027 70.3892 668.263 70.3947C669.066 70.411 669.919 70.7887 670.66 71.0811C671.349 71.3517 671.973 71.6677 672.587 72.0545Z" fill="#F27465"/>
<path d="M671.377 72.8099C671.212 72.9116 671.038 73.017 670.831 73.1169C670.52 72.9425 670.204 72.7537 669.894 72.6011C668.853 72.089 667.836 71.6205 666.719 71.2772C666.478 71.2046 666.561 70.8577 666.803 70.9031C667.851 71.0884 668.842 71.4643 669.801 71.9147C670.364 72.1816 670.867 72.4958 671.377 72.8099Z" fill="#F27465"/>
<path d="M651.228 90.977C651.228 90.977 654.397 87.1815 658.209 89.1301C659.422 89.7512 660.317 90.8589 660.793 92.1338C664.879 103.07 666.428 109.384 667.023 112.822C667.643 116.401 668.031 118.98 665.3 119.699C662.571 120.416 657.342 117.778 655.267 110.873C653.189 103.965 650.866 93.296 651.228 90.977Z" fill="#EAF0F8"/>
<path d="M650.492 90.4584C650.492 90.4584 651.992 87.8361 656.002 87.9196C660.382 88.0086 661.337 90.8434 661.337 90.8434L661.361 93.5819C661.361 93.5819 653.583 90.8415 651.554 95.5341C650.704 94.2829 650.065 91.706 650.492 90.4584Z" fill="#98CEF0"/>
<path d="M646.573 94.7446C645.81 97.5522 645.392 103.783 646.874 104.56C648.358 105.337 650.014 104.764 650.631 105.741C651.251 106.718 651.447 108.944 651.447 108.944C651.447 108.944 656.661 108.684 658.072 107.925C658.026 104.685 657.736 103.899 658.141 102.904C658.547 101.907 661.133 97.4741 659.995 93.9928C658.858 90.5115 648.027 89.3874 646.573 94.7446Z" fill="#F59386"/>
<path d="M660.904 95.0746C660.833 92.8972 658.779 91.3518 657.973 91.0086C656.438 90.3566 651.304 88.7477 650.46 89.2888C649.959 89.6103 649.668 90.4075 649.55 90.8488C649.111 90.8342 647.841 91.0812 647.527 91.1847C646.568 91.508 645.292 93.7889 645.824 95.1218C646.014 95.5994 648.704 97.3519 648.704 97.3519C648.704 97.3519 648.915 100.007 649.29 100.116C649.902 99.2187 650.09 97.6551 651.23 98.4524C652.372 99.2514 651.915 101.053 651.74 101.767C651.566 102.478 651.335 102.762 651.166 102.751L651.402 103.702L657.935 104.126C657.935 104.126 658.312 102.871 659.084 101.472C659.858 100.076 660.976 97.252 660.904 95.0746Z" fill="#2B2950"/>
<path d="M653.533 107.635C653.533 107.635 645.24 109.438 642.338 112.829C640.193 115.331 640.843 115.891 640.062 120.347C639.365 124.329 639.009 136.635 639.147 150.315C640.06 151.991 648.133 155.588 654.302 155.063C660.467 154.537 664.293 152.704 666.229 150.402C666.501 141.945 668.884 115.642 666.718 111.625C665.532 109.429 660.113 106.674 653.533 107.635Z" fill="#FAAC18"/>
<path d="M647.479 109.71C647.479 109.71 649.476 107.157 653.875 106.29C658.275 105.426 661.538 108.319 661.538 108.319C661.269 108.747 653.517 109.597 647.479 109.71Z" fill="#98CEF0"/>
<path d="M654.823 75.1756C654.786 75.2155 654.741 75.2609 654.69 75.2918C654.634 75.339 654.566 75.368 654.49 75.4007C654.205 75.526 653.776 75.6041 653.268 75.6332C653.232 75.6386 653.192 75.6386 653.15 75.6386C652.4 75.6804 651.492 75.6441 650.564 75.5569C650.391 75.5424 650.217 75.526 650.037 75.5061C648.517 75.3426 647.008 75.0775 646.131 74.8686C646.024 75.2119 645.902 75.7367 645.77 76.4104C645.699 76.7409 645.628 77.1041 645.552 77.5018C644.989 80.4347 644.219 84.9529 643.24 88.6757C642.374 91.9445 641.353 94.5977 640.169 95.0317C637.465 96.0105 634.238 95.2242 633.886 93.301C633.757 92.6128 634.422 89.9923 635.415 86.8034C637.186 81.1066 640.006 73.6102 641.244 72.0847C642.653 70.3504 644.749 69.7185 646.658 69.7021C647.764 69.6967 649.856 70.5593 651.655 71.6253C651.881 71.7633 652.104 71.9013 652.318 72.0375C654.094 73.1907 655.393 74.4764 654.823 75.1756Z" fill="#F59386"/>
<path d="M643.24 88.6759C642.372 91.9447 641.353 94.5979 640.169 95.0319C637.465 96.0108 634.238 95.2244 633.886 93.3013C633.757 92.613 634.422 89.9925 635.415 86.8036C637.064 86.4368 640.576 86.0645 643.24 88.6759Z" fill="#F27465"/>
<path d="M646.129 74.8679C646.026 75.2094 645.904 75.7378 645.77 76.4097C644.239 75.805 642.55 74.8098 642.577 73.5296C643.954 74.3032 646.129 74.8679 646.129 74.8679Z" fill="#F27465"/>
<path d="M650.563 75.5587C650.388 75.5424 650.218 75.5261 650.04 75.5097L649.993 75.4353C648.547 73.5866 646.918 73.8063 645.897 73.0636C644.737 72.2228 643.898 71.8813 643.088 72.0521C643.493 71.6961 645.075 71.4437 645.756 71.8105C646.437 72.1701 646.9 72.457 648.513 73.138C649.517 73.5593 650.327 74.6181 650.563 75.5587Z" fill="#F27465"/>
<path d="M652.319 72.0385L647.907 73.4496L647.183 72.8049L651.656 71.6263C651.881 71.7643 652.102 71.9005 652.319 72.0385Z" fill="#F27465"/>
<path d="M654.688 75.2937C654.635 75.3354 654.566 75.3681 654.493 75.399C652.91 74.4075 650.28 72.3263 650.28 72.3263L650.925 72.2391C650.925 72.2391 653.803 74.215 654.688 75.2937Z" fill="#F27465"/>
<path d="M653.265 75.636C653.229 75.6378 653.189 75.6414 653.149 75.6378L648.92 72.8757L649.408 72.6105L653.265 75.636Z" fill="#F27465"/>
<path d="M633.291 93.5451C633.362 92.45 634.385 89.6752 638.534 89.539C639.873 89.4972 641.044 89.8223 641.863 90.1491C642.62 90.4506 643.18 91.1025 643.379 91.8925L648.647 112.767C648.647 112.767 651.477 118.951 647.563 121.811C643.652 124.671 640.664 124.341 638.905 117.418C636.551 108.169 633.061 97.108 633.291 93.5451Z" fill="#EAF0F8"/>
<path d="M632.937 95.1623C632.949 94.9716 632.524 92.6435 633.323 91.1617C634.121 89.6798 635.909 88.2125 639.432 88.8154C642.955 89.4201 643.42 91.1126 643.644 91.6375C643.865 92.1641 644.14 93.8421 644.14 93.8421C644.14 93.8421 640.182 91.7973 636.923 92.7997C633.663 93.804 632.937 95.1623 632.937 95.1623Z" fill="#98CEF0"/>
<g opacity="0.470001">
<g opacity="0.470001">
<path opacity="0.470001" d="M624.99 180.287C624.99 183.56 612.409 186.215 596.889 186.215C581.368 186.215 568.787 183.56 568.787 180.287C568.787 177.014 581.368 174.359 596.889 174.359C612.409 174.359 624.99 177.014 624.99 180.287Z" fill="#43A047"/>
</g>
</g>
<path d="M583.169 182.54C583.425 182.259 592.18 179.991 593.455 180.16C594.729 180.33 600.501 181.687 600.633 183.476C600.766 185.261 601.291 188.384 600.426 188.746C599.56 189.109 598.216 189.512 596.6 189.171C594.985 188.831 592.861 186.621 591.501 186.621C590.14 186.621 586.712 186.287 584.785 185.517C582.233 184.496 582.404 183.392 583.169 182.54Z" fill="#2B2950"/>
<path d="M601.923 117.379C601.874 118.265 601.81 119.162 601.754 120.052C601.414 125.326 598.129 151.006 598.129 151.006C598.129 151.006 600.675 172.998 600.633 183.474C600.063 184.54 599.179 185.366 597.833 185.218C597.379 185.167 596.961 185.065 596.575 184.912C596.15 184.76 595.767 184.555 595.422 184.32C593.665 183.144 592.861 181.266 592.861 181.266C592.861 181.266 585.833 153.06 585.515 148.465C584.954 140.208 587.081 129.212 587.36 120.041C587.366 119.934 587.366 119.827 587.377 119.725C587.949 105.909 598.231 106.341 600.383 107.694C602.188 108.82 602.173 112.977 601.923 117.379Z" fill="#2E67B1"/>
<path d="M601.923 117.379C599.331 118.817 595.895 120.058 591.713 120.063C590.224 120.063 588.769 119.94 587.377 119.725C587.949 105.909 598.231 106.341 600.383 107.694C602.188 108.82 602.173 112.977 601.923 117.379Z" fill="#265B96"/>
<path d="M596.574 184.913C596.151 184.759 595.768 184.556 595.421 184.321C593.814 175.539 589.829 153.713 589.294 149.538C588.611 144.246 594.324 114.431 594.569 113.165L595.573 113.361C595.512 113.666 589.642 144.279 590.305 149.409C590.861 153.689 595.069 176.721 596.574 184.913Z" fill="#265B96"/>
<path d="M590.305 120.025C585.389 129.899 576.54 142.759 576.54 142.759C576.54 142.759 583.644 163.347 584.744 166.496C585.093 169.164 583.756 170.533 582.078 170.724C581.681 170.779 581.258 170.759 580.833 170.668C579.997 170.499 579.155 170.076 578.452 169.407C573.478 163.669 563.593 146.762 562.894 141.864C562.426 138.572 569.343 124.54 574.667 115.135C577.253 110.56 579.462 107.077 580.262 106.449C582.71 104.525 593.723 103.577 593.497 111.009C593.437 113.037 592.146 116.324 590.305 120.025Z" fill="#4078BB"/>
<path d="M593.497 111.009C593.437 113.037 592.146 116.324 590.305 120.025C583.242 119.664 577.222 116.629 574.667 115.133C577.253 110.559 579.461 107.075 580.262 106.449C582.712 104.526 593.722 103.578 593.497 111.009Z" fill="#3067B1"/>
<path d="M567.608 143.58C568.313 148.623 580.7 168.524 582.078 170.724C581.681 170.78 581.257 170.76 580.832 170.667C578.305 166.603 567.292 148.721 566.597 143.721C565.818 138.117 584.495 108.549 585.291 107.291L586.148 107.841C580.787 116.307 567.002 139.232 567.608 143.58Z" fill="#2E67B1"/>
<path d="M583.935 164.561C581.803 163.497 577.688 164.944 577.176 168.642C576.667 172.339 577.815 183.687 579.598 183.435C581.385 183.179 585.209 178.715 585.082 175.784C584.955 172.85 583.679 172.722 584.062 171.448C584.443 170.173 586.74 165.963 583.935 164.561Z" fill="#2B2950"/>
<path d="M608.548 33.6311C608.456 33.7074 608.339 33.7837 608.203 33.8509C608.134 33.8872 608.063 33.9217 607.998 33.9635C607.778 34.0942 607.569 34.2377 607.341 34.3866C607.177 34.4883 606.997 34.5954 606.794 34.6917C606.416 34.8806 605.951 35.044 605.316 35.1421C605.203 35.1566 605.091 35.1711 604.967 35.1856C603.977 35.2946 602.608 35.2637 600.612 34.9768C600.522 35.222 600.378 35.6959 600.189 36.3442C599.439 38.9702 598.021 44.4291 596.664 48.733C595.675 51.8801 594.721 54.4153 594.073 54.7875C591.585 56.2349 587.448 54.4861 587.189 52.5539C587.107 51.9564 587.702 49.9461 588.627 47.3928C590.688 41.6742 594.394 33.228 595.905 31.7334C598.088 29.576 600.965 29.6977 602.846 30.1426C604.005 30.4132 605.514 30.8817 606.723 31.412C607.056 31.5555 607.361 31.708 607.631 31.8605C608.686 32.4489 609.238 33.09 608.548 33.6311Z" fill="#F59386"/>
<path d="M596.664 48.7328C595.675 51.8799 594.721 54.4151 594.073 54.7874C591.585 56.2347 587.448 54.4859 587.189 52.5537C587.107 51.9562 587.702 49.9459 588.627 47.3926C589.794 47.0748 591.249 46.9386 592.983 47.2437C594.462 47.5088 595.68 48.07 596.664 48.7328Z" fill="#F27465"/>
<path d="M607.63 31.8604C607.147 32.1346 606.437 32.3906 605.614 32.2363C604.604 32.0438 604.016 31.815 604.016 31.815C604.016 31.815 603.313 32.2454 601.926 31.9366C600.629 31.6425 599.717 31.0359 599.603 30.9578C599.779 31.0159 602.151 31.7823 603.682 30.9615C605.543 31.5063 606.086 31.7042 606.724 31.4136C607.052 31.5571 607.359 31.7096 607.63 31.8604Z" fill="#F27465"/>
<path d="M600.61 34.979C600.518 35.2242 600.376 35.6945 600.191 36.341C599.078 36.0668 597.418 35.0226 596.542 33.7351C598.682 34.8555 600.61 34.979 600.61 34.979Z" fill="#F27465"/>
<path d="M605.313 35.1395C605.203 35.1577 605.092 35.1722 604.968 35.1886C603.986 34.4876 602.698 34.2497 601.407 34.0699C600.376 33.3072 598.467 32.944 598.467 32.944C599.495 32.8623 600.503 32.7188 602.023 33.6649C603.979 33.8829 605.054 34.5566 605.313 35.1395Z" fill="#F27465"/>
<path d="M600.33 33.2313L605.255 31.5824L605.764 31.7767L601.356 33.4982L600.33 33.2313Z" fill="#F27465"/>
<path d="M608.548 33.6321C608.456 33.7084 608.34 33.7828 608.203 33.85C608.132 33.8863 608.063 33.9226 607.994 33.9644C606.745 33.3924 605.534 32.686 604.161 32.3972C603.919 32.3464 603.99 31.9668 604.224 31.9723C605.027 31.9886 605.881 32.3663 606.622 32.6587C607.31 32.9275 607.935 33.2453 608.548 33.6321Z" fill="#F27465"/>
<path d="M607.339 34.3866C607.174 34.4883 606.999 34.5955 606.792 34.6935C606.482 34.521 606.168 34.3322 605.857 34.1778C604.815 33.6675 603.798 33.1972 602.681 32.8539C602.439 32.7813 602.525 32.4344 602.765 32.4817C603.812 32.6669 604.804 33.0428 605.763 33.4932C606.328 33.7583 606.829 34.0725 607.339 34.3866Z" fill="#F27465"/>
<path d="M587.189 52.5537C587.189 52.5537 590.358 48.7582 594.17 50.7068C595.383 51.3279 596.278 52.4356 596.756 53.7105C600.842 64.6464 602.389 70.9625 602.985 74.3983C603.606 77.9777 603.993 80.5582 601.263 81.2755C598.534 81.9929 593.304 79.356 591.228 72.4498C589.152 65.5435 586.828 54.8727 587.189 52.5537Z" fill="#EAF0F8"/>
<path d="M586.453 52.036C586.453 52.036 587.953 49.4137 591.963 49.4954C596.345 49.5862 597.3 52.421 597.3 52.421L597.322 55.1595C597.322 55.1595 589.544 52.4173 587.515 57.1117C586.666 55.8605 586.028 53.2836 586.453 52.036Z" fill="#98CEF0"/>
<path d="M582.534 56.3213C581.771 59.1307 581.353 65.3596 582.837 66.1368C584.319 66.9141 585.975 66.3402 586.592 67.3172C587.212 68.2942 587.41 70.5206 587.41 70.5206C587.41 70.5206 592.622 70.2628 594.033 69.5019C593.987 66.2621 593.697 65.4776 594.102 64.4806C594.508 63.4836 597.094 59.0508 595.958 55.5713C594.819 52.09 583.988 50.9641 582.534 56.3213Z" fill="#F59386"/>
<path d="M596.867 56.6523C596.794 54.4749 594.74 52.9295 593.934 52.5862C592.401 51.9343 587.265 50.3235 586.421 50.8647C585.92 51.1879 585.631 51.9851 585.511 52.4246C585.074 52.4119 583.802 52.6571 583.488 52.7624C582.529 53.0856 581.253 55.3665 581.785 56.6995C581.975 57.1771 584.665 58.9295 584.665 58.9295C584.665 58.9295 584.876 61.5845 585.252 61.6935C585.864 60.7964 586.051 59.2328 587.193 60.03C588.333 60.8272 587.876 62.6305 587.701 63.3424C587.527 64.0561 587.296 64.3376 587.127 64.3285L587.365 65.2801L593.896 65.7014C593.896 65.7014 594.275 64.4483 595.047 63.05C595.819 61.6517 596.937 58.8296 596.867 56.6523Z" fill="#2B2950"/>
<path d="M589.494 69.2125C589.494 69.2125 581.201 71.0158 578.299 74.4045C576.154 76.9069 576.804 77.4681 576.023 81.9245C575.326 85.9052 574.97 98.2123 575.108 111.892C576.021 113.57 584.095 117.164 590.262 116.639C596.43 116.113 600.254 114.28 602.19 111.979C602.462 103.522 604.845 77.2193 602.678 73.2023C601.493 71.0068 596.074 68.2501 589.494 69.2125Z" fill="#FAAC18"/>
<path d="M583.44 71.2874C583.44 71.2874 585.438 68.7323 589.836 67.8679C594.238 67.0016 597.499 69.8963 597.499 69.8963C597.231 70.3249 589.478 71.1748 583.44 71.2874Z" fill="#98CEF0"/>
<path d="M590.784 36.7522C590.747 36.7922 590.702 36.8394 590.651 36.8685C590.595 36.9157 590.528 36.9466 590.451 36.9774C590.166 37.1045 589.74 37.1808 589.229 37.2117C589.193 37.2171 589.153 37.2171 589.111 37.2171C588.361 37.2571 587.453 37.2208 586.525 37.1336C586.353 37.1191 586.178 37.1045 586 37.0846C584.48 36.9211 582.97 36.656 582.094 36.4472C581.985 36.7886 581.864 37.3134 581.731 37.9871C581.66 38.3176 581.589 38.6808 581.513 39.0785C580.95 42.0114 580.18 46.5296 579.201 50.2542C578.335 53.523 577.315 56.1744 576.132 56.6084C573.426 57.5872 570.199 56.8027 569.847 54.8777C569.72 54.1913 570.383 51.569 571.376 48.3801C573.147 42.6851 575.969 35.1869 577.206 33.6614C578.615 31.9271 580.71 31.2952 582.619 31.2788C583.725 31.2752 585.817 32.136 587.617 33.202C587.842 33.34 588.065 33.478 588.28 33.616C590.056 34.7692 591.354 36.0531 590.784 36.7522Z" fill="#F59386"/>
<path d="M579.201 50.2535C578.333 53.5223 577.315 56.1736 576.132 56.6077C573.426 57.5883 570.199 56.802 569.847 54.8788C569.72 54.1906 570.383 51.5701 571.376 48.3812C573.025 48.0144 576.539 47.6421 579.201 50.2535Z" fill="#F27465"/>
<path d="M582.091 36.4456C581.987 36.7852 581.867 37.3154 581.731 37.9855C580.202 37.3808 578.511 36.3875 578.538 35.1072C579.915 35.8808 582.091 36.4456 582.091 36.4456Z" fill="#F27465"/>
<path d="M586.524 37.1355C586.35 37.1192 586.179 37.1028 586.001 37.0865L585.956 37.012C584.508 35.1651 582.879 35.3831 581.859 34.6421C580.7 33.7995 579.859 33.4581 579.049 33.6288C579.454 33.2729 581.036 33.0204 581.717 33.3873C582.4 33.7468 582.861 34.0338 584.474 34.7148C585.48 35.1379 586.288 36.1948 586.524 37.1355Z" fill="#F27465"/>
<path d="M588.28 33.6152L583.869 35.0262L583.144 34.3816L587.617 33.2048C587.842 33.3428 588.064 33.479 588.28 33.6152Z" fill="#F27465"/>
<path d="M590.651 36.8713C590.596 36.9131 590.529 36.9458 590.454 36.9766C588.873 35.9851 586.241 33.9021 586.241 33.9021L586.886 33.8168C586.886 33.8168 589.764 35.7908 590.651 36.8713Z" fill="#F27465"/>
<path d="M589.227 37.2136C589.19 37.2154 589.15 37.2191 589.11 37.2154L584.883 34.4533L585.369 34.1882L589.227 37.2136Z" fill="#F27465"/>
<path d="M569.252 55.1226C569.323 54.0275 570.346 51.2527 574.495 51.1165C575.834 51.0729 577.005 51.3998 577.824 51.7267C578.581 52.0281 579.141 52.6801 579.34 53.47L584.609 74.3449C584.609 74.3449 587.438 80.5284 583.524 83.3886C579.613 86.2488 576.627 85.9165 574.866 78.9957C572.512 69.7468 569.022 58.6856 569.252 55.1226Z" fill="#EAF0F8"/>
<path d="M568.9 56.739C568.912 56.5483 568.486 54.2202 569.285 52.7384C570.084 51.2583 571.871 49.7892 575.394 50.3939C578.918 50.9986 579.382 52.6893 579.605 53.2142C579.826 53.7408 580.101 55.4188 580.101 55.4188C580.101 55.4188 576.144 53.374 572.884 54.3782C569.624 55.3806 568.9 56.739 568.9 56.739Z" fill="#98CEF0"/>
<g opacity="0.470001">
<g opacity="0.470001">
<path opacity="0.470001" d="M646.867 256.564C646.867 260.917 630.639 264.447 610.622 264.447C590.604 264.447 574.376 260.917 574.376 256.564C574.376 252.213 590.604 248.681 610.622 248.681C630.639 248.681 646.867 252.213 646.867 256.564Z" fill="#43A047"/>
</g>
</g>
<path d="M608.821 191.431C607.301 202.358 603.005 217.361 603.005 217.361C603.005 217.361 616.291 234.621 618.337 237.254C619.516 239.671 618.686 241.4 617.153 242.112C616.796 242.291 616.387 242.406 615.957 242.455C615.11 242.56 614.177 242.428 613.298 242.017C606.757 238.16 592.005 225.277 589.786 220.857C588.292 217.882 590.385 202.379 592.439 191.77C593.436 186.609 594.421 182.605 594.982 181.755C596.689 179.153 606.828 174.749 608.979 181.866C609.566 183.811 609.388 187.334 608.821 191.431Z" fill="#4078BB"/>
<path d="M608.979 181.867C609.566 183.81 609.39 187.334 608.821 191.431C602.009 193.335 595.337 192.374 592.441 191.769C593.436 186.608 594.42 182.604 594.982 181.754C596.689 179.153 606.827 174.75 608.979 181.867Z" fill="#3067B1"/>
<path d="M594.799 220.982C597.071 225.541 615.149 240.465 617.154 242.112C616.794 242.29 616.387 242.407 615.955 242.454C612.263 239.407 596.135 225.956 593.887 221.439C591.363 216.372 599.664 182.401 600.016 180.953L601.004 181.202C598.616 190.934 592.841 217.055 594.799 220.982Z" fill="#2E67B1"/>
<path d="M616.953 235.68C614.594 235.348 611.152 238.03 611.844 241.698C612.538 245.366 617.236 255.759 618.848 254.949C620.459 254.14 622.666 248.692 621.611 245.951C620.557 243.211 619.308 243.498 619.264 242.167C619.223 240.835 620.06 236.116 616.953 235.68Z" fill="#2B2950"/>
<path d="M580.492 254.363C580.748 254.08 589.503 251.813 590.778 251.982C592.053 252.153 597.824 253.508 597.957 255.296C598.088 257.083 598.614 260.205 597.75 260.568C596.884 260.93 595.538 261.333 593.924 260.993C592.309 260.654 590.184 258.443 588.824 258.443C587.464 258.443 584.034 258.109 582.109 257.338C579.557 256.317 579.728 255.213 580.492 254.363Z" fill="#2B2950"/>
<path d="M599.245 189.202C599.194 190.088 599.132 190.983 599.078 191.869C599.069 192.036 599.058 192.223 599.038 192.43C598.526 198.754 595.455 222.825 595.455 222.825C595.455 222.825 597.997 244.824 597.954 255.291C597.382 256.363 596.506 257.187 595.151 257.04C594.705 256.989 594.289 256.886 593.893 256.739C593.475 256.582 593.089 256.374 592.745 256.145C590.986 254.968 590.185 253.083 590.185 253.083C590.185 253.083 583.153 224.886 582.841 220.282C582.278 212.034 584.403 201.035 584.684 191.858C584.693 191.753 584.693 191.651 584.704 191.546C585.267 177.735 595.558 178.162 597.703 179.515C597.767 179.548 597.819 179.588 597.881 179.64C597.932 179.682 597.986 179.724 598.037 179.776C598.079 179.807 598.11 179.849 598.152 179.891C599.506 181.389 599.475 185.192 599.245 189.202Z" fill="#2E67B1"/>
<path d="M599.245 189.201C599.194 190.088 599.132 190.983 599.078 191.869C599.069 192.036 599.058 192.223 599.038 192.43C596.047 192.576 592.037 191.88 589.039 191.88C587.55 191.88 586.09 191.764 584.704 191.546C585.267 177.735 595.558 178.162 597.703 179.515C597.767 179.548 597.819 179.588 597.881 179.64C597.932 179.682 597.986 179.724 598.037 179.776C598.079 179.807 598.11 179.849 598.152 179.891C599.506 181.389 599.475 185.192 599.245 189.201Z" fill="#265B96"/>
<path d="M593.896 256.734C593.475 256.581 593.092 256.378 592.743 256.142C591.136 247.36 587.153 225.535 586.618 221.358C585.935 216.068 591.648 186.251 591.891 184.987L592.897 185.182C592.836 185.489 586.966 216.099 587.629 221.229C588.183 225.51 592.392 248.542 593.896 256.734Z" fill="#265B96"/>
<path d="M615.942 104.758C615.849 104.835 615.733 104.911 615.595 104.978C615.528 105.015 615.455 105.049 615.39 105.091C615.17 105.222 614.961 105.365 614.732 105.514C614.569 105.616 614.391 105.723 614.186 105.819C613.808 106.008 613.345 106.171 612.708 106.269C612.595 106.284 612.484 106.298 612.361 106.313C611.371 106.422 610 106.391 608.006 106.104C607.913 106.349 607.77 106.823 607.581 107.472C606.831 110.097 605.414 115.556 604.058 119.86C603.068 123.007 602.115 125.543 601.465 125.915C598.977 127.364 594.842 125.613 594.58 123.679C594.498 123.084 595.096 121.075 596.018 118.52C598.08 112.802 601.788 104.355 603.297 102.861C605.48 100.703 608.356 100.825 610.238 101.27C611.396 101.541 612.905 102.009 614.115 102.539C614.447 102.683 614.752 102.835 615.023 102.988C616.078 103.576 616.63 104.217 615.942 104.758Z" fill="#F59386"/>
<path d="M604.058 119.86C603.068 123.007 602.115 125.542 601.465 125.915C598.977 127.364 594.842 125.613 594.58 123.681C594.498 123.083 595.096 121.075 596.018 118.52C597.188 118.202 598.641 118.066 600.375 118.371C601.853 118.636 603.074 119.197 604.058 119.86Z" fill="#F27465"/>
<path d="M615.023 102.988C614.538 103.262 613.828 103.518 613.006 103.364C611.996 103.171 611.408 102.942 611.408 102.942C611.408 102.942 610.705 103.373 609.319 103.064C608.021 102.77 607.109 102.163 606.995 102.085C607.171 102.143 609.542 102.91 611.073 102.089C612.935 102.634 613.478 102.831 614.117 102.541C614.446 102.684 614.753 102.837 615.023 102.988Z" fill="#F27465"/>
<path d="M608.004 106.106C607.909 106.351 607.768 106.822 607.584 107.468C606.471 107.194 604.811 106.15 603.934 104.862C606.075 105.983 608.004 106.106 608.004 106.106Z" fill="#F27465"/>
<path d="M612.705 106.267C612.596 106.286 612.484 106.298 612.36 106.317C611.378 105.614 610.09 105.378 608.799 105.196C607.768 104.435 605.859 104.072 605.859 104.072C606.889 103.99 607.895 103.845 609.417 104.793C611.371 105.011 612.446 105.683 612.705 106.267Z" fill="#F27465"/>
<path d="M607.722 104.359L612.647 102.71L613.155 102.904L608.748 104.625L607.722 104.359Z" fill="#F27465"/>
<path d="M615.94 104.759C615.849 104.836 615.733 104.91 615.595 104.977C615.524 105.014 615.457 105.05 615.388 105.092C614.137 104.52 612.926 103.813 611.554 103.524C611.311 103.474 611.382 103.094 611.616 103.1C612.419 103.116 613.272 103.494 614.015 103.786C614.703 104.055 615.326 104.373 615.94 104.759Z" fill="#F27465"/>
<path d="M614.733 105.514C614.567 105.616 614.393 105.721 614.186 105.821C613.874 105.648 613.559 105.459 613.249 105.305C612.206 104.795 611.191 104.324 610.073 103.981C609.833 103.909 609.917 103.562 610.158 103.609C611.204 103.794 612.197 104.17 613.154 104.62C613.719 104.886 614.22 105.2 614.733 105.514Z" fill="#F27465"/>
<path d="M594.582 123.68C594.582 123.68 597.75 119.885 601.563 121.835C602.774 122.454 603.67 123.564 604.147 124.839C608.233 135.773 609.781 142.089 610.376 145.525C610.997 149.104 611.384 151.685 608.655 152.402C605.925 153.121 600.695 150.484 598.621 143.576C596.544 136.67 594.219 125.999 594.582 123.68Z" fill="#EAF0F8"/>
<path d="M593.847 123.162C593.847 123.162 595.347 120.542 599.355 120.624C603.737 120.713 604.692 123.549 604.692 123.549L604.715 126.288C604.715 126.288 596.937 123.546 594.909 128.24C594.057 126.987 593.42 124.41 593.847 123.162Z" fill="#98CEF0"/>
<path d="M589.926 127.449C589.165 130.258 588.747 136.489 590.229 137.264C591.711 138.041 593.369 137.468 593.984 138.445C594.604 139.422 594.801 141.648 594.801 141.648C594.801 141.648 600.015 141.39 601.426 140.629C601.381 137.389 601.088 136.603 601.495 135.608C601.9 134.611 604.488 130.18 603.349 126.699C602.211 123.217 591.38 122.091 589.926 127.449Z" fill="#F59386"/>
<path d="M604.258 127.779C604.186 125.603 602.132 124.056 601.327 123.714C599.793 123.061 594.659 121.452 593.814 121.993C593.313 122.314 593.023 123.111 592.903 123.553C592.465 123.538 591.194 123.785 590.88 123.891C589.921 124.212 588.646 126.493 589.176 127.826C589.369 128.303 592.057 130.058 592.057 130.058C592.057 130.058 592.269 132.713 592.645 132.82C593.257 131.923 593.444 130.359 594.584 131.156C595.725 131.955 595.269 133.757 595.095 134.471C594.92 135.182 594.688 135.466 594.519 135.455L594.757 136.408L601.287 136.83C601.287 136.83 601.667 135.576 602.439 134.178C603.21 132.78 604.331 129.956 604.258 127.779Z" fill="#2B2950"/>
<path d="M596.886 140.34C596.886 140.34 588.594 142.141 585.69 145.532C583.548 148.034 584.196 148.595 583.415 153.052C582.718 157.033 582.364 169.34 582.5 183.019C583.415 184.697 591.487 188.291 597.654 187.767C603.821 187.24 607.646 185.408 609.584 183.107C609.856 174.651 612.239 148.345 610.07 144.33C608.884 142.134 603.465 139.379 596.886 140.34Z" fill="#FAAC18"/>
<path d="M590.833 142.415C590.833 142.415 592.829 139.861 597.229 138.995C601.63 138.131 604.893 141.022 604.893 141.022C604.622 141.452 596.872 142.302 590.833 142.415Z" fill="#98CEF0"/>
<path d="M598.177 107.88C598.139 107.92 598.096 107.967 598.045 107.996C597.989 108.043 597.921 108.074 597.845 108.105C597.56 108.232 597.131 108.308 596.621 108.339C596.585 108.344 596.545 108.344 596.503 108.344C595.753 108.384 594.847 108.348 593.917 108.261C593.745 108.246 593.572 108.232 593.392 108.212C591.872 108.048 590.363 107.783 589.486 107.574C589.377 107.916 589.255 108.441 589.125 109.114C589.052 109.445 588.981 109.808 588.905 110.206C588.344 113.139 587.572 117.657 586.593 121.38C585.727 124.65 584.706 127.302 583.524 127.736C580.82 128.715 577.591 127.93 577.241 126.007C577.112 125.319 577.776 122.696 578.768 119.509C580.539 113.811 583.361 106.314 584.599 104.789C586.007 103.054 588.102 102.422 590.011 102.406C591.117 102.402 593.209 103.263 595.01 104.329C595.234 104.467 595.459 104.605 595.671 104.743C597.447 105.895 598.748 107.18 598.177 107.88Z" fill="#F59386"/>
<path d="M586.593 121.38C585.725 124.651 584.706 127.302 583.524 127.736C580.82 128.715 577.591 127.928 577.241 126.007C577.112 125.319 577.776 122.697 578.768 119.509C580.417 119.143 583.931 118.77 586.593 121.38Z" fill="#F27465"/>
<path d="M589.484 107.573C589.379 107.912 589.259 108.443 589.124 109.113C587.593 108.508 585.905 107.515 585.93 106.234C587.306 107.008 589.484 107.573 589.484 107.573Z" fill="#F27465"/>
<path d="M593.916 108.263C593.743 108.246 593.571 108.23 593.393 108.214L593.347 108.139C591.902 106.292 590.273 106.51 589.252 105.768C588.092 104.927 587.251 104.585 586.443 104.756C586.848 104.4 588.428 104.148 589.109 104.515C589.792 104.874 590.253 105.161 591.865 105.842C592.872 106.265 593.68 107.322 593.916 108.263Z" fill="#F27465"/>
<path d="M595.671 104.742L591.26 106.153L590.537 105.509L595.008 104.332C595.235 104.47 595.455 104.606 595.671 104.742Z" fill="#F27465"/>
<path d="M598.043 107.998C597.99 108.039 597.921 108.072 597.846 108.103C596.265 107.111 593.633 105.03 593.633 105.03L594.28 104.943C594.28 104.943 597.156 106.919 598.043 107.998Z" fill="#F27465"/>
<path d="M596.62 108.341C596.582 108.343 596.542 108.346 596.502 108.343L592.274 105.58L592.763 105.315L596.62 108.341Z" fill="#F27465"/>
<path d="M576.644 126.25C576.715 125.155 577.739 122.378 581.887 122.244C583.225 122.202 584.397 122.527 585.218 122.854C585.973 123.157 586.532 123.807 586.734 124.597L592 145.472C592 145.472 594.831 151.656 590.916 154.516C587.005 157.378 584.019 157.044 582.258 150.123C579.904 140.874 576.415 129.813 576.644 126.25Z" fill="#EAF0F8"/>
<path d="M576.291 127.867C576.304 127.677 575.877 125.348 576.678 123.867C577.475 122.385 579.262 120.917 582.785 121.522C586.31 122.125 586.773 123.818 586.997 124.342C587.218 124.869 587.492 126.545 587.492 126.545C587.492 126.545 583.535 124.5 580.276 125.505C577.018 126.509 576.291 127.867 576.291 127.867Z" fill="#98CEF0"/>
<g opacity="0.470001">
<g opacity="0.470001">
<path opacity="0.470001" d="M573.61 221.937C573.61 226.29 560.24 229.821 543.749 229.821C527.258 229.821 513.889 226.29 513.889 221.937C513.889 217.584 527.258 214.054 543.749 214.054C560.24 214.054 573.61 217.584 573.61 221.937Z" fill="#43A047"/>
</g>
</g>
<path d="M528.91 220.389C529.165 220.108 537.921 217.839 539.196 218.008C540.471 218.179 546.241 219.536 546.373 221.323C546.506 223.11 547.032 226.233 546.166 226.594C545.302 226.958 543.956 227.361 542.342 227.019C540.725 226.68 538.601 224.47 537.24 224.47C535.88 224.47 532.452 224.136 530.527 223.366C527.975 222.345 528.144 221.241 528.91 220.389Z" fill="#2B2950"/>
<path d="M547.664 155.228C547.614 156.114 547.552 157.011 547.496 157.901C547.154 163.175 543.869 188.855 543.869 188.855C543.869 188.855 546.415 210.846 546.373 221.323C545.803 222.387 544.919 223.215 543.573 223.066C543.119 223.015 542.701 222.914 542.314 222.761C541.89 222.609 541.506 222.403 541.161 222.169C539.407 220.992 538.601 219.115 538.601 219.115C538.601 219.115 531.573 190.909 531.257 186.314C530.694 178.057 532.822 167.061 533.102 157.89C533.107 157.783 533.107 157.676 533.118 157.574C533.69 143.758 543.972 144.19 546.123 145.541C547.93 146.669 547.915 150.826 547.664 155.228Z" fill="#903941"/>
<path d="M547.664 155.228C545.073 156.666 541.635 157.906 537.453 157.912C535.964 157.912 534.511 157.788 533.118 157.574C533.69 143.758 543.972 144.19 546.123 145.541C547.929 146.669 547.915 150.826 547.664 155.228Z" fill="#80333E"/>
<path d="M542.314 222.76C541.891 222.608 541.508 222.404 541.161 222.17C539.554 213.386 535.571 191.561 535.035 187.386C534.351 182.095 540.066 152.278 540.309 151.014L541.313 151.208C541.253 151.515 535.382 182.127 536.045 187.258C536.601 191.538 540.808 214.57 542.314 222.76Z" fill="#80333E"/>
<path d="M536.045 157.874C531.129 167.747 522.28 180.608 522.28 180.608C522.28 180.608 529.384 201.196 530.486 204.343C530.833 207.011 529.498 208.382 527.818 208.571C527.421 208.627 526.998 208.607 526.574 208.516C525.737 208.348 524.895 207.924 524.194 207.256C519.22 201.518 509.335 184.611 508.636 179.713C508.166 176.419 515.083 162.388 520.409 152.983C522.993 148.409 525.202 144.924 526.004 144.297C528.45 142.374 539.463 141.424 539.239 148.857C539.178 150.886 537.888 154.171 536.045 157.874Z" fill="#B14D53"/>
<path d="M539.239 148.858C539.177 150.886 537.888 154.171 536.044 157.874C528.982 157.513 522.964 154.478 520.409 152.982C522.995 148.409 525.203 144.924 526.004 144.298C528.452 142.374 539.462 141.425 539.239 148.858Z" fill="#903941"/>
<path d="M513.348 181.428C514.053 186.472 526.442 206.373 527.818 208.57C527.421 208.629 526.997 208.609 526.574 208.516C524.045 204.452 513.032 186.57 512.339 181.57C511.56 175.964 530.237 146.398 531.031 145.139L531.888 145.69C526.529 154.156 512.742 177.081 513.348 181.428Z" fill="#903941"/>
<path d="M529.675 202.41C527.545 201.346 523.428 202.793 522.917 206.491C522.407 210.188 523.555 221.536 525.34 221.282C527.125 221.028 530.95 216.564 530.823 213.631C530.695 210.698 529.419 210.571 529.802 209.296C530.185 208.021 532.481 203.812 529.675 202.41Z" fill="#2B2950"/>
<path d="M554.29 71.4799C554.197 71.5561 554.081 71.6324 553.943 71.6996C553.876 71.7341 553.803 71.7704 553.738 71.8122C553.518 71.943 553.309 72.0864 553.081 72.2353C552.917 72.337 552.739 72.4442 552.534 72.5404C552.158 72.7293 551.693 72.8927 551.056 72.989C550.943 73.0053 550.832 73.0198 550.709 73.0344C549.719 73.1433 548.348 73.1106 546.354 72.8255C546.262 73.0707 546.118 73.5447 545.929 74.193C545.179 76.8189 543.763 82.2778 542.406 86.5817C541.416 89.7289 540.463 92.264 539.815 92.6363C537.325 94.0836 533.19 92.3348 532.928 90.4008C532.847 89.8051 533.444 87.7948 534.367 85.2415C536.428 79.5229 540.136 71.0767 541.645 69.5822C543.828 67.4247 546.705 67.5464 548.586 67.9913C549.745 68.2619 551.256 68.7304 552.463 69.2607C552.796 69.4042 553.102 69.5567 553.371 69.7093C554.426 70.2958 554.978 70.9387 554.29 71.4799Z" fill="#F59386"/>
<path d="M542.406 86.5815C541.416 89.7287 540.463 92.2638 539.815 92.6361C537.325 94.0834 533.19 92.3346 532.928 90.4024C532.847 89.8049 533.444 87.7946 534.367 85.2413C535.536 84.9235 536.989 84.7873 538.723 85.0924C540.201 85.3576 541.422 85.9187 542.406 86.5815Z" fill="#F27465"/>
<path d="M553.371 69.7091C552.888 69.9833 552.176 70.2394 551.354 70.085C550.344 69.8907 549.756 69.6637 549.756 69.6637C549.756 69.6637 549.053 70.0941 547.667 69.7854C546.369 69.4912 545.457 68.8846 545.345 68.8065C545.519 68.8647 547.891 69.631 549.422 68.8084C551.285 69.355 551.826 69.5529 552.465 69.2605C552.794 69.4058 553.101 69.5584 553.371 69.7091Z" fill="#F27465"/>
<path d="M546.352 72.8277C546.258 73.0711 546.116 73.5432 545.933 74.1897C544.82 73.9155 543.16 72.8713 542.283 71.5838C544.424 72.7024 546.352 72.8277 546.352 72.8277Z" fill="#F27465"/>
<path d="M551.054 72.9882C550.945 73.0064 550.832 73.0209 550.709 73.0373C549.726 72.3363 548.439 72.0984 547.147 71.9186C546.118 71.1559 544.207 70.7927 544.207 70.7927C545.237 70.711 546.243 70.5675 547.765 71.5136C549.721 71.7316 550.794 72.4053 551.054 72.9882Z" fill="#F27465"/>
<path d="M546.072 71.08L550.995 69.431L551.505 69.6254L547.096 71.3469L546.072 71.08Z" fill="#F27465"/>
<path d="M554.29 71.4799C554.197 71.5562 554.081 71.6306 553.943 71.6978C553.874 71.7341 553.805 71.7705 553.736 71.8122C552.485 71.2402 551.274 70.5338 549.903 70.2468C549.659 70.1942 549.73 69.8146 549.964 69.8201C550.767 69.8364 551.621 70.2141 552.363 70.5065C553.052 70.7771 553.674 71.0931 554.29 71.4799Z" fill="#F27465"/>
<path d="M553.08 72.2354C552.915 72.3371 552.741 72.4424 552.534 72.5423C552.223 72.3697 551.907 72.1809 551.597 72.0265C550.554 71.5162 549.539 71.0459 548.42 70.7027C548.181 70.63 548.264 70.2832 548.506 70.3304C549.554 70.5156 550.545 70.8915 551.502 71.3401C552.067 71.607 552.568 71.9212 553.08 72.2354Z" fill="#F27465"/>
<path d="M532.931 90.4024C532.931 90.4024 536.1 86.607 539.911 88.5556C541.123 89.1766 542.018 90.2844 542.495 91.5592C546.581 102.495 548.129 108.811 548.724 112.247C549.345 115.826 549.732 118.405 547.003 119.124C544.273 119.842 539.043 117.203 536.969 110.299C534.892 103.39 532.567 92.7215 532.931 90.4024Z" fill="#EAF0F8"/>
<path d="M532.195 89.8837C532.195 89.8837 533.695 87.2614 537.703 87.345C542.085 87.434 543.04 90.2687 543.04 90.2687L543.064 93.0091C543.064 93.0091 535.286 90.2669 533.257 94.9613C532.405 93.7082 531.768 91.1313 532.195 89.8837Z" fill="#98CEF0"/>
<path d="M528.274 94.17C527.513 96.9794 527.095 103.208 528.577 103.986C530.059 104.763 531.717 104.189 532.334 105.166C532.952 106.143 533.15 108.369 533.15 108.369C533.15 108.369 538.363 108.111 539.774 107.351C539.729 104.111 539.437 103.324 539.843 102.329C540.248 101.332 542.836 96.8995 541.698 93.4182C540.559 89.9387 529.728 88.8128 528.274 94.17Z" fill="#F59386"/>
<path d="M542.607 94.5C542.534 92.3245 540.482 90.779 539.675 90.4358C538.141 89.7821 533.007 88.1731 532.163 88.7142C531.661 89.0357 531.371 89.8329 531.253 90.2742C530.813 90.2597 529.542 90.5066 529.228 90.612C528.269 90.9334 526.994 93.2143 527.525 94.5472C527.717 95.0248 530.405 96.7773 530.405 96.7773C530.405 96.7773 530.617 99.4323 530.993 99.5412C531.605 98.6441 531.792 97.0806 532.933 97.8778C534.075 98.6768 533.617 100.478 533.443 101.192C533.269 101.904 533.036 102.187 532.869 102.176L533.105 103.128L539.636 103.551C539.636 103.551 540.015 102.298 540.787 100.9C541.559 99.5013 542.679 96.6774 542.607 94.5Z" fill="#2B2950"/>
<path d="M535.236 107.06C535.236 107.06 526.943 108.864 524.039 112.254C521.896 114.757 522.544 115.316 521.763 119.772C521.066 123.755 520.712 136.06 520.85 149.74C521.763 151.418 529.835 155.014 536.003 154.489C542.17 153.962 545.994 152.13 547.932 149.827C548.204 141.372 550.587 115.067 548.419 111.05C547.233 108.856 541.814 106.1 535.236 107.06Z" fill="#FAAC18"/>
<path d="M529.182 109.136C529.182 109.136 531.177 106.581 535.578 105.717C539.978 104.85 543.241 107.745 543.241 107.745C542.971 108.174 535.22 109.023 529.182 109.136Z" fill="#98CEF0"/>
<path d="M536.525 74.601C536.487 74.641 536.444 74.6882 536.393 74.7173C536.337 74.7645 536.269 74.7935 536.193 74.8262C535.908 74.9533 535.479 75.0296 534.969 75.0605C534.933 75.0641 534.893 75.0641 534.851 75.0641C534.103 75.1059 533.195 75.0696 532.265 74.9824C532.093 74.9679 531.92 74.9533 531.74 74.9334C530.22 74.7699 528.711 74.5048 527.834 74.2959C527.727 74.6374 527.605 75.1622 527.473 75.8359C527.402 76.1664 527.329 76.5296 527.253 76.9273C526.692 79.8602 525.922 84.3784 524.941 88.1012C524.075 91.37 523.054 94.0232 521.872 94.4572C519.168 95.436 515.939 94.6515 515.589 92.7265C515.46 92.0401 516.124 89.4178 517.118 86.2289C518.888 80.5321 521.709 73.0356 522.947 71.5102C524.356 69.7759 526.452 69.1439 528.359 69.1276C529.465 69.1222 531.559 69.9848 533.358 71.0508C533.582 71.1888 533.807 71.3268 534.021 71.463C535.795 72.6161 537.096 73.9019 536.525 74.601Z" fill="#F59386"/>
<path d="M524.941 88.1014C524.073 91.3702 523.055 94.0233 521.872 94.4574C519.168 95.4362 515.939 94.6498 515.589 92.7267C515.46 92.0384 516.125 89.418 517.118 86.2291C518.767 85.8622 522.279 85.4899 524.941 88.1014Z" fill="#F27465"/>
<path d="M527.832 74.2943C527.727 74.6339 527.607 75.1642 527.473 75.8343C525.942 75.2295 524.253 74.2362 524.28 72.9559C525.657 73.7277 527.832 74.2943 527.832 74.2943Z" fill="#F27465"/>
<path d="M532.264 74.9842C532.091 74.9678 531.919 74.9515 531.741 74.9352L531.695 74.8607C530.25 73.0138 528.621 73.2318 527.6 72.489C526.44 71.6482 525.599 71.3068 524.791 71.4775C525.196 71.1216 526.776 70.8691 527.459 71.236C528.14 71.5955 528.601 71.8825 530.214 72.5635C531.22 72.9848 532.028 74.0435 532.264 74.9842Z" fill="#F27465"/>
<path d="M534.02 71.4639L529.61 72.8749L528.886 72.2303L533.357 71.0535C533.584 71.1897 533.804 71.3277 534.02 71.4639Z" fill="#F27465"/>
<path d="M536.391 74.7191C536.338 74.7609 536.269 74.7936 536.196 74.8244C534.613 73.8329 531.981 71.7518 531.981 71.7518L532.628 71.6646C532.628 71.6646 535.504 73.6404 536.391 74.7191Z" fill="#F27465"/>
<path d="M534.968 75.0613C534.932 75.065 534.89 75.0668 534.85 75.065L530.623 72.301L531.111 72.0377L534.968 75.0613Z" fill="#F27465"/>
<path d="M514.994 92.9704C515.063 91.8754 516.088 89.1005 520.235 88.9643C521.574 88.9226 522.745 89.2495 523.566 89.5763C524.321 89.8778 524.881 90.5279 525.082 91.3179L530.349 112.193C530.349 112.193 533.18 118.378 529.266 121.236C525.353 124.097 522.367 123.766 520.606 116.844C518.254 107.595 514.764 96.5334 514.994 92.9704Z" fill="#EAF0F8"/>
<path d="M514.639 94.5877C514.652 94.3971 514.227 92.0689 515.026 90.5871C515.824 89.1052 517.61 87.6379 521.133 88.2426C524.658 88.8455 525.123 90.5381 525.345 91.0629C525.566 91.5895 525.841 93.2675 525.841 93.2675C525.841 93.2675 521.884 91.2227 518.624 92.2269C515.366 93.2294 514.639 94.5877 514.639 94.5877Z" fill="#98CEF0"/>
<g opacity="0.470001">
<g opacity="0.470001">
<path opacity="0.470001" d="M240.46 383.386C240.46 389.121 226.308 393.772 208.847 393.772C191.388 393.772 177.234 389.121 177.234 383.386C177.234 377.651 191.388 373 208.847 373C226.308 373 240.46 377.651 240.46 383.386Z" fill="#43A047"/>
</g>
</g>
<path d="M222.271 307.534C221.224 313.122 219.437 318.528 216.624 323.277C212.906 318.824 217.908 310.118 217.908 310.118C217.908 310.118 217.889 310.046 217.857 309.904C217.012 306.179 205.651 255.202 218.658 261.25C219.475 261.627 226.336 285.969 222.271 307.534Z" fill="#6FC1A8"/>
<path d="M222.272 307.534C221.224 313.122 219.437 318.528 216.624 323.277C212.906 318.824 217.908 310.118 217.908 310.118C217.908 310.118 217.889 310.046 217.857 309.904C219.782 309.141 221.236 308.275 222.272 307.534Z" fill="#F59386"/>
<path d="M198.252 376.051C198.524 375.748 207.939 373.309 209.31 373.492C210.681 373.674 216.884 375.134 217.028 377.055C217.169 378.975 217.734 382.332 216.804 382.723C215.874 383.113 214.429 383.545 212.691 383.18C210.955 382.815 208.67 380.438 207.208 380.438C205.745 380.438 202.06 380.079 199.988 379.251C197.246 378.152 197.429 376.966 198.252 376.051Z" fill="#2B2950"/>
<path d="M218.414 305.995C218.36 306.948 218.294 307.916 218.233 308.87C217.866 314.539 214.334 342.148 214.334 342.148C214.334 342.148 217.07 365.792 217.027 377.055C216.413 378.201 215.463 379.089 214.018 378.931C213.529 378.875 213.079 378.766 212.663 378.6C212.207 378.437 211.795 378.219 211.423 377.965C209.536 376.699 208.669 374.68 208.669 374.68C208.669 374.68 201.115 344.358 200.775 339.417C200.171 330.54 202.457 318.718 202.758 308.857C202.764 308.742 202.764 308.628 202.777 308.519C203.39 293.664 214.444 294.129 216.758 295.584C218.699 296.795 218.683 301.264 218.414 305.995Z" fill="#2E67B1"/>
<path d="M218.414 305.995C215.628 307.542 211.933 308.875 207.436 308.88C205.835 308.88 204.273 308.75 202.777 308.519C203.39 293.664 214.444 294.129 216.758 295.584C218.699 296.795 218.683 301.264 218.414 305.995Z" fill="#265B96"/>
<path d="M212.662 378.601C212.208 378.436 211.796 378.218 211.424 377.964C209.697 368.522 205.413 345.058 204.837 340.569C204.103 334.883 210.243 302.825 210.507 301.465L211.587 301.675C211.522 302.002 205.209 334.914 205.923 340.431C206.52 345.032 211.044 369.793 212.662 378.601Z" fill="#265B96"/>
<path d="M187.235 381.236C187.508 380.931 196.922 378.494 198.293 378.678C199.664 378.859 205.868 380.318 206.009 382.239C206.153 384.16 206.717 387.518 205.788 387.907C204.858 388.297 203.411 388.729 201.674 388.364C199.938 387.999 197.654 385.622 196.192 385.622C194.728 385.622 191.044 385.263 188.972 384.434C186.229 383.338 186.413 382.15 187.235 381.236Z" fill="#2B2950"/>
<path d="M208.486 308.579C208.333 309.523 203.321 347.33 203.321 347.33C203.321 347.33 206.056 370.973 206.012 382.237C205.398 383.383 204.451 384.271 203.001 384.113C202.515 384.057 202.064 383.948 201.648 383.783C201.193 383.618 200.782 383.4 200.408 383.149C198.523 381.88 197.657 379.864 197.657 379.864C197.657 379.864 190.099 349.54 189.759 344.599C189.289 337.624 190.533 314.001 191.097 304.149C191.252 301.462 191.355 299.795 191.355 299.771C192.316 287.025 204.505 295.282 206.352 297.294C209.129 300.316 209.401 302.784 208.486 308.579Z" fill="#2E67B1"/>
<path d="M198.545 293.006C197.255 307.318 194.344 341.264 194.909 345.614C195.506 350.214 200.03 374.979 201.648 383.782C201.192 383.617 200.782 383.399 200.408 383.149C198.681 373.705 194.399 350.243 193.823 345.75C193.236 341.228 196.093 307.213 197.415 292.835L198.545 293.006Z" fill="#265B96"/>
<path d="M208.486 308.579C208.486 308.579 201.877 311.074 191.097 304.149C191.252 301.462 191.355 299.795 191.355 299.771C192.316 287.025 204.505 295.282 206.352 297.294C209.129 300.316 209.401 302.784 208.486 308.579Z" fill="#265B96"/>
<path d="M198.544 256.443C198.544 256.443 198.191 256.646 197.22 257.155C195.827 257.881 194.752 259.105 194.207 260.58C191.376 268.26 190.036 271.238 190.125 272.822C190.288 275.745 192.818 279.804 192.818 279.804L189.758 308.473C189.758 308.473 194.347 310.823 208.199 312.267C213.884 312.859 219.184 309.57 219.184 309.57C219.184 309.57 220.692 260.449 219.048 257.569C217.403 254.691 206.207 253.183 198.544 256.443Z" fill="#89CEBB"/>
<path d="M198.544 256.443C198.544 256.443 200.69 253.695 205.421 252.767C210.152 251.836 213.66 254.947 213.66 254.947C213.37 255.408 205.036 256.321 198.544 256.443Z" fill="#98CEF0"/>
<path d="M197.568 240.353C196.749 243.373 196.299 250.07 197.893 250.907C199.488 251.741 201.269 251.125 201.932 252.175C202.599 253.225 202.809 255.618 202.809 255.618C202.809 255.618 208.413 255.34 209.932 254.523C209.882 251.04 209.57 250.196 210.006 249.124C210.442 248.053 213.222 243.287 211.998 239.546C210.776 235.804 199.132 234.592 197.568 240.353Z" fill="#F59386"/>
<path d="M212.977 240.707C212.901 238.368 210.692 236.707 209.826 236.338C208.175 235.635 202.656 233.905 201.748 234.488C201.209 234.835 200.899 235.69 200.77 236.164C200.298 236.148 198.932 236.414 198.594 236.527C197.564 236.874 196.193 239.326 196.764 240.758C196.969 241.272 199.86 243.157 199.86 243.157C199.86 243.157 200.087 246.01 200.492 246.128C201.149 245.164 201.351 243.482 202.577 244.339C203.804 245.198 203.312 247.134 203.125 247.901C202.938 248.667 202.689 248.972 202.508 248.961L202.762 249.984L209.784 250.438C209.784 250.438 210.191 249.09 211.021 247.586C211.851 246.085 213.055 243.048 212.977 240.707Z" fill="#2B2950"/>
<path d="M223.248 252.252C222.383 251.443 221.475 250.676 220.631 249.846C218.835 248.087 217.324 246.038 216.171 243.804C214.981 241.5 214.161 238.983 212.612 236.905C209.395 232.594 201.378 232.138 198.051 236.675C197.553 237.356 197.177 238.149 197.117 238.992C197.057 239.833 197.346 240.723 197.985 241.273C199.353 242.45 201.516 241.667 203.206 242.292C204.292 242.689 205.124 243.717 205.289 244.863C205.455 246.009 204.948 247.226 204.02 247.918C203.401 248.537 202.851 248.964 202.66 249.819C202.349 251.206 202.486 252.877 202.515 254.292C202.58 257.29 202.972 260.283 203.688 263.194C204.104 264.895 204.65 266.604 205.698 268.006C207.053 269.811 209.154 270.955 211.346 271.488C213.536 272.02 215.828 271.987 218.074 271.789C219.681 271.649 221.314 271.415 222.763 270.705C225.748 269.241 227.503 265.889 227.702 262.571C227.882 259.547 226.902 256.469 225.008 254.108C224.472 253.442 223.871 252.835 223.248 252.252Z" fill="#2B2950"/>
<path d="M201.27 266.437C199.329 272.533 190.222 284.4 190.222 284.4C190.222 284.4 195.316 293.306 197.048 298.941C194.11 301.754 190.672 301.344 190.672 301.344C190.672 301.344 176.689 285.535 177.056 281.517C177.417 277.491 192.821 258.573 197.219 257.153C202.734 255.375 202.954 261.15 201.27 266.437Z" fill="#6FC1A8"/>
<path d="M197.048 298.942C194.109 301.755 190.672 301.343 190.672 301.343C190.672 301.343 190.672 301.348 190.665 301.354C190.49 301.695 188.58 310.553 189.506 311.204C190.654 312.012 192.126 310.21 192.818 309.217C194.682 306.544 196.723 303.431 197.115 302.087C197.505 300.745 197.404 300.1 197.048 298.942Z" fill="#F59386"/>
<path d="M674.27 70.4522V78.8785L580.997 132.739L580.986 132.728L541.321 109.836L540.395 110.366C539.102 111.125 538.25 112.543 538.415 114.033C538.749 117.187 536.832 120.418 532.646 122.846C524.928 127.291 512.439 127.291 504.761 122.846C500.751 120.51 498.866 117.427 499.064 114.376L499.033 106.449C499.033 106.449 525.542 103.033 527.583 101.907L488.294 79.2126L487.712 78.8785V70.4522L495.013 74.6599L527.479 55.9224L528.405 56.4636C529.698 57.2136 530.55 58.6409 530.385 60.1301C530.051 63.2863 531.968 66.5151 536.154 68.9322C543.872 73.3887 556.361 73.3887 564.039 68.9322C571.715 64.4739 571.673 57.2336 563.944 52.7771C559.559 50.2456 553.622 49.1524 547.915 49.5065C545.583 49.6409 543.258 49.1197 541.217 47.9956L541.208 39.5584L580.986 16.5915L674.27 70.4522Z" fill="#C5DEF3"/>
<path d="M674.27 70.4522V78.8785L580.997 132.739L580.986 132.728V16.5915L674.27 70.4522Z" fill="#B2D9F3"/>
<path d="M674.263 70.4442L580.989 124.305L541.315 101.4L540.387 101.932C539.096 102.691 538.243 104.109 538.408 105.598C538.742 108.755 536.824 111.983 532.638 114.41C524.92 118.857 512.432 118.857 504.756 114.41C497.079 109.942 497.119 102.713 504.848 98.2435C509.234 95.7139 515.172 94.6206 520.878 94.9729C523.212 95.1182 525.536 94.5988 527.577 93.4729L487.705 70.4442L527.472 47.4863L528.4 48.0293C529.691 48.7793 530.545 50.2049 530.379 51.6958C530.045 54.852 531.963 58.0791 536.149 60.4962C543.867 64.9544 556.355 64.9544 564.032 60.4962C571.708 56.0379 571.668 48.7993 563.939 44.341C559.553 41.8113 553.615 40.7163 547.909 41.0704C545.576 41.2066 543.251 40.6854 541.21 39.5613L580.989 16.5944L674.263 70.4442Z" fill="#EAF0F8"/>
<g opacity="0.470001">
<g opacity="0.470001">
<path opacity="0.470001" d="M174.537 134.528C175.733 139.134 177.092 143.801 179.81 147.707C182.527 151.611 186.865 154.682 191.622 154.702C198.314 154.733 203.482 149.12 209.467 146.127C214.249 143.735 219.657 143.013 224.923 142.097C230.188 141.182 235.592 139.967 239.9 136.804C244.207 133.642 247.151 128.043 245.691 122.902C244.186 117.601 238.761 114.503 233.631 112.495C218.802 106.696 201.915 105.249 186.348 108.759C173.131 111.741 171.368 122.337 174.537 134.528Z" fill="#A4D3F1"/>
</g>
</g>
<path d="M226.015 117.796C227.128 116.684 229.34 112.433 226.736 110.089C224.132 107.746 212.442 105.265 198.225 103.58C182.34 105.273 175.298 106.958 174.132 107.742C173.616 112.693 176.742 127.535 183.773 131.182C190.803 134.826 223.282 120.531 226.015 117.796Z" fill="#2B2950"/>
<path d="M227.301 113.822C226.462 112.443 225 110.649 221.897 111.105C219.436 111.468 206.01 122.783 199.006 128.669C197.297 130.106 195.281 131.215 193.073 131.555C191.39 131.813 191.357 132.283 191.357 133.525C191.357 136.186 191.244 137.807 190.977 140.555C190.669 143.735 191.133 146.88 192.089 147.75C193.086 148.656 195.88 145.414 196.315 143.853C196.52 143.115 197.068 141.639 197.359 139.463C197.747 136.578 199.689 134.143 202.416 133.133C211.682 129.701 231.81 121.225 227.301 113.822Z" fill="#F27465"/>
<path d="M197.096 142.377C197.096 142.377 196.489 148.888 191.702 149C190.05 148.924 190.418 144.201 190.5 143.073C190.769 139.283 190.8 135.257 190.989 131.739C191.008 131.36 191.188 131.002 191.488 130.766C193.193 129.428 194.838 129.88 194.838 129.88L194.07 131.098C192.932 132.907 192.351 135.012 192.405 137.149L192.445 138.782C192.472 139.906 193.244 140.861 194.33 141.157C195.165 141.386 196.173 141.762 197.096 142.377Z" fill="#2B2950"/>
<path d="M184.596 132.312C190.585 134.476 218.535 128.665 218.535 128.665C218.535 128.665 219.957 130.864 221.742 132.827C222.483 133.65 223.295 134.436 224.092 134.997C226.78 136.91 230.773 135.086 231.814 133.786C232.2 133.307 230.996 131.774 229.248 130C228.71 129.459 228.127 128.894 227.519 128.333C224.697 125.718 221.388 123.119 220.529 122.848C218.884 122.329 203.52 121.457 196.402 120.595C190.756 119.901 185.898 121.287 183.383 123.8C183.383 123.8 178.607 130.14 184.596 132.312Z" fill="#F59386"/>
<path d="M220.529 122.848L227.452 130.461L229.248 130C228.71 129.459 228.127 128.894 227.519 128.333C224.695 125.718 221.388 123.119 220.529 122.848Z" fill="#2B2950"/>
<path d="M221.742 132.827C222.483 133.65 223.295 134.436 224.09 134.998C226.778 136.91 230.773 135.087 231.814 133.784C232.315 133.162 230.123 130.744 227.519 128.331C226.17 129.03 222.79 130.915 221.742 132.827Z" fill="#2B2950"/>
<path d="M219.409 101.686C219.07 101.686 212.748 98.2228 208.831 96.0563C207.051 95.0775 205.769 94.3638 205.769 94.3638C205.769 94.3638 205.638 92.3481 206.229 90.4267C206.812 88.5054 209.692 89.3535 209.692 89.3535C209.915 89.5206 210.509 90.1307 211.206 90.8753C212.566 92.339 214.301 94.3021 214.301 94.3021C214.461 94.2022 217.086 94.0097 218.009 94.5926C218.93 95.1774 219.342 96.218 219.571 97.2277C219.8 98.2392 219.889 101.686 219.409 101.686Z" fill="#F59386"/>
<path d="M211.207 90.8751C210.373 91.8848 209.091 93.7752 208.832 96.0561C207.05 95.0773 205.77 94.3636 205.77 94.3636C205.77 94.3636 205.639 92.3497 206.228 90.4265C206.812 88.5052 209.692 89.3551 209.692 89.3551C209.916 89.5203 210.51 90.1305 211.207 90.8751Z" fill="#F27465"/>
<path d="M198.021 69.4652C198.021 69.4652 200.507 70.7491 201.567 72.1619C202.628 73.5748 205.217 85.0537 205.217 85.0537L209.692 89.3522C209.692 89.3522 205.946 90.2438 205.769 94.3643C204.435 93.4872 198.564 90.7069 196.975 87.8213C195.386 84.9375 194.679 72.4561 194.915 70.8653C195.15 69.2763 197.536 69.1238 198.021 69.4652Z" fill="#6FC1A8"/>
<path d="M209.502 87.4754C209.502 87.4754 206.1 87.1467 205.161 90.0795C204.468 92.2497 204.729 94.6795 204.729 94.6795L206.985 95.6347C206.985 95.6347 207.244 93.2049 208.2 91.5559C209.155 89.9052 210.976 89.2986 210.976 89.2986L209.502 87.4754Z" fill="white"/>
<path d="M196.524 68.0128C197.107 68.0945 197.762 68.1018 198.213 67.7222C198.792 67.2355 198.79 66.3293 199.253 65.7319C200.217 64.4897 202.449 65.267 203.582 64.1756C204.082 63.6943 204.238 62.9407 204.151 62.2506C204.064 61.5623 203.768 60.9213 203.474 60.293C202.469 58.1337 205.64 57.213 205.132 55.1827C204.712 53.5047 202.869 52.8873 202.233 51.3891C201.612 49.9272 201.454 48.2547 200.755 46.791C200.096 45.4127 198.665 44.1578 197.183 44.5301C195.721 44.8951 195.027 46.5912 193.738 47.3703C192.654 48.0259 191.283 47.9532 190.042 47.6899C188.804 47.4266 187.582 46.9944 186.314 46.9998C185.048 47.0053 183.67 47.5773 183.189 48.7505C182.348 50.8007 181.524 53.305 179.499 54.2094C178.168 54.805 176.482 55.0247 175.76 56.2905C174.85 57.8813 175.903 59.5339 177.103 60.46C178.558 61.5823 179.466 63.3638 179.435 65.2125C179.415 66.3638 179.061 67.557 179.451 68.6411C180 70.1738 181.892 70.8639 183.501 70.6115C185.11 70.359 186.508 69.4038 187.869 68.5104C189.076 67.7168 190.711 66.5854 192.232 66.629C193.651 66.6707 195.051 67.8057 196.524 68.0128Z" fill="#2B2950"/>
<path d="M193.13 75.9436C189.771 76.9024 184.699 67.8496 184.699 67.8496C184.699 67.8496 186.282 67.6426 186.731 65.7413C187.099 64.2412 186.823 60.9924 186.823 60.789L186.954 60.7109L188.401 59.8266C188.401 59.8266 193.13 63.1898 193.203 63.9398C193.256 64.4919 193.266 65.7885 193.73 66.7056C193.9 67.0433 194.125 67.3248 194.438 67.5064C194.641 68.4707 194.708 73.1996 193.13 75.9436Z" fill="#F59386"/>
<path d="M193.729 66.7049C192.984 66.7321 192.078 66.7103 190.969 66.6014C188.012 66.3144 187.151 63.2109 186.955 60.7103L188.401 59.8259C188.401 59.8259 193.13 63.1891 193.202 63.9409C193.255 64.4912 193.266 65.7896 193.729 66.7049Z" fill="#F27465"/>
<path d="M197.34 58.3333C197.34 58.3333 198.153 56.9676 198.869 57.3562C199.586 57.7485 199.292 59.1468 198.805 59.9604C198.317 60.774 197.307 61.2625 196.917 61.099C196.526 60.9374 197.34 58.3333 197.34 58.3333Z" fill="#F27465"/>
<path d="M197.833 56.9199C197.771 59.3152 197.328 63.4812 196.458 64.2584C195.292 65.299 192.88 65.8874 190.276 64.3873C188.48 63.3522 187.934 60.6173 187.781 58.9357C187.839 58.716 188.104 57.8316 188.843 57.5192C189.688 57.1597 190.99 57.2269 192.621 56.1536C194.25 55.0767 194.963 53.6493 194.963 53.6493C194.963 53.6493 197.729 55.242 197.833 56.9199Z" fill="#F59386"/>
<path d="M187.977 59.2237C187.977 59.2237 186.587 56.7503 185.719 57.2261C184.851 57.7055 184.815 59.0421 185.503 60.2642C186.284 61.6535 187.759 62.0003 188.236 61.0015L187.977 59.2237Z" fill="#F59386"/>
<path d="M198.385 89.1043C198.129 93.9585 199.297 99.717 200.103 103.769C196.829 109.582 193.14 111.127 190.146 111.456C187.151 111.779 182.464 112.758 174.132 107.744C173.94 105.853 174.913 102.603 176.408 99.2812C177.908 95.9579 178.367 91.9264 178.039 88.9263C177.71 85.9372 173.09 77.3439 174.721 73.8917C176.028 71.1168 181.672 68.9031 183.844 68.1368C184.376 67.9497 184.698 67.8498 184.698 67.8498L186.51 67.7881C187.355 69.1955 189.209 72.1628 190.985 74.1423C191.746 74.9922 192.485 75.6568 193.13 75.9438C193.475 75.3754 193.729 74.4074 193.918 73.3196C194.364 70.7409 194.437 67.5066 194.437 67.5066C194.437 67.5066 195.781 68.1277 196.849 68.7197C197.01 68.8087 197.167 68.8977 197.306 68.9812H197.312C197.621 69.1646 197.875 69.3353 198.02 69.4661C199.13 70.6374 201.187 78.5588 200.911 80.8815C200.651 83.048 200.17 84.3083 198.739 86.2605C198.552 87.1557 198.438 88.1091 198.385 89.1043Z" fill="#89CEBB"/>
<path d="M196.417 72.6158C196.417 72.6158 196.057 74.4863 195.494 76.5529C195.056 78.1782 194.501 79.9179 193.885 80.9748C192.99 80.9113 191.49 79.6056 190.168 78.2454C188.688 76.7308 187.422 75.1473 187.422 75.1473L190.985 74.1412C191.746 74.9911 192.485 75.6576 193.13 75.9445C193.475 75.3761 193.729 74.4082 193.918 73.3186L196.417 72.6158Z" fill="#EAF0F8"/>
<path d="M193.13 75.9436C192.079 76.7408 191.067 77.5834 190.167 78.2463C188.688 79.3395 187.495 79.9533 186.89 79.0998C185.953 77.7832 183.99 68.814 183.845 68.1366C183.84 68.1112 183.834 68.0967 183.834 68.0967L186.042 66.9907C186.042 66.9907 186.213 67.294 186.511 67.7879C187.355 69.1953 189.21 72.1627 190.984 74.1421C191.745 74.992 192.486 75.6567 193.13 75.9436Z" fill="white"/>
<path d="M198.046 76.668C197.681 77.1892 196.895 76.9495 195.495 76.5536C194.843 76.3647 194.062 76.1413 193.13 75.9434C193.474 75.3768 193.73 74.4071 193.917 73.3193C194.365 70.7406 194.438 67.5081 194.438 67.5081C194.438 67.5081 195.78 68.1273 196.848 68.7212C197.327 71.0547 198.349 76.2358 198.046 76.668Z" fill="white"/>
<path d="M198.739 86.2607C198.552 87.1559 198.437 88.1093 198.385 89.1045C196.62 90.0525 192.9 90.8442 188.756 90.9478C181.814 91.1221 181.641 85.8284 181.641 85.8284C181.641 85.8284 182.073 88.8648 187.371 88.7758C192.661 88.6923 198.739 86.2607 198.739 86.2607Z" fill="#6FC1A8"/>
<path d="M206.492 99.3609L223.935 109.431V110.417L197.772 125.522L180.327 115.452V114.466L206.492 99.3609Z" fill="#A5BCD0"/>
<path d="M197.771 124.537L180.329 114.467L206.492 99.3615L223.936 109.431L197.771 124.537Z" fill="#EAF0F8"/>
<path d="M197.563 122.756L187.653 116.878L210.562 103.283L220.888 109.245L197.563 122.756Z" fill="#A5BCD0"/>
<path d="M197.413 110.221L193.334 107.868L197.662 105.3L201.739 107.654L197.413 110.221Z" fill="#A5BCD0"/>
<path d="M196.995 124.09L205.717 108.982L231.88 93.8769L232.657 94.3255L230.587 96.1179L223.16 108.982L200.877 121.849L197.772 124.536L196.995 124.09Z" fill="#EAF0F8"/>
<path d="M232.657 94.3253L223.936 109.431L197.771 124.536L206.492 109.431L232.657 94.3253Z" fill="white"/>
<path d="M201.156 100.21C201.347 100.457 201.485 100.731 201.485 101.039C201.485 101.468 201.2 101.858 200.84 102.091C200.479 102.325 200.052 102.427 199.63 102.509C198.348 102.757 197.037 102.85 195.733 102.79C194.426 102.73 193.191 102.276 191.914 102.173C189.895 102.009 187.658 102.398 185.616 102.427C183.826 102.452 182.299 102.425 182.09 102.254C181.559 101.828 180.094 98.744 184.167 95.9419L186.86 96.5612L192.234 97.7852C193.276 97.2095 194.482 96.5412 195.659 96.3197C197.364 96.0019 199.525 98.6042 200.707 99.7283C200.864 99.8772 201.023 100.037 201.156 100.21Z" fill="#F59386"/>
<path d="M186.861 96.5606C186.431 97.4577 185.426 99.8548 185.615 102.426C183.827 102.452 182.299 102.424 182.091 102.254C181.56 101.827 180.093 98.7434 184.168 95.9432L186.861 96.5606Z" fill="#F27465"/>
<path d="M174.214 74.4273C174.214 74.4273 171.001 88.2416 172.412 95.6127C173.188 99.6642 174.437 102.445 178.721 102.599C183.007 102.755 183.526 102.664 183.526 102.664C183.526 102.664 181.843 98.3785 185.364 95.3076C181.309 93.9674 180.862 93.4807 180.862 93.4807C180.862 93.4807 184.594 80.7687 183.41 76.8625C182.226 72.9545 177.138 69.3098 174.214 74.4273Z" fill="#6FC1A8"/>
<path d="M183.854 94.4095C183.854 94.4095 181.081 96.2092 180.851 99.0948C180.62 101.98 181.982 103.112 181.982 103.112L184.592 103.21C184.592 103.21 183.46 101.031 183.967 99.0621C184.472 97.0918 186.241 95.1831 186.241 95.1831L183.854 94.4095Z" fill="white"/>
<g opacity="0.470001">
<g opacity="0.470001">
<path opacity="0.470001" d="M342.268 59.1598C338.911 53.3431 328.122 50.8134 322.354 49.2607C314.656 47.1887 306.646 46.4332 298.728 46.9544C286.71 47.7462 274.815 51.5416 264.86 58.3807C260.459 61.4043 255.366 64.931 253.715 70.1447C252.082 75.2931 252.449 81.1225 257.281 84.5293C260.162 86.5578 263.79 87.1243 267.275 87.6346C273.515 88.5481 279.753 89.4597 285.992 90.3732C291.486 91.1777 296.384 92.8175 302.06 92.2854C313.418 91.2194 323.885 85.312 333.178 79.0667C336.428 76.8821 339.633 74.3778 341.658 70.8766C343.681 67.3753 344.29 62.661 342.268 59.1598Z" fill="#43A047"/>
</g>
</g>
<path d="M313.22 52.0093C313.22 52.0093 315.828 50.048 317.341 50.4712C318.854 50.8943 319.856 52.9318 321.474 53.4857C323.094 54.0414 325.032 50.9506 327.592 54.9331C318.527 57.9077 315.262 60.145 315.262 60.145L313.22 52.0093Z" fill="#2B2950"/>
<path d="M319.762 58.0602C318.356 53.2333 312.465 49.1182 311.706 49.594C311.706 49.594 303.924 54.4754 297.712 57.9222C299.33 51.6915 301.987 46.9753 301.023 45.0794C299.09 41.2822 290.622 40.5376 285.87 45.8349C285.87 45.8349 273.873 73.7976 275.076 76.9066C276.278 80.0156 280.551 83.4914 286.409 80.7892C287.27 80.3915 288.074 79.9194 288.821 79.4018L288.837 79.4163C288.837 79.4163 308.35 66.2739 319.762 58.0602Z" fill="#2E67B1"/>
<path d="M323.132 56.8836C323.132 56.8836 325.685 54.8351 327.592 54.9332C329.499 55.0331 330.975 57.5464 333.38 57.8842C334.931 58.1003 337.086 57.9242 338.833 58.0876C339.803 58.1784 340.083 59.4641 339.227 59.9272C334.631 62.4133 326.119 66.1761 326.119 66.1761C326.119 66.1761 319.916 60.8951 323.132 56.8836Z" fill="#2B2950"/>
<path d="M329.271 65.397C320.955 71.753 302.824 86.3663 296.654 85.5982C290.483 84.8354 290.083 79.1241 290.492 75.2252C290.899 71.3208 299.648 44.1752 299.648 44.1752C299.648 44.1752 310.016 36.6206 314.915 39.2429C314.915 39.2429 316.691 40.7048 316.949 44.3223C317.2 47.7818 311.47 62.0955 311.051 63.0398C311.309 62.7765 313.156 61.5162 315.26 60.1451C317.734 58.5271 320.561 56.7456 321.558 56.2225C323.46 55.2237 330.78 57.5155 329.271 65.397Z" fill="#4078BB"/>
<path d="M315.261 60.1449C312.515 65.3569 307.978 73.1221 307.719 73.0803C307.332 73.0258 311.02 63.0832 311.02 63.0832C311.02 63.0832 311.029 63.0705 311.046 63.0469C311.046 63.0469 311.051 63.0451 311.051 63.0396C311.309 62.7763 313.156 61.516 315.261 60.1449Z" fill="#2E67B1"/>
<path d="M260.695 55.2573C259.226 55.9002 257.678 56.494 256.115 56.9698C254.644 59.4359 251.495 63.1097 246.241 63.2386C245.722 55.4607 253.235 53.6919 253.235 53.6919L255.893 50.8789C257.105 51.9794 259.108 53.8063 260.695 55.2573Z" fill="#F59386"/>
<path d="M270.607 48.8782C269.353 50.4854 265.227 53.6779 260.505 55.7627C258.918 54.3117 256.806 51.7166 255.595 50.618L262.891 42.9381C262.891 42.9381 262.121 34.0016 261.867 29.3762C261.606 24.7509 261.918 22.8713 264.357 22.065C266.794 21.2605 267.676 22.5517 268.764 24.4839C269.856 26.4216 271.944 44.5761 270.607 48.8782Z" fill="#F68D1F"/>
<path d="M262.832 22.9736C262.948 23.4367 260.233 25.4779 263.725 29.2188C267.219 32.9598 289.213 51.3649 290.882 52.0387C292.551 52.7106 298.207 53.2263 302.364 52.0641C306.138 51.009 313.509 45.9315 315.623 40.6687C315.993 39.7444 315.764 38.6856 315.093 37.952C306.779 28.8629 292.189 16.7266 280.265 15.8785C266.249 15.1721 262.832 22.9736 262.832 22.9736Z" fill="#FAAC18"/>
<path d="M273.459 68.0509L269.754 74.8609C269.754 74.8609 266.662 75.255 264.403 79.3628C262.145 83.4724 262.667 84.9397 263.531 85.045C264.395 85.1522 269.729 84.2405 271.668 81.8852C273.196 80.0292 274.06 77.1944 274.06 77.1944C274.06 77.1944 279.917 73.0231 280.469 70.882C281.021 68.741 275.38 67.0121 273.459 68.0509Z" fill="#F59386"/>
<path d="M272.583 68.7992C272.874 68.8664 276.818 69.433 279.882 72.6473C285.413 67.0831 288.738 61.2592 290.095 57.6163C291.518 53.7918 292.517 30.7232 290.376 27.231C288.237 23.7388 283.288 22.6056 280.864 25.9707C278.438 29.3357 278.794 53.5884 278.794 53.5884L272.583 68.7992Z" fill="#F68D1F"/>
<path d="M268.57 28.0085C268.57 28.0085 269.287 29.6628 269.91 29.8045C270.531 29.9479 272.445 29.8136 272.667 29.4867C272.888 29.1616 273.342 27.4818 273.215 27.3057C273.09 27.1295 270.763 26.5793 270.422 26.7136C270.079 26.848 268.439 27.046 268.57 28.0085Z" fill="#2B2950"/>
<path d="M270.375 29.3793C270.375 29.3793 269.225 52.8348 270.088 53.8917C270.951 54.9486 275.436 58.0885 275.436 58.0885C275.436 58.0885 278.267 53.5557 278.038 51.9813C277.81 50.4068 271.859 29.007 271.859 29.007L270.375 29.3793Z" fill="#2B2950"/>
<path d="M273.413 17.046C273.413 17.046 271.626 17.046 268.426 18.1755C267.19 20.4637 273.714 20.9722 273.714 20.9722L274.403 18.1646L273.413 17.046Z" fill="#F68D1F"/>
<path d="M271.688 16.2506C271.688 16.2506 272.62 17.8432 274.995 18.2118C276.205 18.3989 273.793 27.5025 270.539 27.5388C267.452 27.5733 265.434 25.6756 265.661 24.6659C265.886 23.6562 267.332 22.2997 267.283 21.0121C267.235 19.7227 269.013 16.8898 269.587 16.5302C270.161 16.1707 271.688 16.2506 271.688 16.2506Z" fill="#F27465"/>
<path d="M270.539 27.5393C270.539 27.5393 269.045 28.5963 268.701 28.9722C268.356 29.3481 267.739 30.4341 267.739 30.4341C267.739 30.4341 265.082 26.9274 264.552 25.0024C264.559 22.7197 265.734 22.0732 265.734 22.0732C265.734 22.0732 267.16 27.1816 270.539 27.5393Z" fill="#F68D1F"/>
<path d="M270.539 27.5394C270.539 27.5394 272.21 26.3372 273.37 24.1979C274.131 20.526 273.414 17.0465 273.414 17.0465C273.414 17.0465 274.736 17.4315 275.337 18.1343C275.936 18.8371 276.514 21.0544 276.69 23.9274C276.033 27.0836 274.683 29.9002 274.683 29.9002C274.683 29.9002 272.813 27.8517 272.606 27.8209C272.401 27.79 270.539 27.5394 270.539 27.5394Z" fill="#F68D1F"/>
<path d="M259.827 20.1743C259.827 20.1743 257.533 18.7051 257.081 17.9515C256.627 17.196 256.142 14.7154 256.142 14.7154C256.142 14.7154 255.468 13.7002 255.897 12.6324C256.325 11.5628 261.969 7.39143 266.722 8.18502C271.476 8.97861 271.311 17.443 271.311 17.443C271.311 17.443 269.422 17.1924 269.222 17.098C269.025 17.0017 259.827 20.1743 259.827 20.1743Z" fill="#2B2950"/>
<path d="M259.722 18.5321C259.722 18.5321 258.507 16.9776 257.08 17.9509C256.144 18.592 257.345 21.3632 258.928 21.7264C260.677 22.1277 260.879 20.6622 260.879 20.6622L259.722 18.5321Z" fill="#F27465"/>
<path d="M257.621 14.9409C256.466 14.0056 261.549 24.7255 263.583 25.3992C266.754 26.536 270.895 21.6492 270.991 19.5118C271.089 17.3725 269.326 12.7798 269.326 12.7798C269.326 12.7798 259.986 16.8549 257.621 14.9409Z" fill="#F59386"/>
<path d="M269.803 14.8362C269.767 14.4585 270.321 13.1129 271.873 12.6589C273.426 12.2049 273.711 18.5808 270.629 17.8726C269.464 17.6056 269.803 14.8362 269.803 14.8362Z" fill="#F59386"/>
<g opacity="0.470001">
<g opacity="0.470001">
<path opacity="0.470001" d="M466.487 135.55C466.856 139.289 462.537 142.774 454.881 142.906C444.924 143.079 438.862 139.184 428.317 143.357C421.935 145.883 415.804 149.253 409.061 150.532C402.633 151.752 395.839 150.96 389.861 148.3C384.667 145.986 379.858 141.899 378.505 136.378C375.611 124.563 391.572 117.896 400.742 117.413C412.586 116.79 424.192 121.278 435.689 123.383C443.578 124.828 451.843 125.838 459.361 128.754C463.995 130.55 466.244 133.104 466.487 135.55Z" fill="#A4D3F1"/>
</g>
</g>
<path d="M388.158 9.53806C387.945 9.27293 385.414 5.98415 386.83 4.70024C388.247 3.41633 388.688 3.31826 388.688 3.31826C388.688 3.31826 391.523 -0.631535 394.708 0.554314C398.999 2.14876 402.143 5.39214 400.374 11.1016C398.169 18.2113 389.552 11.2832 388.158 9.53806Z" fill="#2B2950"/>
<path d="M396.491 25.0699C401.552 23.2448 401.193 19.1624 401.193 19.1624C401.193 19.1624 399.58 18.9499 399.124 17.0123C398.747 15.4832 399.028 12.169 399.028 11.9602L398.896 11.8821L397.423 10.9777C397.423 10.9777 392.607 14.4099 392.532 15.1745C392.481 15.7374 392.471 17.0595 391.997 17.9947C391.822 18.3398 391.595 18.6267 391.276 18.8119C390.237 19.6745 388.644 21.2036 390.304 23.3919C391.731 25.2732 394.27 25.8707 396.491 25.0699Z" fill="#F59386"/>
<path d="M391.997 17.9939C392.756 18.0211 393.679 17.9993 394.808 17.8885C397.819 17.5962 398.695 14.4309 398.896 11.8812L397.422 10.9787C397.422 10.9787 392.607 14.4091 392.533 15.1736C392.48 15.7366 392.469 17.0586 391.997 17.9939Z" fill="#F27465"/>
<path d="M388.322 9.45657C388.322 9.45657 387.492 8.06189 386.764 8.46141C386.036 8.85911 386.333 10.2865 386.831 11.1164C387.329 11.9463 388.355 12.4439 388.752 12.2786C389.15 12.1116 388.322 9.45657 388.322 9.45657Z" fill="#F27465"/>
<path d="M387.905 10.0302C387.958 11.2778 388.708 16.0975 389.928 16.5315C391.517 17.0981 393.493 17.0491 395.151 15.9123C396.373 15.0733 397.454 13.1737 397.817 11.8045C398.107 10.684 398.113 9.44004 397.588 8.41036C397.343 7.93276 397.003 7.52416 396.589 7.19001C395.676 7.23723 394.305 7.25357 392.85 7.10466C391.385 6.9503 390.262 6.34012 389.572 5.83891C389.467 5.86615 389.36 5.90428 389.26 5.94605C388.468 6.30744 388.123 7.15188 387.98 8.04898C387.867 8.74451 387.883 9.47817 387.905 10.0302Z" fill="#F59386"/>
<path d="M397.855 10.3637C397.855 10.3637 399.268 7.84126 400.154 8.32795C401.037 8.81464 401.073 10.1803 400.374 11.426C399.579 12.8425 398.077 13.1966 397.59 12.1797L397.855 10.3637Z" fill="#F59386"/>
<path d="M383.688 57.5673C383.688 57.5673 381.767 64.5698 381.852 65.4015C381.937 66.2369 385.344 64.0213 386.855 61.5697C388.095 59.554 388.47 58.5479 387.779 56.0763C387.73 55.8857 387.669 55.6913 387.605 55.4825C387.009 53.5848 383.603 41.4739 383.603 41.4739C383.603 41.4739 388.86 31.524 390.106 28.3024C391.522 24.6305 390.151 21.2382 387.629 20.8078C387.629 20.8078 380.267 23.8805 375.934 41.4739C374.909 45.6253 383.688 57.5673 383.688 57.5673Z" fill="#39414B"/>
<path d="M381.852 65.4013C381.937 66.2367 385.344 64.0212 386.855 61.5696C388.095 59.5538 388.471 58.5477 387.781 56.0762C385.084 55.3752 383.688 57.5671 383.688 57.5671C383.688 57.5671 381.766 64.5696 381.852 65.4013Z" fill="#F59386"/>
<path d="M393.381 119.899C393.381 119.899 393.466 122.427 393.381 123.35C393.261 124.63 383.224 134.238 380.068 133.367C379.307 133.156 379.37 127.512 382.437 124.862C384.662 122.943 388.401 119.367 388.401 119.367L393.381 119.899Z" fill="#2B2950"/>
<path d="M385.508 55.7911C385.508 55.7911 385.545 58.1465 385.603 61.9546C385.853 77.8482 386.509 119.028 386.654 119.435C386.914 120.168 387.484 122.306 389.22 122.531C390.261 122.671 393.097 121.234 394.283 120.265C395.573 116.898 397.839 86.358 399.039 68.9789C399.526 61.9147 399.842 57.0278 399.842 57.0278C399.842 57.0278 390.646 45.0004 385.508 55.7911" fill="#2E67B1"/>
<path d="M385.508 55.7911C385.508 55.7911 385.545 58.1464 385.603 61.9546C387.564 64.4716 390.996 67.7422 396.059 68.7374C397.055 68.9335 398.055 69.0079 399.039 68.9789C399.526 61.9146 399.842 57.0278 399.842 57.0278C399.842 57.0278 390.646 45.0004 385.508 55.7911Z" fill="#265B96"/>
<path d="M400.515 127.727C400.201 131.682 400.564 136.954 400.611 138.067C400.784 142.353 401.278 146.394 402.487 146.606C405.112 147.069 409.279 143.356 409.279 139.337C409.279 138.826 409.232 138.28 409.154 137.711C408.702 134.483 407.396 131.444 406.877 128.232C406.455 125.611 405.805 122.126 402.017 123.223C401.135 123.478 400.704 125.368 400.515 127.727Z" fill="#2B2950"/>
<path d="M396.064 60.7585L396.574 68.8289L400.152 125.141C400.152 125.141 401.712 129.195 403.579 129.195C405.449 129.195 408.406 125.922 408.406 125.922C408.406 125.922 410.147 106.268 410.356 90.4284C410.467 81.9404 410.683 71.344 410.826 64.7065C410.906 60.8548 410.966 58.3378 410.966 58.3378C400.526 54.595 396.064 60.7585 396.064 60.7585Z" fill="#4078BB"/>
<path d="M396.064 60.7586L396.574 68.8289C402.231 69.7042 407.839 66.6969 410.826 64.7066C410.906 60.8549 410.966 58.3379 410.966 58.3379C400.526 54.5951 396.064 60.7586 396.064 60.7586Z" fill="#3067B1"/>
<path d="M385.508 55.7911C388.841 61.7203 392.596 63.3002 395.643 63.6307C398.696 63.9613 403.469 64.9619 411.953 59.8426C412.147 57.9176 411.001 54.7559 410.782 51.0386C410.391 47.383 413.014 28.8434 411.35 25.3259C410.155 22.7853 405.408 20.7041 402.848 19.7435C402.553 19.6272 402.286 19.5328 402.061 19.4529C401.522 19.2622 401.191 19.1623 401.191 19.1623C401.191 19.1623 399.786 24.8065 393.602 23.5698C389.751 22.5946 391.276 18.8119 391.276 18.8119C391.276 18.8119 390.412 19.2132 389.511 19.6781C389.28 19.798 389.046 19.9233 388.821 20.0486C388.656 20.1375 388.499 20.2283 388.354 20.3137H388.35C388.034 20.5026 387.775 20.6787 387.629 20.8076C386.498 22.0044 385.688 23.1303 385.913 32.4191C385.995 35.8804 385.468 50.8334 385.508 55.7911Z" fill="#505862"/>
<path d="M393.858 24.8003C399.008 25.7773 401.806 21.7785 402.847 19.7428C402.553 19.6284 402.287 19.5339 402.062 19.4522C401.523 19.2634 401.191 19.1635 401.191 19.1635C401.191 19.1635 399.787 24.8058 393.602 23.5691C389.75 22.5939 391.277 18.813 391.277 18.813C391.277 18.813 390.411 19.2125 389.51 19.6774C389.441 21.4026 389.89 24.0485 393.858 24.8003Z" fill="#39414B"/>
<path d="M393.405 59.0834C393.378 59.2342 393.378 59.3867 393.414 59.5393C393.56 60.1622 394.237 60.4945 394.853 60.6616C398.189 61.5605 401.067 59.6755 403.807 58.0029C403.807 58.0029 407.138 57.0205 409.82 56.1179C411.547 55.5386 413.007 54.9974 413.149 54.7632C413.516 54.173 413.886 50.7117 409.03 49.3878L406.649 50.8915C405.485 51.6251 404.318 52.3534 403.156 53.0906C401.285 54.2765 398.87 53.7517 396.887 54.9593C395.674 55.6984 394.766 56.8461 393.941 58.0047C393.709 58.3316 393.473 58.7003 393.405 59.0834Z" fill="#F59386"/>
<path d="M406.65 50.8911C407.365 51.6084 409.136 53.5788 409.82 56.1176C411.547 55.5382 413.007 54.9971 413.149 54.7628C413.516 54.1744 413.886 50.7113 409.03 49.3875L406.65 50.8911Z" fill="#F27465"/>
<path d="M411.353 25.3235C411.353 25.3235 419.089 37.5379 420.215 45.1088C420.834 49.2675 420.567 52.3656 416.503 53.96C412.439 55.5526 411.908 55.6416 411.908 55.6416C411.908 55.6416 412.529 51.4775 408.113 49.7069C410.864 47.0356 411.378 45.9042 411.378 45.9042C411.378 45.9042 403.511 34.9283 403.335 30.7679C403.157 26.6074 406.82 21.3846 411.353 25.3235Z" fill="#39414B"/>
<g opacity="0.470001">
<g opacity="0.470001">
<path opacity="0.470001" d="M154.066 318.427C154.293 322.5 150.33 326.426 143.473 326.786C139.146 327.013 135.014 325.307 130.785 324.478C116.66 321.712 102.197 328.716 87.8491 331.854C83.1003 332.893 77.4562 333.118 74.6123 328.625C72.6474 325.518 72.7382 320.869 74.2564 317.183C75.7727 313.496 78.9035 310.278 81.3406 307.384C92.5453 294.078 112.808 303.278 126.835 305.992C133.857 307.351 141.227 308.226 147.877 311.201C151.976 313.035 153.917 315.763 154.066 318.427Z" fill="#43A047"/>
</g>
</g>
<path d="M103.857 183.287C103.857 183.287 105.265 178.713 104.78 177.086C104.297 175.458 101.042 175.502 101.042 175.502C101.042 175.502 97.04 171.589 92.1131 173.701C87.1863 175.811 88.9025 179.285 83.1403 182.495C77.3781 185.706 74.1674 185.971 72.4513 188.345C70.737 190.722 69.2842 193.23 69.8563 197.802C70.4283 202.377 74.4743 208.052 81.9526 206.777C89.4309 205.499 92.1567 203.695 95.1477 197.098C98.1386 190.502 98.4038 185.75 100.118 184.914C101.834 184.081 103.857 183.287 103.857 183.287Z" fill="#2B2950"/>
<path d="M98.8622 202.144C95.3247 203.154 89.9838 193.623 89.9838 193.623C89.9838 193.623 91.6509 193.404 92.1231 191.403C92.5117 189.823 92.2211 186.401 92.2211 186.187L92.3573 186.105L93.8828 185.172C93.8828 185.172 98.8622 188.715 98.9385 189.505C98.993 190.086 99.0039 191.452 99.4924 192.418C99.674 192.774 99.9101 193.07 100.239 193.26C100.451 194.275 100.524 199.255 98.8622 202.144Z" fill="#F59386"/>
<path d="M99.4927 192.417C98.7082 192.444 97.753 192.422 96.5853 192.306C93.4727 192.005 92.5665 188.738 92.3577 186.104L93.8831 185.173C93.8831 185.173 98.8626 188.716 98.9388 189.504C98.9933 190.087 99.0042 191.452 99.4927 192.417Z" fill="#F27465"/>
<path d="M103.294 183.601C103.294 183.601 104.151 182.163 104.905 182.575C105.659 182.985 105.35 184.46 104.836 185.315C104.322 186.172 103.26 186.686 102.847 186.514C102.437 186.345 103.294 183.601 103.294 183.601Z" fill="#F27465"/>
<path d="M103.814 182.113C103.747 184.636 103.282 189.023 102.366 189.84C101.137 190.935 98.5983 191.555 95.8579 189.976C93.9656 188.885 93.39 186.007 93.2302 184.236C93.2919 184.005 93.5698 183.072 94.3488 182.745C95.2368 182.366 96.6079 182.436 98.3259 181.309C100.04 180.174 100.792 178.67 100.792 178.67C100.792 178.67 103.705 180.346 103.814 182.113Z" fill="#F59386"/>
<path d="M93.4347 184.539C93.4347 184.539 91.9729 181.933 91.0594 182.436C90.1442 182.939 90.106 184.35 90.8306 185.636C91.6533 187.098 93.2077 187.463 93.709 186.411L93.4347 184.539Z" fill="#F59386"/>
<path d="M126.531 229.249C126.175 229.249 119.517 225.601 115.395 223.32C113.519 222.29 112.17 221.538 112.17 221.538C112.17 221.538 112.034 219.417 112.653 217.394C113.267 215.37 116.299 216.265 116.299 216.265C116.535 216.439 117.16 217.08 117.896 217.865C119.327 219.405 121.152 221.473 121.152 221.473C121.322 221.368 124.086 221.166 125.056 221.78C126.028 222.396 126.46 223.491 126.701 224.555C126.943 225.619 127.036 229.249 126.531 229.249Z" fill="#F59386"/>
<path d="M117.895 217.866C117.018 218.928 115.668 220.92 115.394 223.321C113.518 222.291 112.171 221.538 112.171 221.538C112.171 221.538 112.033 219.416 112.652 217.393C113.268 215.37 116.299 216.264 116.299 216.264C116.535 216.44 117.159 217.079 117.895 217.866Z" fill="#F27465"/>
<path d="M104.011 195.323C104.011 195.323 106.629 196.673 107.746 198.16C108.861 199.649 111.589 211.736 111.589 211.736L116.3 216.262C116.3 216.262 112.357 217.201 112.17 221.541C110.764 220.615 104.583 217.687 102.91 214.651C101.236 211.613 100.493 198.471 100.74 196.798C100.989 195.125 103.5 194.964 104.011 195.323Z" fill="#F68D1F"/>
<path d="M116.1 214.287C116.1 214.287 112.517 213.942 111.529 217.029C110.799 219.314 111.073 221.872 111.073 221.872L113.451 222.877C113.451 222.877 113.723 220.318 114.729 218.582C115.733 216.846 117.653 216.206 117.653 216.206L116.1 214.287Z" fill="white"/>
<path d="M90.1708 310.38C90.1708 310.38 90.4014 315.885 90.1925 321.046C90.0128 325.471 89.5025 329.643 88.2512 329.864C85.5381 330.34 81.227 326.508 81.227 322.357C81.227 321.83 81.2778 321.266 81.3577 320.679C81.9243 316.647 84.1453 311.445 83.9092 308.357C83.6459 304.816 77.8492 282.766 80.2681 274.618C82.6907 266.464 90.3287 271.262 91.4438 275.413L90.1708 310.38Z" fill="#F59386"/>
<path d="M90.1929 321.046C90.0113 325.472 89.5028 329.643 88.2516 329.863C85.5385 330.34 81.2273 326.509 81.2273 322.357C81.2273 321.831 81.2763 321.266 81.358 320.679L90.1929 321.046Z" fill="#2B2950"/>
<path d="M97.7761 297.45C96.5885 298.093 96.4741 299.508 96.9535 300.467C97.4347 301.426 100.039 303.894 102.643 306.705C105.247 309.516 108.605 312.599 112.718 311.913C114.294 311.501 114.843 310.954 113.815 308.281C112.787 305.608 101.067 295.669 97.7761 297.45Z" fill="#2B2950"/>
<path d="M106.961 267.43C106.961 267.43 105.283 284.687 104.874 292.992C104.738 295.75 106.507 297.857 108.444 299.822C111.737 303.158 114.154 305.678 114.501 306.223C115.781 308.248 112.124 311.295 109.656 310.61C108.423 310.269 106.242 308.469 104.516 306.446C102.677 304.374 102.232 302.782 99.7984 301.427C98.6017 300.76 97.503 299.936 97.4431 299.142C97.3069 297.359 98.8723 294.435 97.6392 289.912C96.4061 285.388 94.2124 277.848 95.9939 272.365C97.7754 266.881 104.266 265.1 106.961 267.43Z" fill="#F59386"/>
<path d="M105.864 308.144C105.864 308.144 111.21 313.353 114.227 311.845C115.734 310.336 116.992 307.692 112.717 303.757C107.92 303.757 106.276 305.676 105.864 308.144Z" fill="#2B2950"/>
<path d="M110.607 264.714C110.607 265.417 109.697 267.193 108.063 269.227C107.652 269.748 107.186 270.286 106.675 270.829C105.66 271.898 104.472 272.984 103.139 273.965C102.607 274.365 102.054 274.742 101.478 275.1C99.6237 276.248 97.5408 277.172 95.2762 277.65C95.1164 277.684 94.953 277.715 94.7932 277.744C94.2665 277.842 93.7453 277.919 93.226 277.98C89.9517 278.363 86.8754 278.006 84.3639 277.443C83.7555 277.305 83.1853 277.158 82.6478 277.003C79.8184 276.197 78.0315 275.254 78.0315 275.254C78.0315 275.254 76.9165 259.768 77.2397 251.143C77.3941 246.932 78.0406 242.841 78.6725 239.761C79.3245 236.514 79.9492 234.382 79.9492 234.382C86.0146 224.479 97.3537 225.596 105.019 229.907C105.695 231.71 106.308 233.861 106.857 236.19C109.412 247.068 110.607 261.956 110.607 264.714Z" fill="#4078BB"/>
<path d="M106.857 236.191C104.394 239.047 99.7019 243.38 93.5275 243.988C87.6092 244.568 81.9905 241.838 78.6708 239.761C79.3246 236.514 79.9493 234.382 79.9493 234.382C86.0147 224.479 97.3538 225.596 105.019 229.907C105.695 231.71 106.309 233.861 106.857 236.191Z" fill="#3067B1"/>
<path d="M84.3635 277.442C83.7551 277.304 83.1849 277.157 82.6474 277.003C82.1371 268.379 82.2914 259.666 82.8562 251.051C82.8834 250.655 83.5644 250.689 83.5517 251.083C83.2775 259.913 83.6498 268.646 84.3635 277.442Z" fill="#3067B1"/>
<path d="M94.7932 277.744C94.2666 277.842 93.7454 277.92 93.226 277.98C92.5014 269.223 91.9094 260.41 91.5408 251.637C91.519 251.192 92.2653 251.149 92.3144 251.583C93.3186 260.274 94.1249 269.018 94.7932 277.744Z" fill="#3067B1"/>
<path d="M103.139 273.965C102.607 274.366 102.053 274.744 101.477 275.1C100.983 266.877 100.293 258.661 99.2128 250.486C99.1365 249.888 100.035 249.745 100.133 250.337C101.494 258.167 102.542 266.049 103.139 273.965Z" fill="#3067B1"/>
<path d="M108.063 269.228C107.651 269.749 107.186 270.287 106.675 270.83C106.325 262.215 105.798 253.585 104.527 245.046C104.449 244.53 105.234 244.321 105.315 244.843C106.637 252.937 107.712 261.041 108.063 269.228Z" fill="#3067B1"/>
<path d="M104.395 216C104.126 221.11 105.353 227.176 106.205 231.441C102.755 237.561 98.8721 239.19 95.7195 239.535C92.5669 239.875 87.6329 240.906 78.858 235.625C78.6564 233.635 79.6806 230.214 81.2551 226.714C82.8332 223.217 83.3162 218.973 82.9712 215.813C82.6262 212.666 77.7611 203.62 79.4772 199.985C80.8556 197.061 86.7993 194.731 89.0857 193.925C89.6432 193.727 89.9846 193.623 89.9846 193.623L91.8932 193.558C92.7812 195.038 94.7334 198.163 96.6021 200.246C97.4029 201.14 98.182 201.842 98.863 202.144C99.2244 201.546 99.4932 200.526 99.6893 199.382C100.161 196.667 100.238 193.262 100.238 193.262C100.238 193.262 101.652 193.914 102.776 194.538C102.947 194.631 103.111 194.725 103.26 194.813H103.265C103.588 195.003 103.857 195.185 104.011 195.323C105.179 196.556 107.346 204.897 107.053 207.341C106.779 209.622 106.276 210.951 104.769 213.007C104.571 213.95 104.449 214.954 104.395 216Z" fill="#FAAC18"/>
<path d="M102.322 198.64C102.322 198.64 101.945 200.608 101.351 202.786C100.891 204.496 100.305 206.327 99.6565 207.442C98.714 207.377 97.1359 206 95.7412 204.569C94.1849 202.973 92.8519 201.306 92.8519 201.306L96.6038 200.247C97.4046 201.14 98.1819 201.843 98.8629 202.145C99.2243 201.547 99.493 200.527 99.6892 199.381L102.322 198.64Z" fill="#EAF0F8"/>
<path d="M98.8623 202.144C97.7546 202.983 96.6904 203.871 95.7424 204.569C94.1843 205.72 92.9276 206.366 92.292 205.467C91.306 204.078 89.2394 194.637 89.085 193.925C89.0795 193.898 89.0741 193.88 89.0741 193.88L91.3986 192.719C91.3986 192.719 91.5802 193.035 91.8925 193.556C92.7806 195.038 94.7328 198.163 96.6032 200.246C97.4041 201.14 98.1813 201.843 98.8623 202.144Z" fill="white"/>
<path d="M104.038 202.907C103.655 203.455 102.827 203.203 101.352 202.787C100.666 202.587 99.8431 202.353 98.8624 202.144C99.2238 201.547 99.4926 200.526 99.6887 199.382C100.161 196.665 100.239 193.26 100.239 193.26C100.239 193.26 101.654 193.914 102.778 194.539C103.281 196.996 104.356 202.451 104.038 202.907Z" fill="white"/>
<path d="M104.768 213.006C104.57 213.951 104.45 214.953 104.394 215.999C102.536 216.998 98.6189 217.832 94.2569 217.942C86.9475 218.124 86.7659 212.551 86.7659 212.551C86.7659 212.551 87.2199 215.749 92.7968 215.656C98.3683 215.567 104.768 213.006 104.768 213.006Z" fill="#F68D1F"/>
<path d="M98.0598 235.623C97.6984 235.968 97.1627 236.162 96.6578 236.277C94.7601 236.72 92.3594 236.685 90.5742 235.803C89.4574 235.247 88.5076 234.083 87.28 233.722C87.2546 233.714 83.8278 232.707 81.0638 231.777C79.2751 231.179 77.7678 230.618 77.6189 230.377C77.2412 229.768 76.8562 226.194 81.8792 224.829L84.3417 226.38L89.254 229.467C91.2843 229.122 93.6179 229.12 95.3885 230.317C96.4163 231.012 97.2226 231.993 97.8945 233.035C98.3013 233.665 98.6736 234.443 98.3939 235.136C98.3177 235.327 98.2014 235.487 98.0598 235.623Z" fill="#F59386"/>
<path d="M84.3423 226.38C83.6013 227.121 81.769 229.155 81.0626 231.777C79.2756 231.18 77.7665 230.618 77.6194 230.377C77.2399 229.769 76.8567 226.193 81.8798 224.829L84.3423 226.38Z" fill="#F27465"/>
<path d="M79.4778 199.984C79.4778 199.984 71.4784 212.592 70.3143 220.409C69.6751 224.703 69.9475 227.903 74.1515 229.548C78.3555 231.194 78.904 231.285 78.904 231.285C78.904 231.285 78.7206 226.439 83.2914 224.614C79.7266 221.872 79.4524 221.231 79.4524 221.231C79.4524 221.231 87.5863 209.899 87.7697 205.605C87.9531 201.308 84.1649 195.918 79.4778 199.984Z" fill="#F68D1F"/>
<path d="M82.1034 223.196C82.1034 223.196 78.722 224.019 77.4871 226.807C76.254 229.592 77.2147 231.192 77.2147 231.192L79.7716 232.198C79.7716 232.198 79.4066 229.64 80.5943 227.856C81.7837 226.075 84.2045 224.796 84.2045 224.796L82.1034 223.196Z" fill="white"/>
</svg>
