<svg width="101" height="100" viewBox="0 0 101 100" fill="none" xmlns="http://www.w3.org/2000/svg">
<path d="M95.0104 54.6002V38.2156L99.3941 34.6153C99.5999 34.4544 99.7635 34.246 99.8709 34.0079C99.9783 33.7698 100.026 33.5092 100.011 33.2485C99.9932 32.9867 99.9166 32.7322 99.7867 32.5042C99.6568 32.2762 99.477 32.0805 99.2608 31.9317L50.9236 0.262541C50.6486 0.0909627 50.331 0 50.0068 0C49.6827 0 49.3651 0.0909627 49.0901 0.262541L0.752906 31.9317C0.536684 32.0805 0.3569 32.2762 0.227009 32.5042C0.0971183 32.7322 0.0204855 32.9867 0.00284588 33.2485C-0.0126593 33.5092 0.0353615 33.7698 0.142783 34.0079C0.250205 34.246 0.413816 34.4544 0.619562 34.6153L18.3376 49.1164V50.0665C16.104 54.8114 14.9651 59.9976 15.0051 65.2418C15.0451 70.486 16.263 75.6542 18.5687 80.3644C20.8745 85.0747 24.2092 89.2066 28.3265 92.4549C32.4437 95.7032 37.2383 97.9848 42.3558 99.1312C47.4734 100.277 52.7831 100.259 57.8926 99.0777C63.0021 97.8962 67.7809 95.5817 71.8757 92.3052C75.9705 89.0286 79.2767 84.8739 81.5501 80.1478C83.8234 75.4218 85.0057 70.2454 85.0096 65.001C85.023 59.8369 83.8841 54.7348 81.676 50.0665V49.1164L91.6768 40.9325V54.6002L87.5932 62.7675C87.2122 63.5306 87.0327 64.3785 87.0719 65.2306C87.111 66.0826 87.3675 66.9104 87.8168 67.6354C88.2662 68.3604 88.8935 68.9583 89.6391 69.3725C90.3848 69.7866 91.2239 70.0031 92.0769 70.0014H94.6104C95.4633 70.0031 96.3025 69.7866 97.0481 69.3725C97.7938 68.9583 98.4211 68.3604 98.8704 67.6354C99.3198 66.9104 99.5762 66.0826 99.6154 65.2306C99.6545 64.3785 99.4751 63.5306 99.0941 62.7675L95.0104 54.6002ZM36.7058 63.3342C36.7619 56.6688 37.957 50.0621 40.2394 43.7994C43.4852 43.4783 46.7452 43.3226 50.0068 43.3326C53.2685 43.3226 56.5285 43.4783 59.7743 43.7994C62.0566 50.0621 63.2517 56.6688 63.3079 63.3342H36.7058ZM63.3079 66.6678C63.2371 71.8065 62.5374 76.9171 61.2244 81.8857C53.9569 79.3744 46.0568 79.3744 38.7893 81.8857C37.4763 76.9171 36.7766 71.8065 36.7058 66.6678H63.3079ZM50.0068 39.999C38.6059 39.999 27.155 41.8159 21.6712 45.2995V34.9986C21.6712 32.7318 31.672 28.3314 50.0068 28.3314C68.3416 28.3314 78.3424 32.7318 78.3424 34.9986V45.2995C72.8587 41.8159 61.4077 39.999 50.0068 39.999ZM36.5058 44.2494C34.5001 50.4154 33.4435 56.8506 33.3722 63.3342H18.3876C18.5937 59.1147 19.654 54.9809 21.5046 51.1833C21.6166 50.9552 21.6737 50.704 21.6712 50.4499V49.9998C21.6712 48.383 26.8383 45.6662 36.5058 44.2494ZM18.421 66.6678H33.3722C33.4511 72.2216 34.2295 77.7433 35.689 83.1025C32.9612 84.3337 30.4015 85.9076 28.0718 87.7862C22.2825 82.2329 18.8307 74.6795 18.421 66.6678ZM30.6386 90.003C32.5141 88.5389 34.5495 87.292 36.7058 86.2861C37.8325 89.6459 39.5483 92.7783 41.7728 95.5368C37.7302 94.4514 33.9449 92.5701 30.6386 90.003ZM50.0068 96.6702C46.2732 96.6702 42.3896 92.3699 39.7894 85.0693C46.4049 82.758 53.6087 82.758 60.2243 85.0693C57.6241 92.3699 53.7405 96.6702 50.0068 96.6702ZM58.2408 95.5368C60.4654 92.7783 62.1811 89.6459 63.3079 86.2861C65.4642 87.292 67.4995 88.5389 69.375 90.003C66.0688 92.5701 62.2835 94.4514 58.2408 95.5368ZM71.9419 87.7862C69.6122 85.9076 67.0525 84.3337 64.3246 83.1025C65.7841 77.7433 66.5626 72.2216 66.6415 66.6678H81.5927C81.183 74.6795 77.7312 82.2329 71.9419 87.7862ZM66.6415 63.3342C66.5702 56.8506 65.5136 50.4154 63.5079 44.2494C73.1754 45.6662 78.3424 48.383 78.3424 49.9998V50.4499C78.3399 50.704 78.397 50.9552 78.5091 51.1833C80.3596 54.9809 81.42 59.1147 81.626 63.3342H66.6415ZM81.676 44.8161V34.9986C81.676 28.4315 65.7414 24.9978 50.0068 24.9978C34.2722 24.9978 18.3376 28.4315 18.3376 34.9986V44.8161L4.48654 33.4819L50.0068 3.66281L95.5271 33.4819L81.676 44.8161ZM96.0272 65.8844C95.8812 66.1285 95.6733 66.3296 95.4244 66.4672C95.1756 66.6048 94.8947 66.674 94.6104 66.6678H92.0769C91.7926 66.674 91.5117 66.6048 91.2628 66.4672C91.014 66.3296 90.806 66.1285 90.6601 65.8844C90.5082 65.6418 90.4208 65.3644 90.4062 65.0785C90.3916 64.7927 90.4503 64.5078 90.5767 64.251L93.3436 58.7339L96.1105 64.251C96.2369 64.5078 96.2956 64.7927 96.281 65.0785C96.2664 65.3644 96.1791 65.6418 96.0272 65.8844Z" fill="black"/>
</svg>
