<svg width="103" height="103" viewBox="0 0 103 103" fill="none" xmlns="http://www.w3.org/2000/svg">
<path d="M63.2452 9.40239C63.2452 8.57176 62.5719 7.89844 61.7413 7.89844H41.2582C40.4276 7.89844 39.7543 8.57176 39.7543 9.40239C39.7543 10.233 40.4276 10.9063 41.2582 10.9063H61.7415C62.5721 10.9063 63.2452 10.2328 63.2452 9.40239Z" fill="white"/>
<path d="M46.3792 14.4512C45.5486 14.4512 44.8752 15.1245 44.8752 15.9551C44.8752 16.7858 45.5484 17.4591 46.3792 17.4591H56.6206C57.4512 17.4591 58.1246 16.7858 58.1246 15.9551C58.1246 15.1245 57.4514 14.4512 56.6206 14.4512H46.3792Z" fill="white"/>
<path d="M99.9836 70.0765C101.647 70.0765 103 68.7235 103 67.0606V57.0046C103 55.3418 101.647 53.9887 99.9836 53.9887H89.8575V42.9834C89.8575 40.6661 87.9723 38.781 85.655 38.781H53.0038V25.3572H73.8063C75.4693 25.3572 76.8222 24.0041 76.8222 22.3413V3.01596C76.8222 1.35308 75.4693 0 73.8063 0H64.2307C63.4001 0 62.7268 0.67332 62.7268 1.50396C62.7268 2.33459 63.4001 3.00791 64.2307 3.00791L73.8145 3.01616L73.8063 22.3495L29.1853 22.3413L29.1935 3.00791H57.3074C58.138 3.00791 58.8114 2.33459 58.8114 1.50396C58.8114 0.67332 58.138 0 57.3074 0H29.1935C27.5305 0 26.1776 1.35308 26.1776 3.01596V22.3411C26.1776 24.0041 27.5305 25.357 29.1935 25.357H49.996V38.7808H17.3448C15.0275 38.7808 13.1423 40.6659 13.1423 42.9832V53.9885H3.01596C1.35288 53.9887 0 55.3416 0 57.0046V67.0606C0 68.7237 1.35288 70.0765 3.01596 70.0765H13.1421V86.5854H3.01596C1.35288 86.5854 0 87.9383 0 89.6012V99.6572C0 101.32 1.35288 102.673 3.01596 102.673H8.29851C9.12914 102.673 9.80246 102 9.80246 101.169C9.80246 100.339 9.12914 99.6652 8.29851 99.6652L3.00771 99.6569L3.01596 89.601H26.2762V99.6652H15.2956C14.465 99.6652 13.7917 100.339 13.7917 101.169C13.7917 102 14.465 102.673 15.2956 102.673H26.2762C27.9392 102.673 29.2921 101.32 29.2921 99.6572V89.6012C29.2921 87.9381 27.9392 86.5853 26.2762 86.5853H16.15V70.0763H26.2762C27.9392 70.0763 29.2921 68.7233 29.2921 67.0604V57.0044C29.2921 55.3416 27.9392 53.9885 26.2762 53.9885H16.15V42.9832C16.15 42.3244 16.6859 41.7887 17.3448 41.7887H49.996V53.9885H39.8699C38.2068 53.9885 36.8539 55.3416 36.8539 57.0044V67.0604C36.8539 68.7235 38.2068 70.0763 39.8699 70.0763H50.0608V86.5853H39.8699C38.2068 86.5853 36.8539 87.9381 36.8539 89.6012V99.6572C36.8539 101.32 38.2068 102.673 39.8699 102.673H63.1301C64.7932 102.673 66.1461 101.32 66.1461 99.6572V89.6012C66.1461 87.9381 64.7932 86.5853 63.1301 86.5853H53.0687V70.0763H63.1301C64.7932 70.0763 66.1461 68.7233 66.1461 67.0604V57.0044C66.1461 55.3416 64.7932 53.9885 63.1301 53.9885H53.004V41.7887H85.6552C86.3141 41.7887 86.85 42.3246 86.85 42.9832V53.9885H76.7238C75.0608 53.9885 73.7079 55.3416 73.7079 57.0044V67.0604C73.7079 68.7235 75.0608 70.0763 76.7238 70.0763H86.85V86.5853H76.7238C75.0608 86.5853 73.7079 87.9381 73.7079 89.6012V99.6572C73.7079 101.32 75.0608 102.673 76.7238 102.673H99.984C101.647 102.673 103 101.32 103 99.6572V89.6012C103 87.9381 101.647 86.5853 99.984 86.5853H89.8579V70.0763H99.9836V70.0765ZM26.2844 57.0046L26.2796 67.0686C26.2796 67.0686 26.2786 67.0688 26.2762 67.0688L3.00771 67.0606L3.01596 56.9964L26.2844 57.0046ZM63.1381 89.6012C63.1381 89.6012 63.1404 99.6654 63.1381 99.6654L39.8614 99.6572L39.8697 89.6012H63.1381ZM63.1381 57.0046L63.1333 67.0686C63.1333 67.0686 63.1323 67.0688 63.1301 67.0688L39.8616 67.0606L39.8699 56.9964L63.1381 57.0046ZM99.9869 89.5932V99.6654C99.9869 99.6654 99.9858 99.6656 99.9834 99.6656L76.715 99.6573V89.5932H99.9869ZM76.7152 67.0606L76.7234 56.9964L99.9919 57.0046L99.9871 67.0686C99.9871 67.0686 99.9861 67.0688 99.9836 67.0688L76.7152 67.0606Z" fill="white"/>
</svg>
