<svg width="100" height="100" viewBox="0 0 100 100" fill="none" xmlns="http://www.w3.org/2000/svg">
<g clip-path="url(#clip0)">
<path d="M91.053 80.1605L87.0163 78.759C89.2761 76.9692 90.7295 74.2043 90.7295 71.1045V68.1458C90.7295 62.7625 86.3495 58.3824 80.9662 58.3824C75.5829 58.3824 71.2029 62.7625 71.2029 68.1458V71.1045C71.2029 74.2043 72.657 76.9692 74.9168 78.759L70.8794 80.1605C68.2899 81.0601 66.1133 82.7095 64.5546 84.813H53.6491V80.5092C53.6491 74.8444 50.0534 69.7899 44.7021 67.9322L40.6647 66.5306C42.9245 64.7408 44.3787 61.9759 44.3787 58.8761V55.9174C44.3787 50.5333 39.9986 46.1541 34.6153 46.1541C29.232 46.1541 24.852 50.5341 24.852 55.9174V58.8761C24.852 61.9759 26.3062 64.7408 28.5652 66.5306L24.5285 67.9322C19.1772 69.7899 15.5815 74.8444 15.5815 80.5092V84.813H1.47934C0.662231 84.813 0 85.4752 0 86.2923V98.5207C0 99.3378 0.662231 100 1.47934 100H63.018C63.0844 100 63.15 99.9939 63.2149 99.9855C63.2797 99.9939 63.3453 100 63.4125 100H98.5207C99.3378 100 100 99.3378 100 98.5207V92.7376C100 87.0735 96.405 82.0191 91.053 80.1605ZM74.1615 68.1458C74.1615 64.3936 77.2141 61.3411 80.9662 61.3411C84.7183 61.3411 87.7708 64.3936 87.7708 68.1458V71.1045C87.7708 74.8566 84.7183 77.9091 80.9662 77.9091C77.2141 77.9091 74.1615 74.8566 74.1615 71.1045V68.1458ZM27.8107 55.9174C27.8107 52.1653 30.8632 49.1127 34.6153 49.1127C38.3675 49.1127 41.42 52.1653 41.42 55.9174V58.8761C41.42 62.6282 38.3675 65.6807 34.6153 65.6807C30.8632 65.6807 27.8107 62.6282 27.8107 58.8761V55.9174ZM37.719 68.6394L39.1563 69.1384L34.6153 77.0172L30.0743 69.1384L31.5117 68.6394H37.719ZM18.5402 80.5092C18.5402 76.1032 21.3371 72.1718 25.499 70.7268L27.2293 70.1264L33.3336 80.719C33.5976 81.1775 34.0866 81.4598 34.6153 81.4598C35.144 81.4598 35.6331 81.1775 35.8971 80.719L42.0013 70.1264L43.7317 70.7268C47.8935 72.1718 50.6897 76.1032 50.6897 80.5092V84.813H18.5402V80.5092ZM2.95868 87.7716H62.8967C62.2726 89.3196 61.9331 90.9996 61.9331 92.7376V97.0413H2.95868V87.7716ZM97.0413 97.0413H64.8918V92.7376C64.8918 88.3316 67.688 84.401 71.8498 82.9552L77.8625 80.8678H84.0698L90.0826 82.9552C94.2451 84.401 97.0413 88.3316 97.0413 92.7376V97.0413Z" fill="black"/>
<path d="M90.6311 10.6506H75.6042C74.7871 10.6506 74.1249 11.3136 74.1249 12.13C74.1249 12.9471 74.7871 13.6093 75.6042 13.6093H90.6311C94.1658 13.6093 97.0413 16.4848 97.0413 20.0203V40.5327C97.0413 44.0674 94.1658 46.9429 90.6311 46.9429H70.3156C69.4984 46.9429 68.8362 47.6051 68.8362 48.4222V54.7134L61.4998 47.3763C61.2221 47.0985 60.8459 46.9429 60.4538 46.9429H48.4222C44.8875 46.9429 42.0113 44.0674 42.0113 40.5327V20.0195C42.0113 16.4848 44.8868 13.6093 48.4222 13.6093H68.6882C69.5053 13.6093 70.1675 12.9471 70.1675 12.13C70.1675 11.3129 69.5053 10.6506 68.6882 10.6506H60.9467V9.3689C60.9467 4.20303 56.7436 0 51.5778 0H9.3689C4.20303 0 0 4.20303 0 9.3689V12.6396C0 13.4567 0.662231 14.119 1.47934 14.119C2.29645 14.119 2.95868 13.4567 2.95868 12.6396V9.3689C2.95868 5.8342 5.8342 2.95868 9.3689 2.95868H51.5778C55.1125 2.95868 57.988 5.8342 57.988 9.3689V10.6506H48.4222C43.2564 10.6506 39.0533 14.8537 39.0533 20.0195V36.2915H23.5703C22.7531 36.2915 22.0909 36.9537 22.0909 37.7708V44.062L14.7545 36.7249C14.4768 36.4471 14.1006 36.2915 13.7085 36.2915H9.3689C5.8342 36.2915 2.95868 33.416 2.95868 29.8813V19.5183C2.95868 18.7012 2.29645 18.0389 1.47934 18.0389C0.662231 18.0389 0 18.7012 0 19.5183V29.8813C0 35.0479 4.20303 39.2502 9.3689 39.2502H13.0951L22.5243 48.6794C22.8073 48.9624 23.1857 49.1127 23.5703 49.1119C23.761 49.1119 23.9532 49.0753 24.1364 48.9998C24.6887 48.7709 25.0496 48.2315 25.0496 47.6334V39.2502H39.0533V40.5327C39.0533 45.6985 43.2564 49.9008 48.4222 49.9008H59.8412L69.2696 59.33C69.5526 59.613 69.931 59.7633 70.3156 59.7633C70.5063 59.7633 70.6985 59.7267 70.8817 59.6504C71.434 59.4215 71.7949 58.8821 71.7949 58.284V49.9008H90.6311C95.797 49.9008 100 45.6985 100 40.5327V20.0195C100 14.8537 95.797 10.6506 90.6311 10.6506Z" fill="black"/>
</g>
<defs>
<clipPath id="clip0">
<rect width="100" height="100" fill="white"/>
</clipPath>
</defs>
</svg>
