<svg width="50" height="44" viewBox="0 0 50 44" fill="none" xmlns="http://www.w3.org/2000/svg">
<path d="M0.862903 21.3659L13.0903 27.4936C13.5633 27.7282 14.1216 27.7115 14.5737 27.4454L25.4574 21.083L18.8697 26.9531C18.5342 27.2527 18.3426 27.68 18.3426 28.1305V42.4285C18.3426 43.9369 20.2572 44.5716 21.1551 43.3733L26.4407 36.3071L39.5119 43.7923C40.4286 44.3223 41.6037 43.7902 41.8162 42.7365L49.9685 1.88489C50.2122 0.657247 48.9976 -0.34414 47.8684 0.11256L0.992073 18.4958C-0.266296 18.9902 -0.347548 20.7604 0.862903 21.3659ZM46.3434 4.08459L39.1786 39.9858L26.7928 32.8923C26.1178 32.5047 25.249 32.6765 24.7698 33.3134L21.4677 37.7274V28.8365L39.2828 12.9651C40.6932 11.7102 39.0723 9.47909 37.4619 10.4302L13.732 24.303L5.41512 20.1361L46.3434 4.08459Z" fill="black"/>
</svg>
