<svg width="132" height="132" viewBox="0 0 132 132" fill="none" xmlns="http://www.w3.org/2000/svg">
<path d="M66 34.3514L81.6736 21.2903H102.194V0H51.0968V21.2903H66V34.3514ZM55.3549 17.0323V4.25806H97.9355V17.0323H80.1329L70.2581 25.2615V17.0323H55.3549Z" fill="black"/>
<path d="M59.6129 8.51611H63.871V12.7742H59.6129V8.51611Z" fill="black"/>
<path d="M68.129 8.51611H85.1613V12.7742H68.129V8.51611Z" fill="black"/>
<path d="M89.4194 8.51611H93.6775V12.7742H89.4194V8.51611Z" fill="black"/>
<path d="M108.378 127.742L106.656 110.507C113.765 109.383 119.226 103.228 119.226 95.8065V68.1291H110.71V65.1871C110.71 62.293 109.119 59.6941 106.562 58.3613C109.105 56.0254 110.71 52.6853 110.71 48.9678V44.7097C110.71 37.6646 104.981 31.9355 97.9355 31.9355C90.8903 31.9355 85.1613 37.6646 85.1613 44.7097V48.9678C85.1613 54.4796 88.6761 59.1722 93.5776 60.9602L82.1507 72.3872H70.2113C69.9732 68.8381 67.5354 65.7443 64.082 64.7567L55.3548 62.2659V58.4632C57.961 56.1231 59.6129 52.7404 59.6129 48.9678V44.7097C59.6129 37.6646 53.8839 31.9355 46.8387 31.9355C39.7936 31.9355 34.0645 37.6646 34.0645 44.7097V48.9678C34.0645 52.7383 35.7164 56.1211 38.3226 58.4632V62.268L29.5954 64.7588C25.959 65.7953 23.4194 69.1635 23.4194 72.9475V80.9033H14.9032V93.6775H19.1613V127.742H0V132H132V127.742H108.378ZM89.4194 93.6775V83.9139L104.506 68.8277C105.596 67.7372 106.245 66.2724 106.39 64.7443C106.409 64.8929 106.452 65.0333 106.452 65.1871V91.5485C106.452 95.0695 103.586 97.9355 100.065 97.9355H83.0323V93.6775H89.4194ZM83.0323 110.71H93.8801L95.5829 127.742H83.0323V110.71ZM98.159 110.71H102.396L104.099 127.742H99.8618L98.159 110.71ZM110.71 91.5485V72.3872H114.968V95.8065C114.968 101.676 110.192 106.452 104.323 106.452H83.0323V102.194H100.065C105.934 102.194 110.71 97.4178 110.71 91.5485ZM89.4194 48.9678V44.7097C89.4194 40.013 93.2387 36.1936 97.9355 36.1936C102.632 36.1936 106.452 40.013 106.452 44.7097V48.9678C106.452 53.6646 102.632 57.4839 97.9355 57.4839C93.2387 57.4839 89.4194 53.6646 89.4194 48.9678ZM83.9138 76.6452L98.1185 62.4406C98.5634 61.9957 99.1788 61.742 99.8067 61.742C101.123 61.742 102.194 62.8128 102.194 64.1288C102.194 64.7567 101.94 65.3722 101.495 65.8171L86.4088 80.9033H63.871C62.6963 80.9033 61.7419 79.949 61.7419 78.7743C61.7419 77.5995 62.6963 76.6452 63.871 76.6452H83.9138ZM38.3226 44.7097C38.3226 40.013 42.1419 36.1936 46.8387 36.1936C51.5355 36.1936 55.3548 40.013 55.3548 44.7097V48.9678C55.3548 53.6646 51.5355 57.4839 46.8387 57.4839C42.1419 57.4839 38.3226 53.6646 38.3226 48.9678V44.7097ZM46.8387 61.742C48.3336 61.742 49.762 61.4696 51.0968 60.9966V63.2837C50.5687 64.0987 49.1018 66.0001 46.8387 66.0001C44.5756 66.0001 43.1087 64.0987 42.5806 63.2837V60.9966C43.9155 61.4696 45.3438 61.742 46.8387 61.742ZM27.6774 72.9475C27.6774 71.0544 28.9488 69.3724 30.7649 68.8526L39.5358 66.3473C40.7708 67.9565 43.1742 70.2581 46.8387 70.2581C50.5032 70.2581 52.9067 67.9565 54.1417 66.3452L62.9125 68.8506C64.5436 69.3173 65.6809 70.7353 65.9085 72.3851H63.871C60.35 72.3851 57.4839 75.2512 57.4839 78.7722C57.4839 79.5217 57.6367 80.2328 57.8758 80.9012H27.6774V72.9475ZM19.1613 85.1614H85.1613V89.4194H19.1613V85.1614ZM23.4194 102.194H29.8065V97.9355H23.4194V93.6775H78.7742V97.9355H34.0645V102.194H78.7742V127.742H73.7032L69.4451 119.226H32.7484L28.4904 127.742H23.4194V102.194ZM68.942 127.742H33.2516L35.3806 123.484H66.8129L68.942 127.742Z" fill="black"/>
</svg>
