<svg width="158" height="133" viewBox="0 0 158 133" fill="none" xmlns="http://www.w3.org/2000/svg">
<path d="M146.173 0H11.8302C5.30637 0 0 5.30637 0 11.8302V120.612C0 127.135 5.30637 132.441 11.8302 132.441H30.4869C31.7827 132.441 32.8339 131.391 32.8339 130.095C32.8339 128.799 31.7827 127.748 30.4869 127.748H11.8302C7.89445 127.748 4.69279 124.548 4.69279 120.612V30.3483H117.025C118.32 30.3483 119.37 29.2983 119.37 28.0025C119.37 26.7066 118.32 25.6555 117.025 25.6555H4.69279V11.8302C4.69279 7.89445 7.89445 4.69279 11.8302 4.69279H146.173C150.107 4.69279 153.307 7.89445 153.307 11.8302V25.6555H124.847C123.55 25.6555 122.5 26.7066 122.5 28.0025C122.5 29.2983 123.55 30.3483 124.847 30.3483H153.307V120.612C153.307 124.548 150.107 127.748 146.173 127.748H38.309C37.0132 127.748 35.962 128.799 35.962 130.095C35.962 131.391 37.0132 132.441 38.309 132.441H146.173C152.695 132.441 158 127.135 158 120.612V11.8302C158 5.30637 152.695 0 146.173 0Z" fill="black"/>
<path d="M10.3246 15.1741C10.3246 19.7464 14.0446 23.4651 18.6157 23.4651C23.1879 23.4651 26.9067 19.7464 26.9067 15.1741C26.9067 10.6019 23.1879 6.88306 18.6157 6.88306C14.0446 6.88306 10.3246 10.6031 10.3246 15.1741ZM22.2139 15.1741C22.2139 17.1583 20.5998 18.7724 18.6157 18.7724C16.6315 18.7724 15.0174 17.1583 15.0174 15.1741C15.0174 13.1899 16.6315 11.5759 18.6157 11.5759C20.5998 11.5759 22.2139 13.1899 22.2139 15.1741Z" fill="black"/>
<path d="M47.5572 15.1741C47.5572 19.7464 51.2772 23.4651 55.8482 23.4651C60.4205 23.4651 64.1393 19.7464 64.1393 15.1741C64.1393 10.6031 60.4205 6.88306 55.8482 6.88306C51.2772 6.88306 47.5572 10.6031 47.5572 15.1741ZM59.4465 15.1741C59.4465 17.1583 57.8324 18.7724 55.8482 18.7724C53.8641 18.7724 52.25 17.1583 52.25 15.1741C52.25 13.1899 53.8641 11.5759 55.8482 11.5759C57.8324 11.5759 59.4465 13.1899 59.4465 15.1741Z" fill="black"/>
<path d="M28.9415 15.1741C28.9415 19.7464 32.6603 23.4651 37.2326 23.4651C41.8036 23.4651 45.5236 19.7464 45.5236 15.1741C45.5236 10.6031 41.8036 6.88306 37.2326 6.88306C32.6603 6.88306 28.9415 10.6031 28.9415 15.1741ZM40.8308 15.1741C40.8308 17.1583 39.2167 18.7724 37.2326 18.7724C35.2484 18.7724 33.6343 17.1583 33.6343 15.1741C33.6343 13.1899 35.2484 11.5759 37.2326 11.5759C39.2167 11.5759 40.8308 13.1899 40.8308 15.1741Z" fill="black"/>
<path d="M54.1401 119.878V36.971C54.1401 35.6752 53.0902 34.624 51.7931 34.624H12.6837C11.3878 34.624 10.3367 35.6752 10.3367 36.971V119.878C10.3367 121.174 11.3878 122.224 12.6837 122.224H51.7931C53.0902 122.224 54.1401 121.174 54.1401 119.878ZM49.4473 117.531H15.0295V39.3168H49.4473V117.531Z" fill="black"/>
<path d="M62.4095 74.4989H145.316C146.613 74.4989 147.663 73.4478 147.663 72.1519V36.971C147.663 35.6752 146.613 34.624 145.316 34.624H62.4095C61.1136 34.624 60.0637 35.6752 60.0637 36.971V72.1519C60.0637 73.4478 61.1136 74.4989 62.4095 74.4989ZM64.7565 39.3168H142.971V69.8049H64.7565V39.3168Z" fill="black"/>
<path d="M60.0637 119.878C60.0637 121.174 61.1136 122.224 62.4095 122.224H145.316C146.613 122.224 147.663 121.174 147.663 119.878V84.6956C147.663 83.3998 146.613 82.3499 145.316 82.3499H62.4095C61.1136 82.3499 60.0637 83.3998 60.0637 84.6956V119.878ZM64.7565 87.0426H142.971V117.531H64.7565V87.0426Z" fill="black"/>
<path d="M22.3839 51.9872H42.0941C43.39 51.9872 44.4399 50.9373 44.4399 49.6414C44.4399 48.3456 43.39 47.2944 42.0941 47.2944H22.3839C21.088 47.2944 20.0369 48.3456 20.0369 49.6414C20.0369 50.9373 21.088 51.9872 22.3839 51.9872Z" fill="black"/>
<path d="M22.3839 66.1054H42.0941C43.39 66.1054 44.4399 65.0542 44.4399 63.7584C44.4399 62.4625 43.39 61.4114 42.0941 61.4114H22.3839C21.088 61.4114 20.0369 62.4625 20.0369 63.7584C20.0369 65.0542 21.088 66.1054 22.3839 66.1054Z" fill="black"/>
<path d="M22.3839 80.2223H42.0941C43.39 80.2223 44.4399 79.1712 44.4399 77.8753C44.4399 76.5795 43.39 75.5295 42.0941 75.5295H22.3839C21.088 75.5295 20.0369 76.5795 20.0369 77.8753C20.0369 79.1712 21.088 80.2223 22.3839 80.2223Z" fill="black"/>
<path d="M22.3839 94.3393H42.0941C43.39 94.3393 44.4399 93.2893 44.4399 91.9935C44.4399 90.6976 43.39 89.6465 42.0941 89.6465H22.3839C21.088 89.6465 20.0369 90.6976 20.0369 91.9935C20.0369 93.2893 21.088 94.3393 22.3839 94.3393Z" fill="black"/>
<path d="M22.3839 108.457H42.0941C43.39 108.457 44.4399 107.406 44.4399 106.11C44.4399 104.815 43.39 103.765 42.0941 103.765H22.3839C21.088 103.765 20.0369 104.815 20.0369 106.11C20.0369 107.406 21.088 108.457 22.3839 108.457Z" fill="black"/>
</svg>
