<svg width="100" height="100" viewBox="0 0 100 100" fill="none" xmlns="http://www.w3.org/2000/svg">
<path d="M5.34824 61.3442C5.675 62.23 6.18984 63.0272 6.84863 63.6806C8.0168 64.8487 9.62266 65.5739 11.3941 65.5739C13.1604 65.5739 14.7715 64.8487 15.9395 63.6806C17.1076 62.5126 17.8328 60.9015 17.8328 59.1353V55.5532C16.4766 55.6694 15.2861 55.3761 14.3561 54.9884C14.2729 55.3925 14.1789 55.7856 14.057 56.1731C13.5975 57.6679 12.8279 59.03 11.61 60.0099C10.3754 61.0065 8.73672 61.5823 6.56621 61.4714C6.17871 61.4548 5.77441 61.4106 5.34824 61.3442ZM43.2955 51.7497H56.1732V47.7024H46.2574C45.4436 47.7024 44.7016 48.0403 44.1646 48.5772C43.6275 49.1144 43.2955 49.8507 43.2955 50.6646V51.7497ZM56.173 54.6784H43.2953V59.1351C43.2953 60.9013 44.0205 62.5124 45.1887 63.6804C46.3566 64.8485 47.9678 65.5737 49.734 65.5737C51.5055 65.5737 53.1166 64.8485 54.2795 63.6804C55.4475 62.5124 56.1729 60.9013 56.1729 59.1351V54.6784H56.173ZM96.3127 64.4558C97.0988 64.871 97.7908 65.4358 98.3611 66.1056C99.3854 67.3126 100 68.8683 100 70.5567V80.4337C100 81.2421 99.3467 81.8952 98.5385 81.8952C97.7303 81.8952 97.0713 81.2419 97.0713 80.4337V70.5567C97.0713 69.5825 96.7168 68.6855 96.1301 67.9935C95.6096 67.3788 94.9064 66.9249 94.1037 66.7091C92.5592 67.8384 90.6598 68.5028 88.6115 68.5028C86.4912 68.5028 84.5311 67.7942 82.9531 66.5929C82.6543 66.6261 82.3662 66.7093 82.0895 66.8366C81.7129 67.0136 81.3697 67.2851 81.0928 67.6503L73.2254 78.07C72.9486 78.4354 72.5168 78.6569 72.0574 78.6569H61.9756C61.2281 78.6569 60.5527 78.9558 60.0656 79.4429C59.5783 79.9356 59.2738 80.611 59.2738 81.353C59.2738 82.1003 59.5783 82.7759 60.0656 83.263C60.5527 83.7501 61.2281 84.0548 61.9756 84.0548H74.0172C74.4992 84.0548 74.8699 84.005 75.3297 83.7724C76.1822 83.346 76.9795 82.0507 77.5607 81.2755L82.7707 74.3827C83.2578 73.7351 84.1713 73.6075 84.8189 74.0948C85.4611 74.5819 85.5885 75.5009 85.1014 76.1433L80.1463 82.7093V95.4763H97.0713V87.0663C97.0713 86.2579 97.7301 85.6048 98.5385 85.6048C99.3469 85.6048 100 86.2581 100 87.0663V96.9433C100 97.7517 99.3467 98.4048 98.5385 98.4048C66.1775 98.4048 33.8225 98.4048 1.46719 98.4048C0.658984 98.4048 0 97.7515 0 96.9433V87.0663C0 86.2579 0.658984 85.6048 1.46719 85.6048C2.27559 85.6048 2.92871 86.2581 2.92871 87.0663V95.4763H19.8594V82.7093L14.8988 76.1433C14.4117 75.5009 14.5391 74.5819 15.1869 74.0948C15.8291 73.6075 16.748 73.7349 17.2354 74.3827L22.3287 81.1261C22.7937 81.7405 23.259 82.3605 23.7238 82.9808C23.9895 83.3294 24.3162 83.5952 24.6762 83.7724C25.0803 83.9772 25.4568 84.0548 25.8998 84.0548H38.0301C38.7721 84.0548 39.4475 83.7501 39.94 83.263C40.4273 82.7759 40.7262 82.1003 40.7262 81.353C40.7262 80.611 40.4273 79.9356 39.94 79.4429C39.4475 78.9558 38.7721 78.6569 38.0301 78.6569H27.9428C27.4998 78.6569 27.0625 78.452 26.7748 78.07L18.9074 67.6503C18.4588 67.0579 17.7889 66.6761 17.0473 66.5929C15.4748 67.7888 13.515 68.5028 11.3945 68.5028C9.34609 68.5028 7.44141 67.8386 5.89687 66.7148C5.11074 66.9196 4.41309 67.3681 3.89258 67.9659C3.29453 68.6634 2.9291 69.5659 2.9291 70.5569V80.4339C2.9291 81.2423 2.27578 81.8954 1.46758 81.8954C0.659375 81.8954 0.000390625 81.2421 0.000390625 80.4339V70.5569C0.000390625 68.8462 0.637109 67.2685 1.6834 66.056C2.24824 65.4083 2.9291 64.8601 3.69316 64.456C2.60254 62.8892 2.02676 61.0399 2.02676 59.1355V50.6647C2.02676 49.0425 2.68555 47.5698 3.7541 46.5015C4.82285 45.4386 6.28984 44.7741 7.91191 44.7741H14.8711C16.4934 44.7741 17.966 45.4384 19.0344 46.5015C20.1031 47.57 20.7619 49.0427 20.7619 50.6647V59.1355C20.7619 61.0122 20.2027 62.7675 19.2447 64.2345C20.0365 64.6331 20.7062 65.1812 21.2434 65.8899L28.668 75.7226H34.5309V69.7821C34.5309 68.0991 35.4223 66.5765 36.8672 65.2864C37.9857 64.2899 39.4584 63.4206 41.0861 62.7343C40.6211 61.6214 40.3666 60.4089 40.3666 59.1355V53.2169V50.6646C40.3666 49.0423 41.0309 47.5696 42.0941 46.5013C43.1627 45.4384 44.6353 44.7739 46.2574 44.7739H57.6402C58.4488 44.7739 59.1076 45.4327 59.1076 46.2411V53.2171V59.1355C59.1076 60.3368 58.8752 61.4886 58.46 62.5515C60.2094 63.238 61.7928 64.1237 62.9889 65.1534C64.5223 66.4712 65.4691 68.0435 65.4691 69.7819V75.7224H71.332L78.7566 65.8897C79.3049 65.1698 79.9912 64.6163 80.7609 64.2399C79.7975 62.7673 79.2383 61.0122 79.2383 59.1353V50.6646C79.2383 49.0423 79.9027 47.5696 80.9658 46.5013C82.0344 45.4384 83.507 44.7739 85.1291 44.7739H92.0887C93.7107 44.7739 95.1836 45.4382 96.252 46.5013C97.3148 47.5698 97.9793 49.0425 97.9793 50.6646V59.1353C97.9791 61.0396 97.3979 62.8888 96.3127 64.4558ZM94.6518 61.3442C94.2311 61.4106 93.8213 61.4548 93.4338 61.4714C91.269 61.5821 89.6301 61.0063 88.3955 60.0099C87.1719 59.03 86.4023 57.6681 85.9428 56.1731C85.8264 55.7856 85.727 55.3925 85.6492 54.9884C84.7137 55.3759 83.5289 55.6692 82.167 55.5532V59.1353C82.167 60.9015 82.8922 62.5126 84.0604 63.6806C85.2283 64.8487 86.8396 65.5739 88.6113 65.5739C90.3773 65.5739 91.9887 64.8487 93.1568 63.6806C93.8104 63.0272 94.325 62.23 94.6518 61.3442ZM82.167 52.6188C84.1213 52.8956 85.5496 51.7606 85.8043 51.5392C86.0924 51.2956 86.3635 51.1462 86.7566 51.1294C87.565 51.0907 88.2459 51.7108 88.2846 52.519C88.3346 53.4714 88.4672 54.4349 88.7385 55.3149C89.0375 56.2948 89.508 57.1585 90.2225 57.7343C90.9256 58.2991 91.9168 58.6202 93.2953 58.5536C93.8268 58.5259 94.408 58.4431 95.0502 58.2989V50.6642C95.0502 49.8503 94.7125 49.114 94.1754 48.5769C93.6385 48.0399 92.902 47.702 92.0883 47.702H85.1289C84.315 47.702 83.5785 48.0399 83.0416 48.5769C82.5045 49.114 82.167 49.8503 82.167 50.6642V52.6188ZM17.833 52.6188V50.6644C17.833 49.8505 17.501 49.1142 16.9639 48.577C16.427 48.0401 15.685 47.7022 14.8711 47.7022H7.91152C7.10332 47.7022 6.36133 48.0401 5.82422 48.577C5.2873 49.1142 4.95508 49.8505 4.95508 50.6644V58.2991C5.5918 58.4431 6.17305 58.5261 6.70469 58.5538C8.0834 58.6204 9.07441 58.2991 9.77734 57.7345C10.4916 57.1589 10.9621 56.295 11.2668 55.3151C11.5381 54.4349 11.6709 53.4716 11.7152 52.5192C11.7539 51.7108 12.4404 51.0909 13.2432 51.1296C13.6197 51.1464 13.9074 51.2847 14.1844 51.5282C14.3895 51.7108 15.84 52.9011 17.833 52.6188ZM42.6533 65.253C41.125 65.8454 39.7742 66.5983 38.8107 67.4622C37.9748 68.204 37.4598 69.0013 37.4598 69.7819V75.7224H38.0301C39.5805 75.7224 40.9922 76.3534 42.0109 77.3722C43.0297 78.3909 43.6607 79.7972 43.6607 81.353C43.6607 82.3329 43.4061 83.2521 42.9688 84.0548H57.0312C56.5939 83.2521 56.3447 82.3329 56.3447 81.353C56.3447 79.7972 56.9758 78.3909 57.9947 77.3722C59.0135 76.3534 60.4195 75.7224 61.9754 75.7224H62.5402V69.7819C62.5402 68.9735 61.9865 68.1431 61.0896 67.3735C60.0377 66.4712 58.576 65.6905 56.9482 65.0981C56.76 65.3251 56.5607 65.5466 56.3559 65.7515C54.6562 67.4511 52.3143 68.503 49.7344 68.503C47.1598 68.503 44.8125 67.4511 43.1184 65.7515C42.9576 65.5905 42.8025 65.4247 42.6533 65.253ZM12.208 12.4409C11.3996 12.4409 10.7465 11.7821 10.7465 10.9737C10.7465 10.1653 11.3998 9.51221 12.208 9.51221H39.3256C40.134 9.51221 40.7873 10.1655 40.7873 10.9737C40.7873 11.7821 40.1338 12.4409 39.3256 12.4409H12.208ZM12.208 27.8544C11.3996 27.8544 10.7465 27.1956 10.7465 26.3872C10.7465 25.5788 11.3998 24.92 12.208 24.92H25.767C26.5754 24.92 27.2342 25.5788 27.2342 26.3872C27.2342 27.1956 26.5754 27.8544 25.767 27.8544H12.208ZM12.208 20.1478C11.3996 20.1478 10.7465 19.4888 10.7465 18.6806C10.7465 17.8722 11.3998 17.219 12.208 17.219H39.3256C40.134 17.219 40.7873 17.8724 40.7873 18.6806C40.7873 19.4888 40.1338 20.1478 39.3256 20.1478H12.208ZM40.826 35.7659C41.0309 36.3362 41.3574 36.8454 41.7729 37.2606C42.5148 38.0081 43.5445 38.4731 44.6904 38.4731H53.2996C54.108 38.4731 54.7611 39.1265 54.7611 39.9403C54.7611 40.7487 54.1078 41.4019 53.2996 41.4019H44.6904C42.7361 41.4019 40.9754 40.6048 39.702 39.3202C38.7498 38.3626 38.0742 37.1335 37.7863 35.7659H17.3625L10.7299 42.3985C10.4643 42.6644 10.0988 42.8304 9.68906 42.8304C8.88066 42.8304 8.22188 42.177 8.22188 41.3688V35.6442C6.36152 35.3341 4.69492 34.4429 3.41621 33.1583C1.80508 31.5526 0.808594 29.3325 0.808594 26.8854V10.4757C0.808594 8.03408 1.80527 5.81396 3.41621 4.20303C5.02168 2.59736 7.2418 1.59521 9.68906 1.59521H41.8451C44.292 1.59521 46.5123 2.59736 48.1178 4.20303C49.7289 5.81396 50.7254 8.03408 50.7254 10.4757V13.1886H75.6066C77.5498 13.1886 79.3105 13.9804 80.5895 15.2593C81.8684 16.5382 82.6602 18.2987 82.6602 20.2421V34.3489C82.6602 36.2923 81.8684 38.0528 80.5895 39.3317C79.6426 40.2786 78.4248 40.9595 77.0684 41.2476V47.0054C77.0684 47.3763 76.9299 47.7526 76.642 48.0407C76.0717 48.6108 75.1416 48.6108 74.5711 48.0407L67.933 41.4024H59.9328C59.1244 41.4024 58.4656 40.7491 58.4656 39.9409C58.4656 39.127 59.1244 38.4737 59.9328 38.4737H68.542C68.9518 38.4737 69.317 38.6399 69.5828 38.911L74.1393 43.4675V39.9407C74.1393 39.1269 74.798 38.4735 75.6066 38.4735C76.7359 38.4735 77.7713 38.0085 78.5187 37.261C79.2662 36.5138 79.7312 35.4839 79.7312 34.3489V20.2421C79.7312 19.1071 79.2662 18.0774 78.5187 17.33C77.7713 16.5825 76.7359 16.1175 75.6066 16.1175H50.7252V26.8858C50.7252 29.3329 49.7287 31.553 48.1176 33.1587C46.5119 34.7696 44.2918 35.7663 41.8449 35.7663H40.826V35.7659ZM16.7533 32.8372H41.8449C43.4838 32.8372 44.9674 32.1673 46.0471 31.0878C47.1266 30.0081 47.7965 28.5188 47.7965 26.8854V10.4757C47.7965 8.84248 47.1266 7.35322 46.0471 6.27353C44.9676 5.19385 43.4838 4.52393 41.8449 4.52393H9.68887C8.05 4.52393 6.56621 5.19385 5.48652 6.27353C4.40703 7.35303 3.73691 8.84228 3.73691 10.4757V26.8856C3.73691 28.5188 4.40703 30.0081 5.48652 31.088C6.56602 32.1675 8.05 32.8374 9.68887 32.8374C10.4973 32.8374 11.1504 33.4962 11.1504 34.3046V37.8313L15.718 33.2694C16.0061 32.9812 16.377 32.8372 16.7533 32.8372ZM77.2174 86.9833H22.7883V95.4761H77.2176V86.9833H77.2174Z" fill="black"/>
</svg>
