<svg width="93" height="93" viewBox="0 0 93 93" fill="none" xmlns="http://www.w3.org/2000/svg">
<path d="M10.85 52.6997H17.0501V63.5503C17.0501 64.4059 17.7441 65.0999 18.6002 65.0999C19.0114 65.0999 19.4053 64.9364 19.6958 64.6459L31.642 52.6997H34.1001V49.6H31.0004C30.5892 49.6 30.1947 49.7634 29.9042 50.0539L20.1498 59.8083V51.1502C20.1498 50.294 19.4564 49.6 18.6002 49.6H10.85C6.57166 49.5949 3.10547 46.128 3.10036 41.8497V10.85C3.10547 6.57166 6.5723 3.10483 10.85 3.09972H60.4506C64.7283 3.10483 68.1951 6.57166 68.2002 10.85V34.1001H71.3006V10.85C71.2935 4.86059 66.44 0.00638467 60.45 0H10.85C4.86059 0.00638467 0.00702306 4.86059 0 10.85V41.8497C0.00702306 47.8391 4.86059 52.6933 10.85 52.6997Z" fill="white"/>
<path d="M82.1506 37.2H48.0504C42.0604 37.207 37.2069 42.0605 37.1998 48.0499V69.7499C37.2069 75.7399 42.0604 80.5935 48.0504 80.6005H64.4588L76.4044 92.5461C77.0103 93.1513 77.9916 93.1513 78.5969 92.5461C78.8874 92.2556 79.0502 91.861 79.0502 91.4505V80.6005H82.1506C88.1399 80.5935 92.9935 75.7399 93.0005 69.7499V48.0499C92.9935 42.0605 88.1399 37.207 82.1506 37.2ZM89.9008 69.7499C89.8957 74.0282 86.4289 77.495 82.1506 77.5001H77.5007C76.6445 77.5001 75.9505 78.1941 75.9505 79.0503V87.7085L66.1961 77.9541C65.9056 77.6636 65.5117 77.5001 65.1005 77.5001H48.0504C43.7721 77.495 40.3053 74.0282 40.3002 69.7499V48.0499C40.3053 43.7723 43.7721 40.3054 48.0504 40.3003H82.1506C86.4289 40.3048 89.8951 43.7723 89.9002 48.0499V69.7499H89.9008Z" fill="white"/>
<path d="M12.4001 12.4001H43.4005V15.4999H12.4001V12.4001Z" fill="white"/>
<path d="M49.5999 12.4001H58.9003V15.4999H49.5999V12.4001Z" fill="white"/>
<path d="M12.4001 21.7H58.9004V24.7997H12.4001V21.7Z" fill="white"/>
<path d="M34.1002 30.9998H58.9005V34.1001H34.1002V30.9998Z" fill="white"/>
<path d="M12.4001 30.9998H27.9V34.1001H12.4001V30.9998Z" fill="white"/>
<path d="M12.4001 40.3003H34.1001V43.4H12.4001V40.3003Z" fill="white"/>
<path d="M46.5004 48.0498H68.2003V51.1502H46.5004V48.0498Z" fill="white"/>
<path d="M74.4003 48.0498H83.7007V51.1502H74.4003V48.0498Z" fill="white"/>
<path d="M46.5004 57.3503H83.7002V60.4501H46.5004V57.3503Z" fill="white"/>
<path d="M46.5004 66.6501H83.7002V69.7499H46.5004V66.6501Z" fill="white"/>
</svg>
