<svg width="100" height="100" viewBox="0 0 100 100" fill="none" xmlns="http://www.w3.org/2000/svg">
<path d="M93.0082 36.8064C88.3825 32.1319 81.79 29.5585 74.4444 29.5585C70.1407 29.5585 66.0041 30.6243 62.2969 32.6591V9.58555C62.2969 4.29992 57.9963 0 52.7106 0H9.58632C4.29992 0 0 4.30068 0 9.58555V37.0635C0 42.3492 4.30068 46.6498 9.58632 46.6498H26.6883L40.3731 57.3958C40.7256 57.6728 41.1513 57.8124 41.5794 57.8124C41.9479 57.8124 42.3179 57.7086 42.6421 57.4981C43.3425 57.0441 43.6767 56.195 43.4737 55.3847L41.2841 46.6498H50.4462C49.5223 49.3064 49.0554 52.0865 49.0554 54.9491V82.7795C49.0554 93.5621 53.9 99.9998 62.0146 99.9998C73.7723 99.9998 77.674 91.7448 80.004 86.8139L80.0619 86.6911C82.6742 81.1659 86.064 78.7978 89.3438 76.5059C94.6615 72.7896 99.6847 69.2793 99.835 54.9682C99.9105 47.6745 97.55 41.394 93.0082 36.8064ZM38.7809 42.7436C38.1797 42.7436 37.6113 43.0205 37.2413 43.4951C36.8713 43.9689 36.74 44.5876 36.8865 45.1713L38.2972 50.7987L28.5697 43.1602C28.2249 42.8901 27.8007 42.7436 27.3628 42.7436H9.58555C6.45369 42.7436 3.90624 40.1954 3.90624 37.0635V9.58555C3.90624 6.45445 6.45369 3.90624 9.58555 3.90624H52.7106C55.8425 3.90624 58.3907 6.45445 58.3907 9.58555V37.0635C58.3907 40.1954 55.8425 42.7436 52.7106 42.7436H38.7809ZM95.9288 54.927C95.7998 67.2293 91.963 69.9103 87.1046 73.3054C83.7553 75.6453 79.5859 78.5582 76.5311 85.0195L76.4731 85.1431C74.2888 89.7642 71.2981 96.0936 62.0139 96.0936C54.1373 96.0936 52.9616 87.7516 52.9616 82.7795V54.9491C52.9616 51.9843 53.5544 49.1248 54.7217 46.4355C58.9888 45.5207 62.2092 41.7586 62.2924 37.2428C65.8782 34.7686 70.0598 33.4647 74.4444 33.4647C80.7387 33.4647 86.3455 35.6269 90.2319 39.5545C94.0237 43.3845 95.9936 48.7006 95.9288 54.927Z" fill="black"/>
<path d="M83.1703 51.654C83.657 52.6168 84.8312 53.0028 85.794 52.5168C86.7576 52.0301 87.1429 50.8552 86.6569 49.8923C85.9901 48.5732 85.1287 47.3762 84.098 46.3347C81.2271 43.4341 77.1385 41.8357 72.5837 41.8357C68.4417 41.8357 64.3463 43.8758 61.3472 47.4319C58.4365 50.8819 57.0953 55.2604 57.7598 59.146C58.0078 60.591 59.3841 61.2205 60.9794 61.9491C62.8273 62.7921 64.9215 63.7473 65.9973 66.2223C67.3324 69.2954 66.7221 71.8146 63.5772 76.2069C62.9493 77.0835 63.1515 78.3034 64.0281 78.9321C64.373 79.1785 64.7705 79.2968 65.1634 79.2968C65.7722 79.2968 66.3719 79.0137 66.7533 78.4804C70.0523 73.8738 71.7948 69.7616 69.5793 64.6651C67.9069 60.8153 64.7132 59.3589 62.6014 58.3953C62.2955 58.2557 61.8469 58.0512 61.531 57.8834C61.2899 55.2672 62.3123 52.3459 64.3333 49.9503C66.5885 47.2762 69.5961 45.7419 72.5837 45.7419C76.0871 45.7419 79.19 46.9283 81.3217 49.0836C82.0655 49.8344 82.6881 50.6995 83.1703 51.654Z" fill="black"/>
<path d="M85.4003 55.7656C84.3215 55.7656 83.4472 56.6407 83.4472 57.7188C83.4472 61.9561 82.7674 65.2528 79.4502 67.5706C78.5659 68.1886 78.35 69.4062 78.968 70.2905C79.3472 70.8337 79.9537 71.1251 80.5702 71.1251C80.957 71.1251 81.3468 71.0107 81.6871 70.7726C86.6798 67.2845 87.3535 62.2163 87.3535 57.7188C87.3535 56.6407 86.4791 55.7656 85.4003 55.7656Z" fill="black"/>
<path d="M13.7009 14.8438H50C51.0788 14.8438 51.9531 13.9694 51.9531 12.8906C51.9531 11.8118 51.0788 10.9375 50 10.9375H13.7009C12.6221 10.9375 11.7477 11.8118 11.7477 12.8906C11.7477 13.9694 12.6221 14.8438 13.7009 14.8438Z" fill="black"/>
<path d="M50.0007 21.875C49.485 21.875 48.983 22.084 48.6198 22.4472C48.2567 22.8104 48.0476 23.3124 48.0476 23.8281C48.0476 24.3416 48.2567 24.8459 48.6198 25.209C48.983 25.5722 49.485 25.7812 50.0007 25.7812C50.5142 25.7812 51.0185 25.5722 51.3816 25.209C51.7448 24.8459 51.9539 24.3416 51.9539 23.8281C51.9539 23.3147 51.7448 22.8104 51.3816 22.4472C51.0185 22.084 50.5142 21.875 50.0007 21.875Z" fill="black"/>
<path d="M13.7009 25.7812H42.1875C43.2663 25.7812 44.1406 24.9069 44.1406 23.8281C44.1406 22.7493 43.2663 21.875 42.1875 21.875H13.7009C12.6221 21.875 11.7477 22.7493 11.7477 23.8281C11.7477 24.9069 12.6221 25.7812 13.7009 25.7812Z" fill="black"/>
<path d="M50 32.8125H21.4844C20.4056 32.8125 19.5312 33.6868 19.5312 34.7656C19.5312 35.8444 20.4056 36.7188 21.4844 36.7188H50C51.0788 36.7188 51.9531 35.8444 51.9531 34.7656C51.9531 33.6868 51.0788 32.8125 50 32.8125Z" fill="black"/>
<path d="M13.8359 32.8125H13.6719C12.5931 32.8125 11.7188 33.6868 11.7188 34.7656C11.7188 35.8444 12.5931 36.7188 13.6719 36.7188H13.8359C14.9139 36.7188 15.789 35.8444 15.789 34.7656C15.789 33.6868 14.9139 32.8125 13.8359 32.8125Z" fill="black"/>
</svg>
