<svg width="129" height="129" viewBox="0 0 129 129" fill="none" xmlns="http://www.w3.org/2000/svg">
<path d="M104.894 30.2947C103.85 30.2947 103.004 31.1407 103.004 32.1843V117.012C103.004 117.084 102.946 117.142 102.874 117.142H36.2244C35.1808 117.142 34.3347 117.988 34.3347 119.032C34.3347 120.076 35.1808 120.922 36.2244 120.922H102.874C105.03 120.922 106.783 119.168 106.783 117.012V32.1843C106.783 31.1407 105.937 30.2947 104.894 30.2947Z" fill="black"/>
<path d="M110.953 8.07864H93.5582L87.2163 1.73672C86.0963 0.616782 84.6075 0 83.0238 0H18.0469C15.8912 0 14.1376 1.7536 14.1376 3.90931V117.012C14.1376 119.168 15.8912 120.921 18.0469 120.921H22.2163V125.091C22.2163 127.246 23.9699 129 26.1256 129H110.953C113.109 129 114.862 127.246 114.862 125.091V11.9882C114.862 9.83249 113.109 8.07864 110.953 8.07864ZM84.5667 4.43186L102.351 22.2165H84.6967C84.6249 22.2165 84.5667 22.1583 84.5667 22.0865V4.43186ZM111.083 125.091C111.083 125.163 111.025 125.221 110.953 125.221H26.1256C26.0538 125.221 25.9956 125.163 25.9956 125.091V120.922H28.1447C29.1883 120.922 30.0344 120.076 30.0344 119.032C30.0344 117.988 29.1883 117.142 28.1447 117.142H18.0469C17.9751 117.142 17.9169 117.084 17.9169 117.012V3.90931C17.9169 3.83751 17.9751 3.7793 18.0469 3.7793H80.7874V22.0865C80.7874 24.2422 82.541 25.9958 84.6967 25.9958H104.894C105.937 25.9958 106.783 25.1498 106.783 24.1062V23.7597C106.783 22.1762 106.167 20.6872 105.047 19.5672L97.3375 11.8579H110.953C111.025 11.8579 111.083 11.9161 111.083 11.988V125.091Z" fill="black"/>
<path d="M51.6981 21.5872C50.9602 20.8492 49.7636 20.8492 49.0259 21.5872L38.3358 32.2773C38.2849 32.328 38.2025 32.328 38.1519 32.2773L33.8903 28.0158H37.1707C38.2143 28.0158 39.0604 27.1697 39.0604 26.1261C39.0604 25.0825 38.2143 24.2365 37.1707 24.2365H32.1846C31.5804 24.2365 31.01 24.3783 30.4985 24.6242L29.4814 23.6071C28.7434 22.8691 27.5469 22.8691 26.8092 23.6071C26.0712 24.3451 26.0712 25.5416 26.8092 26.2793L28.2947 27.7648C28.2826 27.89 28.2755 28.017 28.2755 28.1455V40.2637C28.2755 42.4194 30.0291 44.173 32.1848 44.173H44.3031C46.4588 44.173 48.2124 42.4194 48.2124 40.2637V27.7452L51.6981 24.2594C52.4361 23.5214 52.4361 22.3249 51.6981 21.5872ZM44.4331 40.264C44.4331 40.3358 44.3749 40.394 44.3031 40.394H32.1848C32.113 40.394 32.0548 40.3358 32.0548 40.264V31.5245L35.4796 34.9493C36.2418 35.7114 37.2428 36.0926 38.2441 36.0926C39.2451 36.0926 40.2461 35.7114 41.0083 34.9493L44.4331 31.5245V40.264Z" fill="black"/>
<path d="M44.303 50.4922H32.1848C30.0291 50.4922 28.2755 52.2458 28.2755 54.4015V66.5197C28.2755 68.6754 30.0291 70.429 32.1848 70.429H44.303C46.4587 70.429 48.2123 68.6754 48.2123 66.5197V54.4015C48.2123 52.246 46.4587 50.4922 44.303 50.4922ZM44.433 66.5197C44.433 66.5915 44.3748 66.6497 44.303 66.6497H32.1848C32.113 66.6497 32.0548 66.5915 32.0548 66.5197V54.4015C32.0548 54.3297 32.113 54.2715 32.1848 54.2715H44.303C44.3748 54.2715 44.433 54.3297 44.433 54.4015V66.5197Z" fill="black"/>
<path d="M44.303 76.7483H32.1848C30.0291 76.7483 28.2755 78.5019 28.2755 80.6576V92.7758C28.2755 94.9315 30.0291 96.6851 32.1848 96.6851H44.303C46.4587 96.6851 48.2123 94.9313 48.2123 92.7758V80.6576C48.2123 78.5019 46.4587 76.7483 44.303 76.7483ZM44.433 92.7758C44.433 92.8476 44.3748 92.9058 44.303 92.9058H32.1848C32.113 92.9058 32.0548 92.8474 32.0548 92.7758V80.6576C32.0548 80.5858 32.113 80.5276 32.1848 80.5276H44.303C44.3748 80.5276 44.433 80.5858 44.433 80.6576V92.7758Z" fill="black"/>
<path d="M74.5984 28.2756H56.4212C55.3776 28.2756 54.5316 29.1217 54.5316 30.1653C54.5316 31.2089 55.3774 32.0549 56.4212 32.0549H74.5984C75.642 32.0549 76.4881 31.2089 76.4881 30.1653C76.4881 29.1217 75.642 28.2756 74.5984 28.2756Z" fill="black"/>
<path d="M90.7559 36.3547H56.4212C55.3776 36.3547 54.5316 37.2008 54.5316 38.2444C54.5316 39.288 55.3774 40.134 56.4212 40.134H90.7559C91.7995 40.134 92.6456 39.288 92.6456 38.2444C92.6456 37.2008 91.7998 36.3547 90.7559 36.3547Z" fill="black"/>
<path d="M74.5984 54.5317H56.4212C55.3776 54.5317 54.5316 55.3778 54.5316 56.4214C54.5316 57.465 55.3774 58.311 56.4212 58.311H74.5984C75.642 58.311 76.4881 57.465 76.4881 56.4214C76.4881 55.3778 75.642 54.5317 74.5984 54.5317Z" fill="black"/>
<path d="M90.7559 62.6104H56.4212C55.3776 62.6104 54.5316 63.4564 54.5316 64.5C54.5316 65.5436 55.3774 66.3897 56.4212 66.3897H90.7559C91.7995 66.3897 92.6456 65.5436 92.6456 64.5C92.6456 63.4564 91.7998 62.6104 90.7559 62.6104Z" fill="black"/>
<path d="M74.5984 80.7876H56.4212C55.3776 80.7876 54.5316 81.6337 54.5316 82.6773C54.5316 83.7208 55.3774 84.5669 56.4212 84.5669H74.5984C75.642 84.5669 76.4881 83.7208 76.4881 82.6773C76.4881 81.6337 75.642 80.7876 74.5984 80.7876Z" fill="black"/>
<path d="M90.7559 88.8662H56.4212C55.3776 88.8662 54.5316 89.7123 54.5316 90.7559C54.5316 91.7995 55.3774 92.6455 56.4212 92.6455H90.7559C91.7995 92.6455 92.6456 91.7995 92.6456 90.7559C92.6456 89.7123 91.7998 88.8662 90.7559 88.8662Z" fill="black"/>
</svg>
