<svg width="98" height="98" viewBox="0 0 98 98" fill="none" xmlns="http://www.w3.org/2000/svg">
<path d="M5.13071 80.2855C4.64564 80.4375 0.393205 82.0123 0.00191606 90.687V94.0938C-0.0260038 94.8508 0.252161 95.5871 0.773617 96.1365C1.29507 96.686 2.01586 97.0022 2.77327 97.0139H58.6499C59.4028 97.0025 60.1198 96.6899 60.6406 96.1461C61.1614 95.6022 61.4426 94.8723 61.4213 94.1196V90.6142C61.03 82.0123 56.7759 80.4375 56.3345 80.2984L40.413 74.8382V69.0416C42.2319 67.4667 43.5374 65.3829 44.1609 63.0591H47.5758C49.8697 63.0564 51.7285 61.1975 51.7312 58.9037V51.0456C51.7271 49.7657 51.1299 48.56 50.1143 47.781V40.2932C50.1143 30.2264 41.7728 22.6367 30.7116 22.6367C19.6504 22.6367 11.3089 30.2264 11.3089 40.2932V47.781C10.2933 48.56 9.69614 49.7657 9.69197 51.0456V58.9037C9.69614 60.1836 10.2933 61.3892 11.3089 62.1682V63.0591C11.3089 66.631 14.2045 69.5267 17.7764 69.5267H21.0102V74.8398L5.13071 80.2855ZM58.1875 90.687V93.7801H3.23409V90.7597C3.52028 84.4781 6.1445 83.3592 6.1445 83.3592L21.5551 78.0736C23.0004 81.8344 26.6864 84.2517 30.7116 84.0787C34.7392 84.2546 38.4285 81.8367 39.8745 78.0736L55.2706 83.3527C55.2981 83.364 57.9029 84.4781 58.1875 90.687ZM13.8474 59.8253C13.6023 59.8275 13.3666 59.7311 13.1933 59.5578C13.02 59.3844 12.9236 59.1488 12.9258 58.9037V51.0456C12.9236 50.8005 13.02 50.5648 13.1933 50.3915C13.3666 50.2182 13.6023 50.1217 13.8474 50.1239H16.2145C16.2275 50.9017 16.5993 53.1459 16.7238 53.8525C17.0978 55.8205 17.1871 57.8319 16.989 59.8253H13.8474ZM14.5427 43.8342C14.8353 42.5649 17.605 32.3381 30.7116 32.3381C43.844 32.3381 46.5976 42.6038 46.8805 43.8358V46.8901H45.0405C45.0227 46.7964 45.0227 46.7026 45.0033 46.6088C43.8181 40.9286 41.3685 39.1711 41.0921 38.9916C37.5187 36.6099 23.9077 36.6067 20.3311 38.9916C20.0546 39.1743 17.605 40.9319 16.4199 46.6072C16.4005 46.701 16.4005 46.7964 16.3827 46.8901H14.5427V43.8342ZM24.244 73.5964C25.2774 75.13 27.0194 76.0333 28.8683 75.9942C32.833 75.9942 34.9204 76.5278 37.1792 73.5964V75.8471C36.5902 78.9045 33.8187 81.0462 30.7116 80.8449C27.6048 81.047 24.8331 78.9058 24.244 75.8487V73.5964ZM38.83 66.0099C35.171 69.5897 35.0449 72.7605 32.5549 72.7605C27.1043 72.7605 27.8659 73.3183 25.4049 69.5267H30.7116C31.6046 69.5267 32.3285 68.8028 32.3285 67.9098C32.3285 67.0168 31.6046 66.2929 30.7116 66.2929H22.8583C19.6957 63.0478 20.2471 61.7041 20.2988 56.8987C20.3214 54.7563 19.6714 52.5557 19.4338 49.8765C19.2909 46.9254 20.2304 44.0235 22.0758 41.7161C25.662 39.9795 35.7385 39.9811 39.3313 41.7161C41.1912 44.019 42.137 46.9266 41.9878 49.883C41.7323 52.7158 41.1001 54.5882 41.1244 56.9003C41.1681 61.0234 41.7291 63.1917 38.83 66.0099ZM48.4974 58.9037C48.4996 59.1488 48.4032 59.3844 48.2299 59.5578C48.0566 59.7311 47.8209 59.8275 47.5758 59.8253H44.4342C44.2365 57.8319 44.3258 55.8205 44.6993 53.8525C44.932 52.619 45.102 51.3746 45.2087 50.1239H47.5758C47.8209 50.1217 48.0566 50.2182 48.2299 50.3915C48.4032 50.5648 48.4996 50.8005 48.4974 51.0456V58.9037ZM46.1352 35.7142C43.2927 32.3381 38.5503 29.1043 30.7116 29.1043C22.8729 29.1043 18.1305 32.3381 15.288 35.7142C19.7474 22.5559 41.6774 22.5575 46.1352 35.7142ZM14.5427 63.0591H17.2623C17.5208 64.2149 17.9941 65.3118 18.6576 66.2929H17.7764C15.9905 66.2929 14.5427 64.8451 14.5427 63.0591Z" fill="white"/>
<path d="M92.0419 0H58.3103C55.5712 0.00356305 53.3516 2.22315 53.348 4.96225V38.6939C53.3508 41.3901 55.5033 43.5921 58.1987 43.6562V50.9031C58.1978 51.8398 58.7305 52.6953 59.5715 53.1078C60.4126 53.5202 61.4152 53.4176 62.1552 52.8433L74.1542 43.6562H92.0419C94.781 43.6526 97.0006 41.433 97.0042 38.6939V4.96225C97.0006 2.22315 94.781 0.00356305 92.0419 0V0ZM93.7704 38.6939C93.7695 39.6481 92.9962 40.4215 92.0419 40.4224H67.9001C67.0071 40.4224 66.2832 41.1463 66.2832 42.0393C66.2832 42.9322 67.0071 43.6562 67.9001 43.6562H68.8346L61.4325 49.3153V43.6562C62.3255 43.6562 63.0494 42.9322 63.0494 42.0393C63.0494 41.1463 62.3255 40.4224 61.4325 40.4224H58.3103C57.356 40.4215 56.5827 39.6481 56.5818 38.6939V4.96225C56.5827 4.00802 57.356 3.23468 58.3103 3.23379H92.0419C92.9962 3.23468 93.7695 4.00802 93.7704 4.96225V38.6939Z" fill="white"/>
<path d="M85.6861 27.4871H64.6665C63.7735 27.4871 63.0496 28.211 63.0496 29.104C63.0496 29.9969 63.7735 30.7208 64.6665 30.7208H85.6861C86.5791 30.7208 87.303 29.9969 87.303 29.104C87.303 28.211 86.5791 27.4871 85.6861 27.4871Z" fill="white"/>
<path d="M79.2185 33.9548H64.6665C63.7735 33.9548 63.0496 34.6787 63.0496 35.5717C63.0496 36.4647 63.7735 37.1886 64.6665 37.1886H79.2185C80.1115 37.1886 80.8354 36.4647 80.8354 35.5717C80.8354 34.6787 80.1115 33.9548 79.2185 33.9548Z" fill="white"/>
<path d="M74.3677 24.2536C75.2607 24.2536 75.9846 23.5297 75.9846 22.6367C75.9846 21.7437 75.2607 21.0198 74.3677 21.0198C73.4748 21.0198 72.7509 21.7437 72.7509 22.6367C72.7509 23.5297 73.4748 24.2536 74.3677 24.2536Z" fill="white"/>
<path d="M70.7572 11.1C71.5301 11.5467 72.5188 11.2825 72.9659 10.5098C73.3581 9.83042 74.1814 9.53061 74.9186 9.79868C75.6559 10.0667 76.0944 10.8253 75.9586 11.598C75.8229 12.3706 75.1522 12.9344 74.3677 12.9351C73.4747 12.9351 72.7508 13.659 72.7508 14.552V16.1689C72.7508 17.0619 73.4747 17.7858 74.3677 17.7858C75.2607 17.7858 75.9846 17.0619 75.9846 16.1689V15.8924C78.0087 15.1745 79.3198 13.211 79.2071 11.0663C79.0944 8.92157 77.5848 7.10626 75.4966 6.6044C73.4084 6.10254 71.2388 7.0336 70.1638 8.8929C69.7187 9.66629 69.9843 10.654 70.7572 11.1Z" fill="white"/>
</svg>
