<svg width="87" height="84" viewBox="0 0 87 84" fill="none" xmlns="http://www.w3.org/2000/svg">
<path d="M87 49.8437C87 47.6651 86.1336 45.6351 84.6401 44.1379C86.3331 42.2856 87.1958 39.8023 86.9601 37.2178C86.5359 32.6104 82.3853 28.9999 77.5061 28.9999H55.1145C56.2237 25.6322 57.9999 19.4589 57.9999 14.4999C57.9999 6.63732 51.3191 0 47.1249 0C43.3622 0 40.6688 2.12063 40.5564 2.20762C40.125 2.55206 39.8749 3.07406 39.8749 3.62494V15.9173L29.4313 38.5337L28.9999 38.7548V38.0623C28.9999 37.0618 28.1878 36.2498 27.1873 36.2498H9.06244C4.06368 36.2499 0 40.3136 0 45.3124V74.3124C0 79.3114 4.06368 83.3749 9.06244 83.3749H19.9374C23.856 83.3749 27.2055 80.8736 28.467 77.3828C31.4831 78.9343 35.5431 79.7499 38.0625 79.7499H71.3364C75.2841 79.7499 78.7387 77.0891 79.5506 73.4207C79.9674 71.5284 79.7246 69.6253 78.8981 67.9723C81.5734 66.6274 83.3751 63.8616 83.3751 60.7187C83.3751 59.4354 83.0814 58.2066 82.5268 57.0973C85.2021 55.7488 87 52.9866 87 49.8437ZM79.3549 54.3169C78.6553 54.4003 78.0643 54.8751 77.8397 55.5458C77.6186 56.2164 77.8035 56.9522 78.3182 57.438C79.239 58.3044 79.7501 59.4716 79.7501 60.7187C79.7501 63.006 78.021 64.9273 75.7337 65.1919C75.0341 65.2753 74.4431 65.7501 74.2185 66.4208C73.9974 67.0914 74.1823 67.8272 74.697 68.313C75.8897 69.4367 76.3682 71.0136 76.0093 72.6377C75.5634 74.6604 73.5986 76.125 71.3366 76.125H38.0625C35.1189 76.125 30.1817 74.7439 28.4708 73.0292C27.9523 72.5145 27.1693 72.3622 26.4951 72.6377C25.8173 72.9169 25.3749 73.5802 25.3749 74.3124C25.3749 77.3104 22.9354 79.7499 19.9374 79.7499H9.06244C6.06451 79.7499 3.62494 77.3104 3.62494 74.3124V45.3124C3.62494 42.3145 6.06451 39.8749 9.06244 39.8749H25.3749V41.6874C25.3749 42.3146 25.7012 42.8981 26.2376 43.2317C26.7669 43.5506 27.4339 43.5833 27.9994 43.3078L31.6243 41.4953C31.9905 41.3139 32.2841 41.0094 32.4581 40.6361L43.3331 17.0736C43.4419 16.8343 43.4998 16.5733 43.4998 16.3123V4.60726C44.2539 4.19044 45.5627 3.62494 47.1249 3.62494C49.1115 3.62494 54.375 8.56219 54.375 14.4999C54.375 20.88 50.9023 30.0765 50.8697 30.1672C50.6595 30.7219 50.7319 31.3491 51.069 31.842C51.4097 32.3314 51.9681 32.625 52.5624 32.625H77.5061C80.5294 32.625 83.0959 34.7891 83.3496 37.5514C83.5417 39.6176 82.5484 41.5824 80.7686 42.6808C80.214 43.0215 79.8842 43.6378 79.9095 44.2939C79.9348 44.9499 80.3119 45.5372 80.8918 45.8381C82.4252 46.6176 83.3749 48.1545 83.3749 49.8437C83.3751 52.131 81.6459 54.0523 79.3549 54.3169Z" fill="black"/>
<path d="M27.1875 39.8748C26.187 39.8748 25.3749 40.6868 25.3749 41.6873V74.3123C25.3749 75.3128 26.187 76.1249 27.1875 76.1249C28.188 76.1249 29.0001 75.3128 29.0001 74.3123V41.6873C29.0001 40.6868 28.188 39.8748 27.1875 39.8748Z" fill="black"/>
</svg>
