<svg width="101" height="101" viewBox="0 0 101 101" fill="none" xmlns="http://www.w3.org/2000/svg">
<path d="M85.1033 47.5365L92.5211 35.8776C93.1594 36.085 93.8317 36.2016 94.5202 36.2016C98.0938 36.2016 101 33.2954 101 29.7218C101 26.1481 98.0938 23.2419 94.5202 23.2419C90.9465 23.2419 88.0403 26.1481 88.0403 29.7218C88.0403 31.4017 88.6753 32.973 89.7818 34.1507L82.2911 45.9214H61.3855L47.8831 24.9186L56.511 13.0556C57.2546 13.3505 58.05 13.5222 58.8811 13.5222C62.4547 13.5222 65.3609 10.616 65.3609 7.04234C65.3609 3.46871 62.4547 0.5625 58.8811 0.5625C55.3074 0.5625 52.4012 3.46871 52.4012 7.04234C52.4012 8.5732 52.9471 10.0328 53.8835 11.1619L45.0968 23.2419H29.4917C28.7676 20.454 26.2534 18.3821 23.2419 18.3821C19.6683 18.3821 16.7621 21.2883 16.7621 24.8619C16.7621 26.524 17.389 28.084 18.4874 29.2617L11.5782 40.0101C10.6516 39.6489 9.66991 39.4415 8.6623 39.4415C4.19607 39.4415 0.5625 43.0751 0.5625 47.5413C0.5625 52.0076 4.19607 55.6411 8.6623 55.6411C9.67153 55.6411 10.6548 55.4338 11.5798 55.0741L21.2802 70.1641L12.6523 82.027C11.9087 81.7322 11.1133 81.5605 10.2823 81.5605C6.70863 81.5605 3.80242 84.4667 3.80242 88.0403C3.80242 91.614 6.70863 94.5202 10.2823 94.5202C13.8559 94.5202 16.7621 91.614 16.7621 88.0403C16.7621 86.5095 16.2162 85.0499 15.2798 83.9208L24.0665 71.8407H45.0369L56.6844 89.9584C56.0396 90.7975 55.6411 91.8229 55.6411 92.9002C55.6411 95.5796 57.8216 97.7601 60.501 97.7601C62.6102 97.7601 64.3922 96.4009 65.0628 94.5202H75.2443C75.9975 98.2121 79.2682 101 83.1804 101C87.6467 101 91.2802 97.3664 91.2802 92.9002C91.2802 90.6809 90.3747 88.6187 88.8244 87.1153L99.6846 70.2208L85.1033 47.5365ZM94.5202 26.4819C96.307 26.4819 97.7601 27.935 97.7601 29.7218C97.7601 31.5086 96.307 32.9617 94.5202 32.9617C93.8916 32.9617 93.2955 32.79 92.7771 32.4514C91.8408 31.8585 91.2802 30.8379 91.2802 29.7218C91.2802 27.935 92.7333 26.4819 94.5202 26.4819ZM58.8811 3.80242C60.6679 3.80242 62.121 5.25552 62.121 7.04234C62.121 8.82915 60.6679 10.2823 58.8811 10.2823C58.1845 10.2823 57.5381 10.07 56.9646 9.64075C56.1368 9.05271 55.6411 8.08235 55.6411 7.04234C55.6411 5.25552 57.0942 3.80242 58.8811 3.80242ZM29.4917 26.4819H45.0369L58.5749 47.5413L45.0369 68.6008H24.1264L14.3062 53.3246C15.8582 51.8196 16.7621 49.7574 16.7621 47.5413C16.7621 45.322 15.8565 43.2598 14.3062 41.7565L21.2202 30.9999C21.8731 31.2186 22.5518 31.3417 23.2419 31.3417C26.2534 31.3417 28.7676 29.2698 29.4917 26.4819ZM23.2419 21.622C25.0288 21.622 26.4819 23.0751 26.4819 24.8619C26.4819 26.6487 25.0288 28.1018 23.2419 28.1018C22.6215 28.1018 22.0334 27.9269 21.4891 27.5786C20.5577 26.984 20.002 25.9699 20.002 24.8619C20.002 23.0751 21.4551 21.622 23.2419 21.622ZM3.80242 47.5413C3.80242 44.8619 5.98289 42.6815 8.6623 42.6815C9.59378 42.6815 10.4993 42.9487 11.2883 43.4607C12.6863 44.3565 13.5222 45.8825 13.5222 47.5413C13.5222 49.2002 12.6863 50.7262 11.2785 51.6253C10.4993 52.1339 9.59378 52.4012 8.6623 52.4012C5.98289 52.4012 3.80242 50.2207 3.80242 47.5413ZM10.2823 91.2802C8.49544 91.2802 7.04234 89.8271 7.04234 88.0403C7.04234 86.2535 8.49544 84.8004 10.2823 84.8004C10.9788 84.8004 11.6252 85.0126 12.1987 85.4419C13.0265 86.03 13.5222 87.0003 13.5222 88.0403C13.5222 89.8271 12.0691 91.2802 10.2823 91.2802ZM60.501 94.5202C59.6068 94.5202 58.8811 93.7944 58.8811 92.9002C58.8811 92.3543 59.1645 91.8359 59.6586 91.52C59.8951 91.3612 60.1786 91.2802 60.501 91.2802C61.3952 91.2802 62.121 92.006 62.121 92.9002C62.121 93.7944 61.3952 94.5202 60.501 94.5202ZM75.2443 91.2802H65.0628C64.3922 89.3995 62.6102 88.0403 60.501 88.0403C60.1187 88.0403 59.7493 88.0954 59.3897 88.178L47.8475 70.2208L61.3855 49.1613H82.2959L95.834 70.2208L86.0964 85.369C85.1698 85.0078 84.1881 84.8004 83.1804 84.8004C79.2699 84.8004 75.9975 87.5884 75.2443 91.2802ZM83.1804 97.7601C80.501 97.7601 78.3206 95.5796 78.3206 92.9002C78.3206 90.2208 80.501 88.0403 83.1804 88.0403C84.1119 88.0403 85.0175 88.3076 85.8064 88.8195C87.2044 89.7154 88.0403 91.2414 88.0403 92.9002C88.0403 95.5796 85.8599 97.7601 83.1804 97.7601Z" fill="black"/>
<path d="M23.2419 39.4417H36.2016V42.6816H23.2419V39.4417Z" fill="black"/>
<path d="M39.4415 39.4417H45.9214V42.6816H39.4415V39.4417Z" fill="black"/>
<path d="M23.2419 45.9216H45.9213V49.1616H23.2419V45.9216Z" fill="black"/>
<path d="M42.6815 52.4011H45.9214V55.641H42.6815V52.4011Z" fill="black"/>
<path d="M36.2016 52.4011H39.4415V55.641H36.2016V52.4011Z" fill="black"/>
<path d="M23.2419 52.4011H32.9617V55.641H23.2419V52.4011Z" fill="black"/>
<path d="M60.501 62.1208H73.4607V65.3608H60.501V62.1208Z" fill="black"/>
<path d="M76.7006 62.1208H83.1805V65.3608H76.7006V62.1208Z" fill="black"/>
<path d="M60.501 68.6011H83.1804V71.841H60.501V68.6011Z" fill="black"/>
<path d="M79.9405 75.0806H83.1804V78.3205H79.9405V75.0806Z" fill="black"/>
<path d="M73.4607 75.0806H76.7006V78.3205H73.4607V75.0806Z" fill="black"/>
<path d="M60.501 75.0806H70.2208V78.3205H60.501V75.0806Z" fill="black"/>
</svg>
