<svg width="103" height="108" viewBox="0 0 103 108" fill="none" xmlns="http://www.w3.org/2000/svg">
<path d="M42.6921 61.4851H3.8015C1.70187 61.4851 0 63.187 0 65.2866V104.199C0 106.298 1.70187 108 3.8015 108H42.6921C44.7918 108 46.4936 106.298 46.4936 104.199V65.2866C46.4936 63.187 44.7915 61.4851 42.6921 61.4851ZM42.2223 103.707H4.27135V65.7565H42.2223V103.707Z" fill="white"/>
<path d="M100.12 61.2716L62.5326 51.2766C60.4831 50.7766 58.411 52.0121 57.8768 54.053L47.8819 91.6409C47.3389 93.669 48.5429 95.7531 50.5709 96.2961C50.5715 96.2964 50.5723 96.2964 50.5728 96.2967L88.1607 106.292C90.1888 106.835 92.2729 105.631 92.8159 103.603C92.8162 103.602 92.8162 103.601 92.8164 103.601L102.726 65.9274C103.275 63.9244 102.115 61.8512 100.12 61.2716ZM88.8227 101.849L52.1319 92.2175L61.8919 55.548L98.5614 65.308L88.8227 101.849Z" fill="white"/>
<path d="M61.721 33.273C61.3331 32.5351 60.82 31.8703 60.2046 31.3081L49.5263 20.0531L48.2662 18.6863C47.9496 18.3579 47.5988 18.0645 47.2197 17.8107C46.8364 17.5498 46.3978 17.3817 45.9383 17.3195C44.8454 17.2431 43.7768 17.6673 43.0338 18.4727C42.7402 18.8331 42.5354 19.2573 42.4358 19.7114C42.3274 20.2453 42.2772 20.7897 42.2863 21.3345C42.2863 21.9539 42.2863 22.4878 42.2863 22.9363V38.484C42.329 39.1247 42.3645 39.6159 42.3931 39.9576C42.4094 40.2788 42.4743 40.5956 42.5853 40.8973C42.793 41.3984 43.2049 41.7871 43.7172 41.9652C44.2373 42.1787 44.8203 42.1787 45.3403 41.9652C45.8692 41.8149 46.2915 41.4163 46.4722 40.8973C46.6324 40.0748 46.6898 39.2352 46.6431 38.3986V35.3446L55.079 32.0343L57.0865 34.1699L58.0049 35.0883C58.2665 35.3648 58.5604 35.6086 58.8805 35.8144C59.1208 35.9591 59.3912 36.0467 59.6707 36.0707C59.9844 36.0934 60.2989 36.0421 60.5891 35.9212C61.0909 35.7151 61.4956 35.3256 61.721 34.832C61.9335 34.3341 61.9335 33.7708 61.721 33.273ZM46.4509 31.7139L46.1519 22.0179L52.6443 29.2792L46.4509 31.7139Z" fill="white"/>
<path d="M28.5752 83.0768C30.6097 82.317 31.9445 80.3575 31.9069 78.1861C31.9088 77.5598 31.8001 76.938 31.5866 76.3494C31.377 75.7656 31.066 75.2234 30.6682 74.7476C30.276 74.2738 29.8067 73.8693 29.28 73.5517C28.6246 73.1595 27.8993 72.8984 27.1443 72.7828C26.2327 72.6435 25.3114 72.5794 24.3893 72.5906H17.2989C16.5298 72.5068 15.7593 72.7377 15.1632 73.2313C14.676 73.8306 14.4459 74.5984 14.5225 75.367V92.1107C14.4446 92.8761 14.6664 93.6417 15.1419 94.2464C15.7374 94.7579 16.5191 94.9976 17.2989 94.9084H24.1117C25.1061 94.8777 26.0973 94.7848 27.0803 94.6308C27.8862 94.536 28.6764 94.335 29.4295 94.0328C30.484 93.5936 31.3837 92.8502 32.0137 91.8971C32.6571 90.8904 32.9913 89.7174 32.9747 88.5228C33.0239 85.8804 31.1688 83.5843 28.5752 83.0768ZM19.0715 76.029H22.6381C23.8805 75.965 25.1229 76.1537 26.2901 76.5843C27.0976 76.9743 27.5755 77.8276 27.4861 78.72C27.4909 79.2232 27.3579 79.7179 27.1016 80.1509C26.808 80.7246 26.3024 81.1613 25.6921 81.3682C24.8461 81.6128 23.9665 81.7209 23.0866 81.6886H18.9647L19.0715 76.029ZM28.383 88.2238C28.383 90.4163 26.8595 91.5127 23.8127 91.5127H18.9647L19.0715 85.0202H23.7059C24.9361 84.9426 26.1635 85.2087 27.2511 85.7891C28.0352 86.3409 28.4663 87.2686 28.383 88.2238Z" fill="white"/>
<path d="M86.0462 72.4625C85.5016 71.1149 84.6279 69.9253 83.5048 69.0027C82.2658 67.969 80.8037 67.2381 79.2334 66.867C77.8442 66.4829 76.3933 66.3742 74.9621 66.5467C73.5857 66.7146 72.2607 67.1732 71.0752 67.8921C69.8485 68.6476 68.7935 69.6514 67.9784 70.8394C67.0601 72.1915 66.3876 73.6956 65.9923 75.2816C65.7146 76.2934 65.5427 77.331 65.4797 78.3783C65.4247 79.3578 65.4891 80.3405 65.6719 81.3042C65.8441 82.2193 66.1311 83.1091 66.5262 83.9524C66.937 84.8179 67.4851 85.6113 68.1493 86.3017C68.8108 86.9792 69.5749 87.5486 70.4131 87.9888C71.3699 88.4865 72.3801 88.8733 73.4244 89.1421C74.7627 89.5265 76.1647 89.6354 77.5463 89.4625C78.7102 89.2833 79.8237 88.8613 80.8138 88.2238C81.6323 87.7123 82.355 87.062 82.9495 86.3017C83.4551 85.6719 83.8257 84.945 84.0387 84.166C84.1887 83.6628 84.1188 83.1198 83.8465 82.671C83.587 82.2212 83.1551 81.8971 82.6505 81.774C82.1572 81.5962 81.6083 81.6678 81.1769 81.9662C80.7645 82.3042 80.4107 82.7084 80.1304 83.1622C79.4673 84.1273 78.53 84.8713 77.4395 85.2979C76.3292 85.6599 75.1327 85.6599 74.0224 85.2979C73.0136 85.1019 72.0765 84.6372 71.3101 83.9524C70.5688 83.1091 70.1064 82.0573 69.986 80.9411C69.8429 79.5046 69.9806 78.0537 70.3918 76.6698C70.7727 74.5253 71.8726 72.5746 73.5098 71.1384C74.8777 70.0735 76.6773 69.7392 78.3365 70.2414C79.3485 70.4736 80.2652 71.0102 80.9633 71.7791C81.6468 72.6307 82.1155 73.6342 82.3302 74.705C82.4391 75.272 82.6334 75.8192 82.9068 76.3281C83.1823 76.7106 83.5958 76.9712 84.0601 77.0542C84.5483 77.1893 85.0713 77.1033 85.491 76.8193C85.9248 76.5569 86.239 76.1353 86.3666 75.6446C86.5916 74.5763 86.4798 73.4644 86.0462 72.4625Z" fill="white"/>
<path d="M77.7598 38.6974L63.5363 2.39093C62.7458 0.45628 60.5543 -0.492226 58.6029 0.25526L22.2964 14.4789C20.3444 15.2514 19.3884 17.4603 20.1607 19.4123L34.4911 55.7187C35.2637 57.6707 37.4725 58.6267 39.4245 57.8544L75.6242 43.6308C77.5762 42.8582 78.5322 40.6494 77.7598 38.6974ZM38.2926 53.6898L24.4107 18.3658L59.7348 4.46254L73.6166 39.808L38.2926 53.6898Z" fill="white"/>
</svg>
