<svg width="78" height="111" viewBox="0 0 78 111" fill="none" xmlns="http://www.w3.org/2000/svg">
<path d="M72.6818 72.6818V61.2265L67.8476 63.1073L67.8334 63.0754L67.7182 62.8662C65.8657 59.982 62.8698 57.9753 59.4963 57.3637L47.8636 55.247V54.3288C52.2139 51.8026 55.3995 47.4931 56.3922 42.3983C59.615 41.7318 62.0455 38.8724 62.0455 35.4545V17.9453C62.0455 12.9976 58.8049 8.68282 54.1036 7.27882L53.2173 6.39245C49.0939 2.26909 43.6126 0 37.7821 0C25.7471 0 15.9545 9.79077 15.9545 21.8276V35.4545C15.9545 38.8724 18.385 41.7318 21.6078 42.3983C22.6023 47.4931 25.7861 51.8044 30.1364 54.3288V55.247L18.5055 57.3619C15.1355 57.9735 12.1414 59.9767 10.2871 62.8591L10.1808 63.118L5.31818 61.2265V72.6818C2.38609 72.6818 0 75.0679 0 78V85.0909C0 88.023 2.38609 90.4091 5.31818 90.4091V96.9398L39 110.04L72.6818 96.9398V90.4091C75.6139 90.4091 78 88.023 78 85.0909V78C78 75.0679 75.6139 72.6818 72.6818 72.6818ZM51.1857 59.4555L58.8616 60.8506C61.1219 61.2619 63.1233 62.5666 64.4581 64.4245L47.307 71.0935L51.1857 59.4555ZM33.8325 55.9544C35.4687 56.4543 37.2025 56.7273 39 56.7273C40.7975 56.7273 42.5313 56.4543 44.1675 55.9544L39 59.8295L33.8325 55.9544ZM36.3019 62.2369L32.6838 65.8533L30.3367 58.8138L31.4659 58.6099L36.3019 62.2369ZM46.5341 58.6117L47.6633 58.8155L45.3162 65.855L41.6981 62.2387L46.5341 58.6117ZM56.7273 38.5072V32.4019C57.782 33.017 58.5 34.148 58.5 35.4545C58.5 36.761 57.782 37.892 56.7273 38.5072ZM21.2727 38.5072C20.218 37.892 19.5 36.761 19.5 35.4545C19.5 34.148 20.218 33.017 21.2727 32.4019V38.5072ZM21.2727 26.5909V28.6154C20.6416 28.7802 20.0495 29.0284 19.5 29.3493V21.8276C19.5 11.7479 27.7006 3.54545 37.7821 3.54545C42.6642 3.54545 47.2574 5.44759 50.7106 8.90086L52.2742 10.4662L52.751 10.5832C56.137 11.4288 58.5 14.4566 58.5 17.9453V29.3493C57.9505 29.0284 57.3584 28.7785 56.7273 28.6154V26.5909H51.106C46.3019 26.5909 41.7105 24.297 38.8298 20.4555L37.4205 18.5729L33.8981 22.097C30.9979 24.9955 27.144 26.5909 23.0455 26.5909H21.2727ZM24.8182 39V30.0548C29.195 29.6489 33.2564 27.7503 36.4047 24.6037L37.0943 23.9141C40.6486 27.8371 45.7683 30.1364 51.106 30.1364H53.1818V39C53.1818 46.8195 46.8195 53.1818 39 53.1818C31.1805 53.1818 24.8182 46.8195 24.8182 39ZM19.1384 60.8506L26.8143 59.4555L30.693 71.0935L13.5383 64.4227C14.8732 62.5631 16.8781 61.2619 19.1384 60.8506ZM3.54545 85.0909V78C3.54545 77.0215 4.34141 76.2273 5.31818 76.2273C8.25027 76.2273 10.6364 78.6134 10.6364 81.5455C10.6364 84.4775 8.25027 86.8636 5.31818 86.8636C4.34141 86.8636 3.54545 86.0695 3.54545 85.0909ZM37.2273 105.545L8.86364 94.5165V89.6575C11.989 88.2854 14.1818 85.1707 14.1818 81.5455C14.1818 77.9202 11.989 74.8055 8.86364 73.4335V66.4099L37.2273 77.4398V105.545ZM31.964 71.5898L39 64.5521L46.036 71.588L39 74.3251L31.964 71.5898ZM69.1364 94.5147L40.7727 105.543V77.4398L69.1364 66.4099V73.4335C66.011 74.8055 63.8182 77.9202 63.8182 81.5455C63.8182 85.1707 66.011 88.2854 69.1364 89.6575V94.5147ZM74.4545 85.0909C74.4545 86.0695 73.6586 86.8636 72.6818 86.8636C69.7497 86.8636 67.3636 84.4775 67.3636 81.5455C67.3636 78.6134 69.7497 76.2273 72.6818 76.2273C73.6586 76.2273 74.4545 77.0215 74.4545 78V85.0909Z" fill="white"/>
</svg>
